<svg width="49" height="292" viewBox="0 0 49 292" fill="none" xmlns="http://www.w3.org/2000/svg">
<path d="M13.6447 0.564058C13.4039 0.428828 13.0991 0.51438 12.9639 0.755144C12.8287 0.995908 12.9142 1.30071 13.155 1.43594L13.6447 0.564058ZM40.1834 73.6036L39.769 73.3239L40.1834 73.6036ZM23.3197 155.636L23.7699 155.419L23.7662 155.411L23.7622 155.403L23.3197 155.636ZM0.504954 289.93C0.466177 290.203 0.656382 290.456 0.929788 290.495L5.3852 291.127C5.65861 291.166 5.91168 290.976 5.95046 290.702C5.98923 290.429 5.79903 290.176 5.52562 290.137L1.56526 289.575L2.12695 285.615C2.16573 285.341 1.97553 285.088 1.70212 285.05C1.42871 285.011 1.17564 285.201 1.13686 285.474L0.504954 289.93ZM2.10983 289.785C2.32884 289.617 2.37005 289.303 2.20187 289.084C2.03368 288.865 1.71979 288.823 1.50077 288.992L2.10983 289.785ZM3.07022 287.76C2.85475 287.933 2.82008 288.248 2.99279 288.463C3.1655 288.679 3.48018 288.713 3.69565 288.541L3.07022 287.76ZM5.23783 287.278C5.44963 287.101 5.47769 286.785 5.3005 286.573C5.12332 286.362 4.80798 286.334 4.59618 286.511L5.23783 287.278ZM6.10468 285.221C5.89672 285.403 5.87543 285.719 6.05712 285.927C6.2388 286.135 6.55467 286.156 6.76262 285.974L6.10468 285.221ZM8.26446 284.633C8.46839 284.447 8.48277 284.131 8.29658 283.927C8.11039 283.723 7.79414 283.708 7.5902 283.894L8.26446 284.633ZM9.03098 282.55C8.83119 282.74 8.82376 283.057 9.01438 283.257C9.205 283.457 9.52149 283.464 9.72129 283.273L9.03098 282.55ZM11.1608 281.869C11.3563 281.674 11.3566 281.357 11.1616 281.162C10.9665 280.966 10.6499 280.966 10.4544 281.161L11.1608 281.869ZM11.8451 279.741C11.6541 279.941 11.661 280.257 11.8604 280.448C12.0599 280.639 12.3764 280.632 12.5674 280.433L11.8451 279.741ZM13.9279 278.979C14.1143 278.776 14.1002 278.459 13.8965 278.273C13.6927 278.087 13.3765 278.101 13.1901 278.304L13.9279 278.979ZM14.5191 276.817C14.3375 277.025 14.359 277.341 14.567 277.523C14.775 277.704 15.0909 277.683 15.2725 277.475L14.5191 276.817ZM16.5737 275.949C16.7504 275.737 16.7216 275.421 16.5094 275.245C16.2972 275.068 15.9819 275.097 15.8052 275.309L16.5737 275.949ZM17.0498 273.778C16.8782 273.994 16.9143 274.309 17.1306 274.481C17.3469 274.652 17.6614 274.616 17.8331 274.4L17.0498 273.778ZM19.0681 272.806C19.2346 272.585 19.191 272.272 18.9707 272.105C18.7504 271.939 18.4368 271.982 18.2703 272.203L19.0681 272.806ZM19.4438 270.611C19.2826 270.836 19.3336 271.148 19.5578 271.309C19.7819 271.47 20.0944 271.419 20.2556 271.195L19.4438 270.611ZM21.4075 269.553C21.5634 269.325 21.505 269.014 21.277 268.858C21.0491 268.702 20.7379 268.761 20.5821 268.989L21.4075 269.553ZM21.6837 267.336C21.5333 267.567 21.5991 267.877 21.8307 268.027C22.0623 268.178 22.372 268.112 22.5224 267.88L21.6837 267.336ZM23.59 266.193C23.7348 265.958 23.6617 265.65 23.4266 265.505C23.1915 265.36 22.8835 265.433 22.7386 265.668L23.59 266.193ZM23.7622 263.962C23.623 264.2 23.7035 264.506 23.942 264.646C24.1805 264.785 24.4867 264.704 24.6259 264.466L23.7622 263.962ZM25.616 262.723C25.7495 262.481 25.6618 262.177 25.4201 262.043C25.1784 261.91 24.8742 261.997 24.7406 262.239L25.616 262.723ZM25.6773 260.495C25.5495 260.74 25.6444 261.042 25.8892 261.17C26.134 261.298 26.436 261.203 26.5638 260.958L25.6773 260.495ZM27.4732 259.165C27.5952 258.917 27.4933 258.618 27.2455 258.496C26.9978 258.374 26.6981 258.475 26.5761 258.723L27.4732 259.165ZM27.429 256.939C27.3128 257.19 27.4216 257.487 27.6721 257.603C27.9226 257.72 28.2199 257.611 28.3361 257.36L27.429 256.939ZM29.1609 255.527C29.2713 255.274 29.1556 254.98 28.9025 254.869C28.6494 254.759 28.3547 254.874 28.2443 255.128L29.1609 255.527ZM29.016 253.302C28.9114 253.557 29.0338 253.849 29.2894 253.954C29.545 254.058 29.8369 253.936 29.9415 253.68L29.016 253.302ZM30.6792 251.818C30.778 251.56 30.649 251.271 30.3912 251.172C30.1333 251.073 29.8442 251.202 29.7454 251.46L30.6792 251.818ZM30.4351 249.597C30.3421 249.857 30.4775 250.144 30.7375 250.237C30.9975 250.33 31.2837 250.194 31.3767 249.934L30.4351 249.597ZM32.0298 248.042C32.117 247.78 31.9754 247.497 31.7134 247.41C31.4514 247.323 31.1682 247.464 31.081 247.726L32.0298 248.042ZM31.6879 245.835C31.6064 246.099 31.7543 246.379 32.0181 246.46C32.2819 246.542 32.5619 246.394 32.6434 246.13L31.6879 245.835ZM33.2144 244.208C33.2902 243.943 33.1364 243.666 32.8709 243.59C32.6054 243.514 32.3287 243.668 32.2528 243.934L33.2144 244.208ZM32.7771 242.022C32.7069 242.289 32.8664 242.562 33.1335 242.632C33.4006 242.703 33.674 242.543 33.7442 242.276L32.7771 242.022ZM34.2341 240.33C34.2987 240.061 34.1335 239.791 33.865 239.727C33.5965 239.662 33.3265 239.827 33.2619 240.096L34.2341 240.33ZM33.7057 238.165C33.6466 238.435 33.8173 238.702 34.087 238.761C34.3568 238.82 34.6234 238.649 34.6825 238.38L33.7057 238.165ZM35.0926 236.414C35.1463 236.143 34.9703 235.88 34.6994 235.826C34.4285 235.773 34.1654 235.949 34.1117 236.22L35.0926 236.414ZM34.4781 234.27C34.4298 234.542 34.611 234.802 34.8829 234.85C35.1548 234.899 35.4144 234.717 35.4627 234.445L34.4781 234.27ZM35.7944 232.469C35.8374 232.196 35.6512 231.94 35.3785 231.897C35.1057 231.854 34.8497 232.04 34.8066 232.313L35.7944 232.469ZM35.0975 230.348C35.0597 230.622 35.2507 230.874 35.5243 230.912C35.7978 230.95 36.0502 230.759 36.0881 230.485L35.0975 230.348ZM36.3439 228.501C36.3767 228.227 36.181 227.978 35.9068 227.945C35.6326 227.912 35.3837 228.108 35.351 228.382L36.3439 228.501ZM35.5687 226.406C35.5409 226.68 35.7412 226.926 36.0159 226.953C36.2907 226.981 36.5359 226.781 36.5636 226.506L35.5687 226.406ZM36.7465 224.513C36.7693 224.238 36.5647 223.996 36.2895 223.974C36.0143 223.951 35.7727 224.155 35.75 224.431L36.7465 224.513ZM35.8964 222.449C35.8785 222.724 36.0873 222.962 36.3629 222.98C36.6384 222.998 36.8763 222.789 36.8943 222.513L35.8964 222.449ZM37.0069 220.514C37.0201 220.238 36.8071 220.004 36.5313 219.99C36.2554 219.977 36.0212 220.19 36.008 220.466L37.0069 220.514ZM36.0857 218.483C36.0772 218.759 36.2941 218.989 36.5701 218.998C36.8461 219.006 37.0767 218.789 37.0852 218.513L36.0857 218.483ZM37.1299 216.509C37.1338 216.233 36.9131 216.006 36.637 216.002C36.3609 215.998 36.1339 216.219 36.13 216.495L37.1299 216.509ZM36.1416 214.513C36.1422 214.789 36.3666 215.012 36.6427 215.012C36.9189 215.011 37.1422 214.787 37.1416 214.511L36.1416 214.513ZM37.1207 212.503C37.1156 212.227 36.8877 212.007 36.6116 212.012C36.3355 212.017 36.1158 212.245 36.1209 212.521L37.1207 212.503ZM36.0687 210.538C36.0781 210.814 36.3095 211.03 36.5855 211.021C36.8615 211.011 37.0776 210.78 37.0681 210.504L36.0687 210.538ZM36.9841 208.501C36.9704 208.226 36.7357 208.013 36.4599 208.027C36.1841 208.04 35.9716 208.275 35.9853 208.551L36.9841 208.501ZM35.8715 206.567C35.8894 206.843 36.1273 207.052 36.4029 207.034C36.6785 207.016 36.8873 206.778 36.8694 206.502L35.8715 206.567ZM36.7247 204.507C36.7027 204.232 36.4617 204.027 36.1864 204.049C35.9112 204.071 35.7059 204.312 35.7279 204.587L36.7247 204.507ZM35.5544 202.604C35.5805 202.879 35.8245 203.081 36.0994 203.055C36.3743 203.028 36.576 202.784 36.5499 202.51L35.5544 202.604ZM36.347 200.525C36.3169 200.25 36.07 200.052 35.7955 200.082C35.521 200.112 35.3229 200.359 35.3529 200.634L36.347 200.525ZM35.1214 198.652C35.1554 198.926 35.4051 199.121 35.6792 199.087C35.9532 199.053 36.1478 198.803 36.1138 198.529L35.1214 198.652ZM35.8539 196.55C35.816 196.276 35.5635 196.085 35.29 196.123C35.0165 196.161 34.8254 196.413 34.8633 196.687L35.8539 196.55ZM34.5761 194.715C34.6178 194.988 34.8729 195.175 35.1459 195.134C35.4189 195.092 35.6063 194.837 35.5646 194.564L34.5761 194.715ZM35.2491 192.59C35.2036 192.317 34.946 192.134 34.6736 192.179C34.4012 192.224 34.2173 192.482 34.2628 192.755L35.2491 192.59ZM33.9218 190.795C33.971 191.066 34.2311 191.247 34.5029 191.197C34.7746 191.148 34.955 190.888 34.9058 190.616L33.9218 190.795ZM34.5358 188.649C34.483 188.378 34.2204 188.201 33.9494 188.254C33.6783 188.307 33.5015 188.569 33.5543 188.84L34.5358 188.649ZM33.1611 186.894C33.2176 187.164 33.4825 187.338 33.7528 187.281C34.0231 187.225 34.1964 186.96 34.1399 186.689L33.1611 186.894ZM33.7164 184.729C33.6563 184.46 33.3891 184.29 33.1196 184.35C32.85 184.41 32.6803 184.677 32.7404 184.947L33.7164 184.729ZM32.2961 183.015C32.3598 183.284 32.6292 183.45 32.8979 183.387C33.1666 183.323 33.3328 183.053 33.2691 182.785L32.2961 183.015ZM32.7926 180.833C32.7253 180.565 32.4537 180.403 32.1859 180.47C31.9181 180.537 31.7555 180.809 31.8228 181.077L32.7926 180.833ZM31.328 179.161C31.3988 179.428 31.6726 179.587 31.9395 179.516C32.2064 179.445 32.3654 179.172 32.2945 178.905L31.328 179.161ZM31.7654 176.963C31.691 176.698 31.4151 176.542 31.1492 176.617C30.8833 176.691 30.728 176.967 30.8024 177.233L31.7654 176.963ZM30.2572 175.333C30.3351 175.598 30.6131 175.749 30.878 175.672C31.1429 175.594 31.2944 175.316 31.2165 175.051L30.2572 175.333ZM30.6349 173.123C30.5533 172.859 30.2733 172.711 30.0095 172.793C29.7457 172.874 29.5979 173.154 29.6795 173.418L30.6349 173.123ZM29.0829 171.534C29.168 171.796 29.45 171.94 29.7127 171.855C29.9754 171.77 30.1193 171.488 30.0342 171.225L29.0829 171.534ZM29.3999 169.314C29.3111 169.053 29.0271 168.913 28.7657 169.002C28.5042 169.091 28.3642 169.374 28.4531 169.636L29.3999 169.314ZM27.8031 167.766C27.8957 168.026 28.1816 168.162 28.4418 168.07C28.7019 167.977 28.8378 167.691 28.7453 167.431L27.8031 167.766ZM28.0582 165.543C27.9619 165.284 27.674 165.153 27.4152 165.249C27.1564 165.345 27.0247 165.633 27.1211 165.892L28.0582 165.543ZM26.4143 164.036C26.5146 164.293 26.8044 164.421 27.0617 164.321C27.319 164.22 27.4463 163.93 27.3461 163.673L26.4143 164.036ZM26.6061 161.817C26.5019 161.561 26.2101 161.438 25.9544 161.542C25.6987 161.647 25.5759 161.938 25.6802 162.194L26.6061 161.817ZM24.9112 160.352C25.0197 160.606 25.3135 160.724 25.5675 160.615C25.8214 160.507 25.9393 160.213 25.8308 159.959L24.9112 160.352ZM25.0358 158.142C24.923 157.89 24.6272 157.777 24.3751 157.89C24.1231 158.003 24.0103 158.298 24.1232 158.55L25.0358 158.142ZM23.2871 156.73C23.4048 156.979 23.7027 157.087 23.9525 156.969C24.2023 156.851 24.3095 156.553 24.1919 156.304L23.2871 156.73ZM23.3186 154.531C23.1969 154.283 22.8972 154.181 22.6494 154.302C22.4015 154.424 22.2993 154.724 22.421 154.972L23.3186 154.531ZM21.585 153.145C21.6931 153.399 21.9867 153.518 22.2408 153.409C22.4949 153.301 22.6133 153.008 22.5052 152.754L21.585 153.145ZM21.7872 150.934C21.6926 150.674 21.4056 150.541 21.1462 150.635C20.8867 150.73 20.7531 151.017 20.8477 151.276L21.7872 150.934ZM20.2083 149.374C20.2897 149.638 20.5696 149.786 20.8335 149.704C21.0974 149.623 21.2453 149.343 21.1639 149.079L20.2083 149.374ZM20.6325 147.194C20.564 146.927 20.2915 146.766 20.024 146.834C19.7565 146.903 19.5953 147.175 19.6638 147.443L20.6325 147.194ZM19.2107 145.487C19.2669 145.757 19.5316 145.931 19.8019 145.875C20.0723 145.819 20.2459 145.554 20.1897 145.283L19.2107 145.487ZM19.8333 143.357C19.7889 143.085 19.532 142.9 19.2595 142.944C18.9869 142.988 18.8019 143.245 18.8463 143.518L19.8333 143.357ZM18.5656 141.535C18.5987 141.809 18.8478 142.005 19.122 141.972C19.3961 141.939 19.5915 141.689 19.5583 141.415L18.5656 141.535ZM19.3608 139.46C19.3383 139.185 19.097 138.98 18.8217 139.003C18.5465 139.025 18.3416 139.267 18.3641 139.542L19.3608 139.46ZM18.238 137.544C18.2504 137.82 18.4841 138.034 18.76 138.021C19.0358 138.009 19.2494 137.775 19.237 137.499L18.238 137.544ZM19.1828 135.537C19.1799 135.26 18.9537 135.039 18.6776 135.042C18.4015 135.045 18.18 135.271 18.1829 135.547L19.1828 135.537ZM18.1944 133.547C18.1884 133.824 18.4073 134.052 18.6834 134.058C18.9595 134.064 19.1882 133.845 19.1942 133.569L18.1944 133.547ZM19.2675 131.601C19.282 131.325 19.0701 131.09 18.7944 131.075C18.5186 131.061 18.2833 131.273 18.2689 131.548L19.2675 131.601ZM18.4021 129.558C18.3797 129.834 18.5847 130.075 18.86 130.097C19.1352 130.119 19.3764 129.914 19.3988 129.639L18.4021 129.558ZM19.585 127.678C19.6148 127.404 19.4164 127.157 19.1419 127.127C18.8673 127.098 18.6206 127.296 18.5908 127.571L19.585 127.678ZM18.8321 125.587C18.7953 125.861 18.9873 126.112 19.261 126.149C19.5346 126.186 19.7863 125.994 19.8232 125.72L18.8321 125.587ZM20.1094 123.773C20.1528 123.5 19.967 123.244 19.6942 123.2C19.4215 123.157 19.1653 123.343 19.1218 123.615L20.1094 123.773ZM19.4582 121.649C19.4085 121.921 19.5885 122.182 19.8601 122.231C20.1318 122.281 20.3922 122.101 20.4419 121.829L19.4582 121.649ZM20.818 119.892C20.8736 119.621 20.6993 119.357 20.4288 119.302C20.1583 119.246 19.894 119.42 19.8385 119.691L20.818 119.892ZM20.2595 117.744C20.1984 118.013 20.3671 118.281 20.6364 118.342C20.9057 118.403 21.1736 118.234 21.2347 117.965L20.2595 117.744ZM21.6905 116.045C21.7569 115.777 21.5935 115.506 21.3255 115.439C21.0574 115.373 20.7863 115.536 20.7199 115.804L21.6905 116.045ZM21.2174 113.875C21.1459 114.142 21.3043 114.416 21.571 114.487C21.8378 114.559 22.1119 114.4 22.1833 114.133L21.2174 113.875ZM22.7111 112.231C22.7873 111.966 22.6339 111.689 22.3685 111.613C22.1031 111.537 21.8262 111.69 21.75 111.955L22.7111 112.231ZM22.3162 110.046C22.2355 110.31 22.3841 110.589 22.6481 110.67C22.9122 110.751 23.1917 110.602 23.2725 110.338L22.3162 110.046ZM23.8654 108.455C23.9505 108.193 23.8065 107.911 23.5438 107.826C23.2811 107.74 22.9992 107.884 22.9141 108.147L23.8654 108.455ZM23.5431 106.257C23.4539 106.518 23.5933 106.803 23.8546 106.892C24.116 106.981 24.4002 106.842 24.4894 106.58L23.5431 106.257ZM25.1427 104.715C25.2359 104.455 25.1008 104.169 24.8409 104.076C24.581 103.983 24.2947 104.118 24.2014 104.378L25.1427 104.715ZM24.8869 102.511C24.7898 102.77 24.9206 103.058 25.1791 103.155C25.4376 103.252 25.7259 103.121 25.823 102.863L24.8869 102.511ZM26.532 101.017C26.6328 100.759 26.5061 100.469 26.2491 100.368C25.992 100.268 25.7018 100.394 25.601 100.651L26.532 101.017ZM26.3412 98.8027C26.2367 99.0584 26.3593 99.3503 26.615 99.4547C26.8706 99.5591 27.1625 99.4365 27.2669 99.1809L26.3412 98.8027ZM28.0257 97.3591C28.1336 97.1049 28.015 96.8114 27.7608 96.7035C27.5067 96.5956 27.2131 96.7141 27.1052 96.9683L28.0257 97.3591ZM27.8955 95.141C27.7842 95.3937 27.8988 95.6888 28.1515 95.8001C28.4043 95.9115 28.6994 95.7968 28.8107 95.5441L27.8955 95.141ZM29.6204 93.7381C29.735 93.4869 29.6243 93.1903 29.3731 93.0756C29.1219 92.961 28.8253 93.0717 28.7106 93.323L29.6204 93.7381ZM29.5476 91.5198C29.4297 91.7695 29.5366 92.0675 29.7863 92.1854C30.036 92.3033 30.334 92.1964 30.4519 91.9467L29.5476 91.5198ZM31.3053 90.1688C31.4264 89.9206 31.3234 89.6212 31.0752 89.5002C30.827 89.3791 30.5277 89.4821 30.4066 89.7303L31.3053 90.1688ZM31.2931 87.9427C31.1688 88.1893 31.268 88.4899 31.5146 88.6142C31.7612 88.7385 32.0618 88.6393 32.1861 88.3927L31.2931 87.9427ZM33.088 86.6317C33.2154 86.3867 33.1202 86.0848 32.8752 85.9573C32.6303 85.8299 32.3283 85.9251 32.2009 86.1701L33.088 86.6317ZM33.1295 84.4133C32.9989 84.6566 33.0902 84.9597 33.3335 85.0904C33.5768 85.221 33.8799 85.1297 34.0105 84.8864L33.1295 84.4133ZM34.9536 83.1576C35.0875 82.9161 35.0002 82.6118 34.7587 82.4779C34.5171 82.344 34.2128 82.4313 34.079 82.6729L34.9536 83.1576ZM35.0579 80.9344C34.9208 81.1741 35.0039 81.4796 35.2435 81.6168C35.4832 81.7539 35.7887 81.6708 35.9259 81.4311L35.0579 80.9344ZM36.9217 79.7193C37.0622 79.4816 36.9835 79.175 36.7458 79.0344C36.5081 78.8938 36.2015 78.9726 36.0609 79.2103L36.9217 79.7193ZM37.0883 77.5025C36.9441 77.738 37.0182 78.0458 37.2537 78.1899C37.4893 78.3341 37.7971 78.26 37.9412 78.0245L37.0883 77.5025ZM38.9863 76.3475C39.1343 76.1144 39.0653 75.8054 38.8321 75.6574C38.599 75.5094 38.29 75.5784 38.142 75.8116L38.9863 76.3475ZM39.2251 74.1386C39.0728 74.369 39.1362 74.6792 39.3666 74.8314C39.597 74.9836 39.9072 74.9202 40.0594 74.6898L39.2251 74.1386ZM41.165 73.0266C41.3153 72.795 41.2494 72.4854 41.0178 72.335C40.7862 72.1847 40.4765 72.2506 40.3262 72.4822L41.165 73.0266ZM41.3713 70.806C41.2295 71.043 41.3068 71.35 41.5438 71.4917C41.7808 71.6335 42.0878 71.5562 42.2295 71.3192L41.3713 70.806ZM43.2316 69.5675C43.364 69.3252 43.2749 69.0214 43.0325 68.889C42.7902 68.7567 42.4864 68.8458 42.354 69.0881L43.2316 69.5675ZM43.2615 67.3436C43.1392 67.5912 43.2407 67.8911 43.4882 68.0134C43.7358 68.1358 44.0357 68.0343 44.158 67.7867L43.2615 67.3436ZM45.0167 65.9506C45.1282 65.6979 45.0137 65.4028 44.7611 65.2913C44.5085 65.1798 44.2133 65.2943 44.1018 65.5469L45.0167 65.9506ZM44.8507 63.7414C44.7507 63.9988 44.8783 64.2885 45.1357 64.3885C45.3931 64.4885 45.6829 64.3609 45.7828 64.1035L44.8507 63.7414ZM46.4746 62.1889C46.5622 61.927 46.4209 61.6437 46.159 61.5561C45.8971 61.4686 45.6138 61.6099 45.5262 61.8718L46.4746 62.1889ZM46.1036 59.9932C46.029 60.259 46.1841 60.535 46.45 60.6096C46.7159 60.6842 46.9919 60.5291 47.0665 60.2632L46.1036 59.9932ZM47.5623 58.3055C47.6232 58.0362 47.4542 57.7685 47.1849 57.7076C46.9155 57.6466 46.6478 57.8156 46.5869 58.0849L47.5623 58.3055ZM46.9719 56.1488C46.9252 56.421 47.1079 56.6795 47.3801 56.7262C47.6523 56.7729 47.9108 56.5901 47.9575 56.3179L46.9719 56.1488ZM48.2455 54.323C48.2776 54.0488 48.0814 53.8004 47.8071 53.7682C47.5328 53.7361 47.2844 53.9323 47.2523 54.2066L48.2455 54.323ZM47.4288 52.2436C47.4116 52.5192 47.621 52.7566 47.8966 52.7739C48.1722 52.7912 48.4096 52.5818 48.4269 52.3062L47.4288 52.2436ZM48.4987 50.2831C48.501 50.007 48.279 49.7812 48.0029 49.7789C47.7268 49.7766 47.501 49.9986 47.4987 50.2747L48.4987 50.2831ZM47.4621 48.3101C47.4747 48.586 47.7085 48.7994 47.9844 48.7869C48.2602 48.7743 48.4737 48.5405 48.4611 48.2646L47.4621 48.3101ZM48.315 46.2467C48.2877 45.9719 48.0428 45.7713 47.768 45.7985C47.4932 45.8258 47.2926 46.0707 47.3199 46.3455L48.315 46.2467ZM47.0738 44.3902C47.1154 44.6632 47.3704 44.8508 47.6434 44.8091C47.9164 44.7675 48.104 44.5125 48.0624 44.2395L47.0738 44.3902ZM47.707 42.2512C47.6515 41.9807 47.3873 41.8064 47.1167 41.8618C46.8462 41.9173 46.6719 42.1816 46.7274 42.4521L47.707 42.2512ZM46.2838 40.5321C46.3525 40.7995 46.625 40.9606 46.8925 40.8919C47.1599 40.8231 47.321 40.5506 47.2523 40.2831L46.2838 40.5321ZM46.7025 38.3388C46.6211 38.0749 46.3413 37.927 46.0774 38.0084C45.8135 38.0898 45.6656 38.3697 45.747 38.6335L46.7025 38.3388ZM45.1223 36.7623C45.2157 37.0222 45.502 37.1572 45.7619 37.0638C46.0218 36.9705 46.1568 36.6841 46.0635 36.4242L45.1223 36.7623ZM45.3401 34.5412C45.2355 34.2856 44.9435 34.1632 44.6879 34.2678C44.4324 34.3724 44.31 34.6644 44.4146 34.9199L45.3401 34.5412ZM43.6281 33.1075C43.7433 33.3585 44.0401 33.4687 44.2911 33.3535C44.5421 33.2384 44.6522 32.9416 44.5371 32.6906L43.6281 33.1075ZM43.6603 30.8753C43.5353 30.629 43.2344 30.5307 42.9882 30.6557C42.7419 30.7806 42.6436 31.0815 42.7685 31.3278L43.6603 30.8753ZM41.8406 29.582C41.9748 29.8234 42.2792 29.9103 42.5205 29.7762C42.7619 29.6421 42.8489 29.3377 42.7148 29.0963L41.8406 29.582ZM41.7051 27.3538C41.5624 27.1173 41.2551 27.0413 41.0186 27.184C40.7822 27.3266 40.7062 27.6339 40.8488 27.8704L41.7051 27.3538ZM39.7971 26.1929C39.9477 26.4243 40.2575 26.4899 40.4889 26.3393C40.7204 26.1887 40.7859 25.879 40.6353 25.6475L39.7971 26.1929ZM39.5106 23.9788C39.3526 23.7523 39.0409 23.6967 38.8144 23.8547C38.588 24.0127 38.5324 24.3244 38.6904 24.5508L39.5106 23.9788ZM37.5332 22.9452C37.698 23.1668 38.0112 23.2127 38.2328 23.0479C38.4543 22.883 38.5003 22.5698 38.3354 22.3483L37.5332 22.9452ZM37.1101 20.7514C36.9389 20.5347 36.6244 20.498 36.4078 20.6692C36.1912 20.8405 36.1544 21.1549 36.3257 21.3716L37.1101 20.7514ZM35.0738 19.8332C35.251 20.0449 35.5664 20.0729 35.7781 19.8956C35.9899 19.7184 36.0178 19.403 35.8406 19.1913L35.0738 19.8332ZM34.5308 17.6687C34.3479 17.4618 34.0319 17.4423 33.825 17.6251C33.6181 17.808 33.5986 18.1239 33.7814 18.3309L34.5308 17.6687ZM32.4499 16.8627C32.638 17.0649 32.9544 17.0763 33.1566 16.8882C33.3587 16.7001 33.3702 16.3837 33.1821 16.1815L32.4499 16.8627ZM31.7932 14.7256C31.6001 14.5282 31.2835 14.5246 31.0861 14.7177C30.8887 14.9107 30.8851 15.2273 31.0782 15.4247L31.7932 14.7256ZM29.673 14.0219C29.8708 14.2146 30.1873 14.2106 30.3801 14.0129C30.5729 13.8151 30.5688 13.4986 30.3711 13.3058L29.673 14.0219ZM28.9187 11.9226C28.7165 11.7345 28.4001 11.7459 28.212 11.9481C28.0239 12.1502 28.0353 12.4666 28.2375 12.6547L28.9187 11.9226ZM26.7719 11.3219C26.9783 11.5054 27.2944 11.4868 27.4778 11.2804C27.6613 11.074 27.6427 10.758 27.4363 10.5745L26.7719 11.3219ZM25.9168 9.2541C25.7064 9.07532 25.3908 9.101 25.2121 9.31145C25.0333 9.52191 25.059 9.83745 25.2694 10.0162L25.9168 9.2541ZM23.7396 8.74574C23.954 8.91979 24.2689 8.88709 24.4429 8.6727C24.617 8.45832 24.5843 8.14343 24.3699 7.96938L23.7396 8.74574ZM22.7964 6.72081C22.5782 6.55159 22.2641 6.59131 22.0949 6.80953C21.9257 7.02775 21.9654 7.34183 22.1836 7.51105L22.7964 6.72081ZM20.6019 6.31279C20.8239 6.47702 21.137 6.43019 21.3012 6.2082C21.4654 5.9862 21.4186 5.6731 21.1966 5.50887L20.6019 6.31279ZM19.5695 4.33422C19.3438 4.17523 19.0318 4.22938 18.8729 4.45517C18.7139 4.68095 18.768 4.99287 18.9938 5.15185L19.5695 4.33422ZM17.358 4.02976C17.5877 4.1831 17.8982 4.12122 18.0515 3.89156C18.2048 3.6619 18.143 3.35143 17.9133 3.19809L17.358 4.02976ZM16.2249 2.10318C15.9911 1.95616 15.6825 2.02648 15.5354 2.26023C15.3884 2.49398 15.4587 2.80266 15.6925 2.94967L16.2249 2.10318ZM13.9958 1.9185C14.2341 2.05806 14.5404 1.97804 14.68 1.73976C14.8195 1.50148 14.7395 1.19518 14.5012 1.05561L13.9958 1.9185ZM1.3004 290.4C1.57205 290.196 1.84186 289.991 2.10983 289.785L1.50077 288.992C1.23555 289.195 0.968495 289.398 0.699597 289.6L1.3004 290.4ZM3.69565 288.541C4.21696 288.123 4.73099 287.702 5.23783 287.278L4.59618 286.511C4.09472 286.93 3.58609 287.347 3.07022 287.76L3.69565 288.541ZM6.76262 285.974C7.27079 285.53 7.77137 285.083 8.26446 284.633L7.5902 283.894C7.10252 284.34 6.60737 284.782 6.10468 285.221L6.76262 285.974ZM9.72129 283.273C10.2088 282.808 10.6886 282.34 11.1608 281.869L10.4544 281.161C9.98756 281.627 9.5131 282.09 9.03098 282.55L9.72129 283.273ZM12.5674 280.433C13.0285 279.951 13.482 279.467 13.9279 278.979L13.1901 278.304C12.7493 278.786 12.301 279.265 11.8451 279.741L12.5674 280.433ZM15.2725 277.475C15.7141 276.969 16.1478 276.46 16.5737 275.949L15.8052 275.309C15.3843 275.814 14.9556 276.317 14.5191 276.817L15.2725 277.475ZM17.8331 274.4C18.2527 273.871 18.6643 273.34 19.0681 272.806L18.2703 272.203C17.8713 272.731 17.4646 273.256 17.0498 273.778L17.8331 274.4ZM20.2556 271.195C20.6475 270.651 21.0314 270.103 21.4075 269.553L20.5821 268.989C20.2104 269.532 19.8311 270.073 19.4438 270.611L20.2556 271.195ZM22.5224 267.88C22.8861 267.32 23.2419 266.758 23.59 266.193L22.7386 265.668C22.3947 266.226 22.0431 266.782 21.6837 267.336L22.5224 267.88ZM24.6259 264.466C24.9638 263.887 25.2937 263.306 25.616 262.723L24.7406 262.239C24.4222 262.815 24.0961 263.39 23.7622 263.962L24.6259 264.466ZM26.5638 260.958C26.8747 260.362 27.1778 259.765 27.4732 259.165L26.5761 258.723C26.2842 259.316 25.9846 259.907 25.6773 260.495L26.5638 260.958ZM28.3361 257.36C28.6188 256.751 28.8936 256.14 29.1609 255.527L28.2443 255.128C27.9801 255.733 27.7084 256.337 27.429 256.939L28.3361 257.36ZM29.9415 253.68C30.1949 253.061 30.4408 252.44 30.6792 251.818L29.7454 251.46C29.5096 252.075 29.2666 252.689 29.016 253.302L29.9415 253.68ZM31.3767 249.934C31.6017 249.305 31.8194 248.674 32.0298 248.042L31.081 247.726C30.8729 248.351 30.6576 248.975 30.4351 249.597L31.3767 249.934ZM32.6434 246.13C32.8409 245.49 33.0312 244.85 33.2144 244.208L32.2528 243.934C32.0716 244.568 31.8833 245.202 31.6879 245.835L32.6434 246.13ZM33.7442 242.276C33.9145 241.628 34.0777 240.979 34.2341 240.33L33.2619 240.096C33.1071 240.739 32.9456 241.381 32.7771 242.022L33.7442 242.276ZM34.6825 238.38C34.826 237.725 34.9627 237.07 35.0926 236.414L34.1117 236.22C33.9831 236.869 33.8478 237.517 33.7057 238.165L34.6825 238.38ZM35.4627 234.445C35.5798 233.787 35.6903 233.128 35.7944 232.469L34.8066 232.313C34.7035 232.966 34.5941 233.618 34.4781 234.27L35.4627 234.445ZM36.0881 230.485C36.1797 229.824 36.2649 229.162 36.3439 228.501L35.351 228.382C35.2727 229.038 35.1883 229.693 35.0975 230.348L36.0881 230.485ZM36.5636 226.506C36.6307 225.841 36.6916 225.177 36.7465 224.513L35.75 224.431C35.6955 225.089 35.6351 225.747 35.5687 226.406L36.5636 226.506ZM36.8943 222.513C36.9377 221.846 36.9752 221.179 37.0069 220.514L36.008 220.466C35.9766 221.126 35.9394 221.787 35.8964 222.449L36.8943 222.513ZM37.0852 218.513C37.1057 217.844 37.1206 217.176 37.1299 216.509L36.13 216.495C36.1208 217.156 36.106 217.819 36.0857 218.483L37.0852 218.513ZM37.1416 214.511C37.14 213.84 37.133 213.171 37.1207 212.503L36.1209 212.521C36.1331 213.184 36.14 213.848 36.1416 214.513L37.1416 214.511ZM37.0681 210.504C37.0453 209.835 37.0172 209.167 36.9841 208.501L35.9853 208.551C36.0182 209.212 36.046 209.874 36.0687 210.538L37.0681 210.504ZM36.8694 206.502C36.8261 205.835 36.7778 205.17 36.7247 204.507L35.7279 204.587C35.7806 205.245 35.8285 205.905 35.8715 206.567L36.8694 206.502ZM36.5499 202.51C36.4869 201.846 36.4192 201.184 36.347 200.525L35.3529 200.634C35.4246 201.288 35.4918 201.945 35.5544 202.604L36.5499 202.51ZM36.1138 198.529C36.0315 197.866 35.9448 197.207 35.8539 196.55L34.8633 196.687C34.9536 197.339 35.0397 197.994 35.1214 198.652L36.1138 198.529ZM35.5646 194.564C35.4636 193.903 35.3584 193.245 35.2491 192.59L34.2628 192.755C34.3713 193.405 34.4758 194.058 34.5761 194.715L35.5646 194.564ZM34.9058 190.616C34.7864 189.957 34.663 189.301 34.5358 188.649L33.5543 188.84C33.6806 189.488 33.8032 190.139 33.9218 190.795L34.9058 190.616ZM34.1399 186.689C34.0024 186.032 33.8612 185.378 33.7164 184.729L32.7404 184.947C32.8842 185.592 33.0245 186.241 33.1611 186.894L34.1399 186.689ZM33.2691 182.785C33.1137 182.129 32.9548 181.479 32.7926 180.833L31.8228 181.077C31.9839 181.718 32.1417 182.364 32.2961 183.015L33.2691 182.785ZM32.2945 178.905C32.1213 178.252 31.9448 177.605 31.7654 176.963L30.8024 177.233C30.9806 177.87 31.1559 178.513 31.328 179.161L32.2945 178.905ZM31.2165 175.051C31.0254 174.401 30.8315 173.759 30.6349 173.123L29.6795 173.418C29.8747 174.05 30.0674 174.688 30.2572 175.333L31.2165 175.051ZM30.0342 171.225C29.8252 170.581 29.6137 169.943 29.3999 169.314L28.4531 169.636C28.6653 170.261 28.8754 170.893 29.0829 171.534L30.0342 171.225ZM28.7453 167.431C28.5183 166.793 28.2891 166.163 28.0582 165.543L27.1211 165.892C27.3503 166.508 27.5777 167.132 27.8031 167.766L28.7453 167.431ZM27.3461 163.673C27.1009 163.044 26.8541 162.425 26.6061 161.817L25.6802 162.194C25.9261 162.797 26.171 163.411 26.4143 164.036L27.3461 163.673ZM25.8308 159.959C25.5665 159.34 25.3014 158.734 25.0358 158.142L24.1232 158.55C24.3863 159.138 24.6492 159.738 24.9112 160.352L25.8308 159.959ZM24.1919 156.304C24.0512 156.005 23.9105 155.71 23.7699 155.419L22.8694 155.854C23.0086 156.142 23.1478 156.434 23.2871 156.73L24.1919 156.304ZM23.7622 155.403C23.6102 155.114 23.4623 154.824 23.3186 154.531L22.421 154.972C22.5688 155.273 22.7208 155.572 22.8772 155.869L23.7622 155.403ZM22.5052 152.754C22.2499 152.154 22.0107 151.547 21.7872 150.934L20.8477 151.276C21.0771 151.906 21.3227 152.529 21.585 153.145L22.5052 152.754ZM21.1639 149.079C20.9719 148.457 20.795 147.828 20.6325 147.194L19.6638 147.443C19.8302 148.092 20.0115 148.736 20.2083 149.374L21.1639 149.079ZM20.1897 145.283C20.0573 144.646 19.9386 144.004 19.8333 143.357L18.8463 143.518C18.9539 144.179 19.0752 144.835 19.2107 145.487L20.1897 145.283ZM19.5583 141.415C19.48 140.768 19.4143 140.116 19.3608 139.46L18.3641 139.542C18.4187 140.21 18.4857 140.874 18.5656 141.535L19.5583 141.415ZM19.237 137.499C19.2077 136.848 19.1898 136.194 19.1828 135.537L18.1829 135.547C18.19 136.215 18.2082 136.881 18.238 137.544L19.237 137.499ZM19.1942 133.569C19.2085 132.915 19.233 132.259 19.2675 131.601L18.2689 131.548C18.2339 132.216 18.2089 132.883 18.1944 133.547L19.1942 133.569ZM19.3988 129.639C19.4517 128.987 19.5139 128.333 19.585 127.678L18.5908 127.571C18.5188 128.234 18.4558 128.897 18.4021 129.558L19.3988 129.639ZM19.8232 125.72C19.9104 125.072 20.006 124.422 20.1094 123.773L19.1218 123.615C19.0172 124.273 18.9205 124.93 18.8321 125.587L19.8232 125.72ZM20.4419 121.829C20.5599 121.183 20.6854 120.537 20.818 119.892L19.8385 119.691C19.7045 120.343 19.5776 120.996 19.4582 121.649L20.4419 121.829ZM21.2347 117.965C21.3801 117.324 21.5322 116.684 21.6905 116.045L20.7199 115.804C20.56 116.45 20.4064 117.096 20.2595 117.744L21.2347 117.965ZM22.1833 114.133C22.3535 113.498 22.5296 112.864 22.7111 112.231L21.75 111.955C21.5668 112.593 21.3891 113.233 21.2174 113.875L22.1833 114.133ZM23.2725 110.338C23.4651 109.708 23.6628 109.081 23.8654 108.455L22.9141 108.147C22.7099 108.777 22.5104 109.41 22.3162 110.046L23.2725 110.338ZM24.4894 106.58C24.7028 105.956 24.9207 105.334 25.1427 104.715L24.2014 104.378C23.9777 105.001 23.7582 105.627 23.5431 106.257L24.4894 106.58ZM25.823 102.863C26.0556 102.244 26.2921 101.628 26.532 101.017L25.601 100.651C25.3594 101.267 25.1212 101.887 24.8869 102.511L25.823 102.863ZM27.2669 99.1809C27.5168 98.5691 27.7699 97.9617 28.0257 97.3591L27.1052 96.9683C26.8477 97.575 26.5928 98.1866 26.3412 98.8027L27.2669 99.1809ZM28.8107 95.5441C29.0783 94.9365 29.3483 94.3344 29.6204 93.7381L28.7106 93.323C28.4368 93.9232 28.1649 94.5294 27.8955 95.141L28.8107 95.5441ZM30.4519 91.9467C30.7349 91.3473 31.0195 90.7545 31.3053 90.1688L30.4066 89.7303C30.1189 90.3198 29.8324 90.9165 29.5476 91.5198L30.4519 91.9467ZM32.1861 88.3927C32.4862 87.7974 32.787 87.2102 33.088 86.6317L32.2009 86.1701C31.8979 86.7524 31.5951 87.3435 31.2931 87.9427L32.1861 88.3927ZM34.0105 84.8864C34.3255 84.2999 34.64 83.7235 34.9536 83.1576L34.079 82.6729C33.7632 83.2426 33.4465 83.8229 33.1295 84.4133L34.0105 84.8864ZM35.9259 81.4311C36.2599 80.8474 36.5921 80.2765 36.9217 79.7193L36.0609 79.2103C35.7289 79.7716 35.3943 80.3466 35.0579 80.9344L35.9259 81.4311ZM37.9412 78.0245C38.294 77.4481 38.6427 76.8888 38.9863 76.3475L38.142 75.8116C37.7954 76.3576 37.4439 76.9215 37.0883 77.5025L37.9412 78.0245ZM40.0594 74.6898C40.2408 74.4152 40.4204 74.1463 40.5979 73.8833L39.769 73.3239C39.5896 73.5897 39.4082 73.8613 39.2251 74.1386L40.0594 74.6898ZM40.5979 73.8833C40.7908 73.5974 40.9798 73.3119 41.165 73.0266L40.3262 72.4822C40.1443 72.7624 39.9586 73.0429 39.769 73.3239L40.5979 73.8833ZM42.2295 71.3192C42.5796 70.7338 42.9135 70.1499 43.2316 69.5675L42.354 69.0881C42.0422 69.659 41.7148 70.2316 41.3713 70.806L42.2295 71.3192ZM44.158 67.7867C44.4614 67.1728 44.7475 66.5607 45.0167 65.9506L44.1018 65.5469C43.8385 66.1436 43.5586 66.7426 43.2615 67.3436L44.158 67.7867ZM45.7828 64.1035C46.0316 63.463 46.2621 62.8247 46.4746 62.1889L45.5262 61.8718C45.3188 62.4924 45.0938 63.1156 44.8507 63.7414L45.7828 64.1035ZM47.0665 60.2632C47.2502 59.6078 47.4153 58.9553 47.5623 58.3055L46.5869 58.0849C46.4437 58.718 46.2828 59.3541 46.1036 59.9932L47.0665 60.2632ZM47.9575 56.3179C48.0721 55.6496 48.1679 54.9846 48.2455 54.323L47.2523 54.2066C47.1768 54.8506 47.0835 55.498 46.9719 56.1488L47.9575 56.3179ZM48.4269 52.3062C48.4694 51.6278 48.4931 50.9534 48.4987 50.2831L47.4987 50.2747C47.4933 50.9271 47.4702 51.5835 47.4288 52.2436L48.4269 52.3062ZM48.4611 48.2646C48.4302 47.5875 48.3813 46.9148 48.315 46.2467L47.3199 46.3455C47.3844 46.996 47.4321 47.651 47.4621 48.3101L48.4611 48.2646ZM48.0624 44.2395C47.9606 43.5717 47.8418 42.9089 47.707 42.2512L46.7274 42.4521C46.8588 43.0934 46.9746 43.7395 47.0738 44.3902L48.0624 44.2395ZM47.2523 40.2831C47.0843 39.6295 46.9007 38.9814 46.7025 38.3388L45.747 38.6335C45.9406 39.2613 46.1198 39.8942 46.2838 40.5321L47.2523 40.2831ZM46.0635 36.4242C45.8359 35.7907 45.5945 35.1629 45.3401 34.5412L44.4146 34.9199C44.6636 35.5285 44.8998 36.1427 45.1223 36.7623L46.0635 36.4242ZM44.5371 32.6906C44.2567 32.0793 43.9641 31.4741 43.6603 30.8753L42.7685 31.3278C43.0666 31.9151 43.3534 32.5084 43.6281 33.1075L44.5371 32.6906ZM42.7148 29.0963C42.3883 28.5088 42.0515 27.9279 41.7051 27.3538L40.8488 27.8704C41.1893 28.4346 41.5201 29.0052 41.8406 29.582L42.7148 29.0963ZM40.6353 25.6475C40.2689 25.0842 39.8936 24.5279 39.5106 23.9788L38.6904 24.5508C39.0675 25.0914 39.4367 25.6388 39.7971 26.1929L40.6353 25.6475ZM38.3354 22.3483C37.9338 21.8085 37.525 21.2761 37.1101 20.7514L36.3257 21.3716C36.7347 21.8889 37.1375 22.4135 37.5332 22.9452L38.3354 22.3483ZM35.8406 19.1913C35.409 18.6758 34.9721 18.1682 34.5308 17.6687L33.7814 18.3309C34.217 18.8238 34.6481 19.3246 35.0738 19.8332L35.8406 19.1913ZM33.1821 16.1815C32.7224 15.6874 32.259 15.2021 31.7932 14.7256L31.0782 15.4247C31.5384 15.8954 31.996 16.3748 32.4499 16.8627L33.1821 16.1815ZM30.3711 13.3058C29.8882 12.8351 29.4037 12.3739 28.9187 11.9226L28.2375 12.6547C28.7169 13.1009 29.1958 13.5567 29.673 14.0219L30.3711 13.3058ZM27.4363 10.5745C26.9288 10.1233 26.4218 9.6831 25.9168 9.2541L25.2694 10.0162C25.7688 10.4405 26.2701 10.8758 26.7719 11.3219L27.4363 10.5745ZM24.3699 7.96938C23.8413 7.54026 23.3163 7.12397 22.7964 6.72081L22.1836 7.51105C22.6977 7.90971 23.2169 8.32137 23.7396 8.74574L24.3699 7.96938ZM21.1966 5.50887C20.6458 5.10141 20.1028 4.70973 19.5695 4.33422L18.9938 5.15185C19.5207 5.52288 20.0574 5.90998 20.6019 6.31279L21.1966 5.50887ZM17.9133 3.19809C17.3346 2.8117 16.7708 2.44654 16.2249 2.10318L15.6925 2.94967C16.2306 3.28811 16.7867 3.64832 17.358 4.02976L17.9133 3.19809ZM14.5012 1.05561C14.2086 0.884199 13.9229 0.720308 13.6447 0.564058L13.155 1.43594C13.4277 1.58915 13.7082 1.75003 13.9958 1.9185L14.5012 1.05561Z" fill="#EE693F"/>
</svg>
