<svg width="196" height="312" fill="none" xmlns="http://www.w3.org/2000/svg"><path d="m38 90-9-11 19-1-10 12zM35 94.5 30.692 93 28 96l1.615 3h3.231L35 94.5zM54 149.973 33 152l28-35.467L83 114l-29 35.973z" fill="#FAB361"/><path d="m142.045 302.391 19.211-127.971a4.024 4.024 0 0 1 3.985-3.42h15.73c2.444 0 4.326 2.152 3.99 4.564l-17.515 126.271a4.02 4.02 0 0 1-3.597 3.445l-17.428 1.7c-2.609.254-4.763-2.005-4.376-4.589zM67.364 13.884l-.576-2.009a4 4 0 0 1 2.5-4.87l4.977-1.773a3.988 3.988 0 0 1 4.957 2.085l.891 1.927c.088.189.244.338.437.417l5.504 2.245a16.213 16.213 0 0 1 6.112 4.376 16.256 16.256 0 0 1 3.763 7.984l.502 3.007a.54.54 0 0 0 .091.222l2.188 3.115c.473.674.726 1.477.726 2.301v3.024c0 1.064.423 2.084 1.176 2.835l1.06 1.056a4.004 4.004 0 0 1 1.175 2.834v2.204c0 1.063.423 2.083 1.176 2.834l.671.669c.467.466.812 1.04 1.003 1.672l4.13 13.619a4.001 4.001 0 0 1-2.531 4.947l-23.957 8.18a3.988 3.988 0 0 1-4.963-2.226l-5.126-12.14a4.005 4.005 0 0 1-.302-1.225l-.277-3.314a4.004 4.004 0 0 0-.79-2.073l-1.247-1.658a4.005 4.005 0 0 1-.763-1.839l-.566-3.948a4.002 4.002 0 0 0-.728-1.79l-2.055-2.819a4.004 4.004 0 0 1-.769-2.36v-4.947a.502.502 0 0 0-.058-.233l-2.155-4.105a13.425 13.425 0 0 1 1.253-14.438l2.455-3.183a.681.681 0 0 0 .116-.603zM103.448 263.555l6.997-1.882-7.133-11.778a3.019 3.019 0 0 1 1.147-4.219l9.923-5.322a2.978 2.978 0 0 1 3.957 1.088l7.224 11.928a3.02 3.02 0 0 1-.002 3.134l-9.137 15.039-3.139 5.165a3.99 3.99 0 0 1-2.085 1.694l-2.554.898a2.986 2.986 0 0 1-1.182.162l-6.774-.45c-1.841-.122-3.352 1.449-3.17 3.297l.254 2.587c.101 1.027-1.219 1.518-1.807.673l-8.427-12.113a3.021 3.021 0 0 1 .235-3.744l10.38-11.52c.657-.729 1.855-.169 1.725.806l-.166 1.253c-.283 2.126 1.674 3.858 3.734 3.304zM86.001 224.088l-5.074-5.26-6.79 12.07a3 3 0 0 1-4.246 1.053l-9.512-6.162a3.033 3.033 0 0 1-.989-4.03l6.876-12.224a3.005 3.005 0 0 1 2.738-1.533l17.613.71 6.05.243a3.995 3.995 0 0 1 2.5 1.013l2.037 1.817c.302.27.547.598.72.965l2.928 6.205a2.998 2.998 0 0 0 4.433 1.187l2.136-1.492c.847-.592 1.923.334 1.473 1.267l-6.449 13.378a3.003 3.003 0 0 1-3.385 1.627l-15.15-3.53c-.958-.224-1.056-1.557-.14-1.92l1.176-.467c1.995-.791 2.549-3.368 1.055-4.917zM64.8 254.711l-1.708 7.048 13.757-.676a2.997 2.997 0 0 1 3.15 3.012l-.093 11.254a2.994 2.994 0 0 1-2.855 2.962l-13.932.685a3.003 3.003 0 0 1-2.748-1.49l-8.808-15.18-3.026-5.214a3.975 3.975 0 0 1-.485-2.638l.438-2.672c.065-.397.21-.777.426-1.117l3.646-5.742a2.986 2.986 0 0 0-1.37-4.354l-2.393-1.006c-.949-.399-.747-1.793.277-1.909l14.673-1.655a3.004 3.004 0 0 1 3.172 1.986l5.124 14.602c.325.923-.742 1.71-1.535 1.133l-1.02-.742c-1.73-1.259-4.188-.362-4.69 1.713z" fill="#02C69E"/><path d="m100 108.713 6.616-18.884a3.011 3.011 0 0 1 2.133-1.92L124.759 84l18.157 8.596 10.939 33.57a2.95 2.95 0 0 1-.916 3.175l-18.276 15.367-18.215 4.213c-1.524.352-3.07-.499-3.564-1.963L100 108.713z" fill="#F26226"/><path d="M157.47 157H9.53C5.924 157 3 159.91 3 163.5s2.924 6.5 6.53 6.5h147.94c3.606 0 6.53-2.91 6.53-6.5s-2.924-6.5-6.53-6.5zM9 171l17.87 135.391A3.006 3.006 0 0 0 29.851 309h108.353m0 0 26.158-3.131a3.004 3.004 0 0 0 2.621-2.567l17.987-128.886a3.005 3.005 0 0 0-2.979-3.416h-20.701a3.005 3.005 0 0 0-2.975 2.562L138.205 309z" stroke="#282828" stroke-width="4"/><path d="M153 157.538c.797 0 20.116-.43 32.677-.538a8.107 8.107 0 0 1 7.184 4.208l.393.719a6.079 6.079 0 0 1 .426 4.864c-.85 2.514-3.236 4.209-5.923 4.209h-9.155M60.44 261.942l2.212-7.507c.602-2.044 3.1-2.819 4.76-1.477l1.317 1.065c.76.615 1.863-.116 1.586-1.053l-4.678-15.829a2.993 2.993 0 0 0-3.062-2.135l-15.727.997c-1.025.065-1.295 1.443-.37 1.887l2.79 1.342a2.976 2.976 0 0 1 1.15 4.399l-4.234 6.007c-.23.328-.393.699-.477 1.09l-.619 2.883a3.965 3.965 0 0 0 .352 2.646l2.925 5.685m0 0 8.459 16.437A2.996 2.996 0 0 0 59.488 280h14.82a2.989 2.989 0 0 0 2.988-2.81l.699-12.094a2.988 2.988 0 0 0-2.99-3.154h-26.64zM82.688 217.834l5.648 5.442c1.546 1.488 1.097 4.089-.857 4.96l-1.533.683c-.896.399-.746 1.729.216 1.914l16.168 3.113a2.983 2.983 0 0 0 3.302-1.761l6.279-14.539c.411-.953-.696-1.835-1.515-1.21l-2.433 1.859a2.975 2.975 0 0 1-4.456-1.011l-3.391-6.545a3.02 3.02 0 0 0-.754-.938l-2.267-1.877a3.962 3.962 0 0 0-2.527-.913l-6.373-.003m0 0L69.75 207c-1.122 0-2.15.634-2.663 1.642l-6.755 13.277a3.044 3.044 0 0 0 1.141 3.991l10.394 6.197a2.976 2.976 0 0 0 4.181-1.222l12.147-23.877zM110.649 258.58l-7.547 2.012c-2.067.551-4.03-1.17-3.746-3.283l.223-1.658c.13-.969-1.072-1.524-1.73-.8l-11.072 12.17a2.981 2.981 0 0 0-.235 3.721l9.011 12.83c.59.84 1.914.351 1.813-.669l-.3-3.029a2.993 2.993 0 0 1 3.179-3.276l7.303.48c.401.027.805-.027 1.186-.16l2.77-.965a3.994 3.994 0 0 0 2.091-1.683l3.329-5.427m0 0 9.635-15.71a2.976 2.976 0 0 0 .003-3.113l-7.696-12.587a3.002 3.002 0 0 0-3.969-1.081l-10.663 5.665a2.982 2.982 0 0 0-1.149 4.192l13.839 22.634zM96 109.226l6.884-20.114a3.011 3.011 0 0 1 2.121-1.948L121.665 83M96 109.226l13.393 40.703a3.014 3.014 0 0 0 3.558 1.989l18.98-4.493M96 109.226l22.243-3.991M121.665 83l18.82 9.122M121.665 83l-3.422 22.235m13.688 42.19 19.021-16.375a3.012 3.012 0 0 0 .906-3.197l-11.373-35.73m-8.554 55.302-13.688-42.19m0 0 22.242-13.113M28.648 78.836l32.271 37.432M28.648 78.836l-25.826 33.79a4.003 4.003 0 0 0 .076 4.956L30.912 152m-2.264-73.164L50.162 76m10.757 40.268L30.912 152m30.007-35.732L83 112.866M30.912 152l20.6-3.174a3.991 3.991 0 0 0 2.446-1.378L83 112.866M50.162 76 83 112.866M50.162 76 39.405 90.18M34 97l-2 3" stroke="#282828" stroke-width="4" stroke-linecap="round"/><path d="M63.689 109.472 49.183 92.547c-1.206-1.407-.993-3.567.474-4.825 1.468-1.257 3.635-1.137 4.841.27l14.506 16.925c1.206 1.407.993 3.567-.475 4.825-1.467 1.258-3.635 1.137-4.84-.27zM42.689 115.472 28.183 98.547c-1.206-1.407-.993-3.567.474-4.825 1.468-1.257 3.635-1.137 4.841.27l14.506 16.925c1.206 1.407.993 3.567-.475 4.825-1.467 1.258-3.635 1.137-4.84-.27z" stroke="#282828" stroke-width="2"/><path d="m63.913 11.937-.75-2.634a4.01 4.01 0 0 1 2.515-4.87l6.123-2.195a4.043 4.043 0 0 1 5.037 2.106l1.126 2.449c.095.207.266.37.478.457l6.015 2.47a18.045 18.045 0 0 1 6.806 4.895 17.911 17.911 0 0 1 4.118 8.774l.563 3.39a.603.603 0 0 0 .1.247l2.49 3.57c.47.671.721 1.47.721 2.288v3.69c0 1.06.42 2.075 1.17 2.827l1.42 1.424a4.008 4.008 0 0 1 1.169 2.826v2.823c0 1.059.42 2.074 1.169 2.826l.94.942a4.022 4.022 0 0 1 1 1.674l4.707 15.62a4.011 4.011 0 0 1-2.549 4.946L81.224 81.78a4.042 4.042 0 0 1-5.041-2.247l-5.813-13.85a4 4 0 0 1-.298-1.216l-.322-3.882a4 4 0 0 0-.783-2.065l-1.518-2.03a4.003 4.003 0 0 1-.757-1.832l-.656-4.607a4.002 4.002 0 0 0-.722-1.784l-2.414-3.33a3.999 3.999 0 0 1-.762-2.348V36.95a.559.559 0 0 0-.064-.259l-2.375-4.55a14.946 14.946 0 0 1 1.394-16.026l2.693-3.514a.754.754 0 0 0 .127-.665z" stroke="#282828" stroke-width="4" stroke-linecap="round"/></svg>