<svg width="311" height="299" fill="none" xmlns="http://www.w3.org/2000/svg"><g clip-path="url(#a)"><path d="m221.572 122.078-8.441 1.081a28.701 28.701 0 0 0-15.986 7.528l-4.897 4.591a35.953 35.953 0 0 0-7.677 10.37l-2.566 5.225a19.548 19.548 0 0 0 3.308 22.024l2.167 2.305a21.6 21.6 0 0 0 28.57 2.568l7.22-5.339a41.207 41.207 0 0 1 8.724-4.933l15.007-6.214a31.725 31.725 0 0 0 13.394-10.479l4.654-6.31a10 10 0 0 0 1.934-6.521 10.01 10.01 0 0 0-7.633-9.131l-4.947-1.202-7.522-1.4a19.281 19.281 0 0 0-5.974-.168l-4.252.546a9.661 9.661 0 0 1-7.543-2.271 9.664 9.664 0 0 0-7.54-2.27zM147.466 123.737l.379.596a20.922 20.922 0 0 0 15.361 9.54 21.024 21.024 0 0 0 11.797-2.134l11.186-5.657a63.176 63.176 0 0 1 26.23-6.752l10.487-.38a19.074 19.074 0 0 0 4.459-.693l.308-.086a18.225 18.225 0 0 0 11.081-8.778 18.18 18.18 0 0 1 7.956-7.588l7.52-3.683a3.99 3.99 0 0 1 .557-.222c3.11-.977 3.762-5.061 1.109-6.946l-4.012-2.849a4.292 4.292 0 0 0-1.469-.67l-3.047-.743c-1.985-.483-2.639-2.959-1.149-4.348l11.707-10.916 12.319-9.741c5.386-5.321 2.439-14.464-5.057-15.688l-11.559-1.888c-11.986-.866-23.88 3.373-32.641 11.543l-6.225 5.804c-1.861 1.737-4.918.53-5.073-2.002a3.009 3.009 0 0 0-3.167-2.809l-4.297.222a7.37 7.37 0 0 0-5.425 2.813L186.537 72.8a3.82 3.82 0 0 1-.398.433l-7.121 6.641c-1.319 1.23-3.393-.196-2.699-1.855.048-.113.083-.231.104-.352l.082-.467c.713-4.04-2.811-7.567-6.885-6.89l-1.848.308a7.32 7.32 0 0 0-4.534 2.664l-10.85 13.657a35.53 35.53 0 0 0-7.216 16.156l-.86 5.063a22.107 22.107 0 0 0 3.154 15.579z" fill="#02C69E"/><path d="M36.5 285c6.351 0 11.5-5.373 11.5-12s-5.149-12-11.5-12S25 266.373 25 273s5.149 12 11.5 12zM40.47 204.405l-11.331-29.62c-.562-1.468.664-2.997 2.212-2.761l123.042 18.722c2.055.313 3.21 2.544 2.283 4.41l-9.014 18.163-2.485 5.248c-4.844 10.234-15.536 16.35-26.78 15.321l-25.181-1.372-11.623-.638a58.484 58.484 0 0 1-13.889-2.468l-6.486-1.984a27.58 27.58 0 0 1-10.288-5.789 27.699 27.699 0 0 1-6.755-9.146l-3.704-8.086z" fill="#F26226"/><path d="M164 195c3.504-1.181 83.46-16.492 123-24" stroke="#282828" stroke-width="4" stroke-linecap="square"/><path d="m129 247-2.345 6.937a13.423 13.423 0 0 1-4.439 6.287 12.959 12.959 0 0 1-15.704.249l-.984-.722a15.023 15.023 0 0 1-4.322-4.971L97 247M181.707 163.711l-23.083 5.931a23.866 23.866 0 0 1-9.343.509 23.903 23.903 0 0 0-16.716 3.812l-16.242 10.894-29.898 20.427a4.102 4.102 0 0 1-5.899-1.394 4.144 4.144 0 0 1 1.009-5.24l27.585-22.289a46.13 46.13 0 0 0 13.968-19.091l7.665-19.606a59.938 59.938 0 0 1 14.703-21.793l20.321-21.102a2.355 2.355 0 0 1 1.589-.72c2.107-.095 3.268 2.424 1.833 3.976l-19.914 21.539a14.43 14.43 0 0 0-2.352 3.43l-11.42 23.26-1.772 4.957c-1.436 4.015 3.146 7.488 6.595 4.998l81.24-76.61a2.199 2.199 0 0 1 2.413-.405c1.421.641 1.749 2.52.631 3.61l-76.947 74.926a3.89 3.89 0 0 0-.744 4.555 3.858 3.858 0 0 0 3.535 2.099l15.055-.411 16.188-.262zm0 0a21.279 21.279 0 0 0 23.436 5.252L233 157.855m-51.293 5.856 46.328-27.682" stroke="#282828" stroke-width="4" stroke-linecap="round"/><path d="m53.333 215.512-12.193-31.72c-.565-1.47.663-3.003 2.215-2.768l132.031 19.996c2.062.312 3.22 2.55 2.287 4.42l-9.751 19.556-2.629 5.527c-5.197 10.927-16.631 17.454-28.656 16.358l-26.919-1.46-12.435-.679a62.64 62.64 0 0 1-14.83-2.624L75.494 240a29.47 29.47 0 0 1-10.973-6.146 29.577 29.577 0 0 1-7.236-9.756l-3.952-8.586z" stroke="#282828" stroke-width="4"/><path d="m178 202.167-36.355-19.336-64.71-6.93-53.59-7.878c-1.554-.228-2.774 1.312-2.2 2.78l5.983 15.313 8.362 18.969 2.654 5.187a47.923 47.923 0 0 0 11.306 14.412 47.796 47.796 0 0 0 7.491 5.314L65.664 235" stroke="#282828" stroke-width="4"/><path d="M2 264.698c.873 1.167 6.669 4.619 9.457 6.198a98.045 98.045 0 0 0 41.506-3.184l.325-.097 41.467-18.594 6.34-1.942a17.298 17.298 0 0 1 13.028 1.184 17.352 17.352 0 0 1 6.798 6.325l6.207 10.11 6.053 7.523a10.119 10.119 0 0 0 7.884 3.779c2.931 0 5.718-1.273 7.642-3.489l2.289-2.64a17.819 17.819 0 0 0 3.073-5.03l7.978-19.831 9.094-19.687 5.08-9.215a15.424 15.424 0 0 1 13.218-7.975L309 206" stroke="#282828" stroke-width="4" stroke-linecap="square"/><path d="m64 236-21 11" stroke="#282828" stroke-width="4" stroke-linecap="round"/><path d="M58 272c0 13.916-10.627 25-23.5 25S11 285.916 11 272c0-13.917 10.627-25 23.5-25S58 258.083 58 272z" stroke="#282828" stroke-width="4"/><path d="M50 271.5c0 8.093-6.353 14.5-14 14.5s-14-6.407-14-14.5S28.353 257 36 257s14 6.407 14 14.5z" stroke="#282828" stroke-width="4"/><path d="M42 246.28c-.137-.069-.532-.259-1.088-.526a28.067 28.067 0 0 0-15.4-2.564c-5.022.584-9.839 2.459-13.728 5.693-1.933 1.607-3.545 3.057-3.828 3.625-.197.393-.729 1.347-1.413 2.553-2.848 5.014-4.057 10.804-3.342 16.529.24 1.925.694 3.818 1.35 5.643l.54 1.503a21.92 21.92 0 0 0 12.8 13.062L26.26 295M142.466 121.737l.379.596a20.926 20.926 0 0 0 15.361 9.54 21.04 21.04 0 0 0 11.797-2.133l11.185-5.657a63.157 63.157 0 0 1 26.231-6.754l10.487-.378a19.156 19.156 0 0 0 4.458-.694l.308-.086a18.216 18.216 0 0 0 11.082-8.779 18.193 18.193 0 0 1 7.956-7.588l7.519-3.682c.18-.088.367-.162.558-.222 3.11-.977 3.762-5.062 1.109-6.946l-4.013-2.849a4.277 4.277 0 0 0-1.468-.67l-3.049-.743c-1.983-.483-2.637-2.959-1.148-4.348l11.708-10.916 12.319-9.741c5.386-5.321 2.439-14.464-5.057-15.688l-11.559-1.888c-11.986-.866-23.88 3.373-32.641 11.543l-6.225 5.804c-1.862 1.737-4.919.53-5.073-2.002a3.01 3.01 0 0 0-3.167-2.809l-4.297.222a7.372 7.372 0 0 0-5.426 2.813L181.536 70.8a3.65 3.65 0 0 1-.397.433l-7.122 6.641c-1.319 1.23-3.393-.197-2.698-1.855.048-.113.083-.231.103-.352l.083-.467c.713-4.04-2.811-7.567-6.885-6.89l-1.849.308a7.32 7.32 0 0 0-4.533 2.664l-10.85 13.657a35.53 35.53 0 0 0-7.217 16.156l-.859 5.063a22.106 22.106 0 0 0 3.154 15.579z" stroke="#282828" stroke-width="4" stroke-linecap="round"/><path d="m224.617 118 .868 2.721c.903 2.83 4.118 4.179 6.764 2.84a4.826 4.826 0 0 1 1.559-.479l5.613-.723a37.71 37.71 0 0 1 11.734.332l5.379 1.004 5.288 1.289a10.726 10.726 0 0 1 8.159 9.793 10.746 10.746 0 0 1-2.067 6.996l-4.974 6.767a33.928 33.928 0 0 1-14.318 11.24l-16.042 6.667a43.86 43.86 0 0 0-9.325 5.29l-7.718 5.725a23.023 23.023 0 0 1-18.831 3.964 23.048 23.048 0 0 1-11.71-6.718l-2.317-2.472a21.036 21.036 0 0 1-3.537-23.622l2.745-5.605a38.525 38.525 0 0 1 8.206-11.123l12.473-11.734" stroke="#282828" stroke-width="4" stroke-linecap="round"/><path d="m59.471 215.406-11.332-29.62c-.562-1.468.664-2.997 2.212-2.762l123.043 18.722c2.054.313 3.209 2.544 2.282 4.411l-9.014 18.162-2.485 5.248c-4.844 10.234-15.536 16.35-26.78 15.321l-25.181-1.373-11.623-.638a58.434 58.434 0 0 1-13.889-2.467l-6.486-1.984a27.593 27.593 0 0 1-10.288-5.789 27.708 27.708 0 0 1-6.755-9.146l-3.704-8.085z" fill="#F26226"/><path d="M111.37 177 98 187.544l8.412 1.456L122 178.491 111.37 177z" fill="#fff"/></g><defs><clipPath id="a"><path fill="#fff" d="M0 0h311v299H0z"/></clipPath></defs></svg>