<svg width="181" height="271" fill="none" xmlns="http://www.w3.org/2000/svg"><path d="m97 72.654.023 6.701c0 .07.05.13.12.142l7.793 1.305A14.4 14.4 0 0 0 117.277 77l1.341-1.282a22.34 22.34 0 0 0 3.839-4.858l1.492-2.55a43.526 43.526 0 0 0 4.028-9.156l4.019-13.027A.099.099 0 0 0 131.9 46a32.493 32.493 0 0 0-9.702 1.78l-3.866 1.34a35.338 35.338 0 0 0-9.734 5.199l-4.027 3.044a19.066 19.066 0 0 0-6.566 9.11A19.114 19.114 0 0 0 97 72.655zM86.928 46.393l4.84 4.568c.05.048.128.052.184.01l6.298-4.717a14.37 14.37 0 0 0 4.234-5.066 14.327 14.327 0 0 0 1.516-6.42l-.001-1.842a22.107 22.107 0 0 0-.858-6.087l-.809-2.82a43.103 43.103 0 0 0-3.822-9.163L91.895 3.05a.098.098 0 0 0-.157-.018 32.373 32.373 0 0 0-5.39 8.203l-1.693 3.7a35.11 35.11 0 0 0-2.951 10.563l-.578 4.983a18.873 18.873 0 0 0 2.044 10.96c.97 1.845 2.24 3.519 3.758 4.952zM74.508 82.948l6.558-.49a.142.142 0 0 0 .13-.13l.74-7.84a14.564 14.564 0 0 0-.89-6.55 14.399 14.399 0 0 0-3.686-5.457l-1.348-1.243a21.915 21.915 0 0 0-5.021-3.478l-2.6-1.306a42.287 42.287 0 0 0-9.242-3.365l-13.03-3.086a.097.097 0 0 0-.118.104 32.81 32.81 0 0 0 2.413 9.523l1.579 3.75a35.34 35.34 0 0 0 5.762 9.316l3.26 3.793a18.68 18.68 0 0 0 9.372 5.892 18.48 18.48 0 0 0 6.12.567z" fill="#02C69E"/><path d="M131.218 213.662c1.228 6.598 3.204 16.051 3.321 17.338 5.538-.313 15.578-2.357 15.98-2.392.352-.031 4.501-1.553 7.229-3.093.708-.399 1.34-.912 1.937-1.457l2.544-2.321a8.462 8.462 0 0 0 2.766-5.946 8.468 8.468 0 0 0-3.552-7.183l-.343-.247a8.868 8.868 0 0 0-8.658-.93l-2.709 1.165-.367-4.099c-.241-2.68-1.995-4.997-4.535-5.992a7.347 7.347 0 0 0-6.209.399l-1.551.853a10.819 10.819 0 0 0-5.285 6.768l-.35 1.36a13.35 13.35 0 0 0-.218 5.777z" fill="#F26225"/><path d="M79.739 153.657v.288c0 .79.317 1.546.872 2.114 1.07 1.096 2.386 2.494 2.599 2.917.252.503 3.587-.099 5.668-.558a2.93 2.93 0 0 0 1.062-.476l.725-.515a3.033 3.033 0 0 1 2.654-.422l3.787 1.177c.221.068.434.163.634.281l6.626 3.894c.464.273.845.664 1.105 1.133l3.421 6.188c1.388 2.993 4.304 9.046 4.86 9.322.375.187 1.091 1.123 1.694 1.994a3.301 3.301 0 0 0 2.052 1.364c2.129.431 5.07 1.149 5.972 1.821 1.388 1.036-.348 3.107-.695 3.798-.347.69-4.858 4.832-5.9 5.523-1.041.691-4.512 4.833-5.553 6.559-1.042 1.727 1.735 4.834 1.735 5.87 0 .716-.345 2.859-.589 4.244a2.924 2.924 0 0 1-.432 1.091c-1.583 2.426-4.273 6.578-4.532 7.093-.262.523-2.196 4.166-3.287 6.216a2.942 2.942 0 0 0-.271.724l-.8 3.447a2.987 2.987 0 0 1-.58 1.192l-3.233 4.019c-.331.412-.764.729-1.26.918-2.223.849-5.692 2.127-6.187 2.127-.694 0-2.776-2.762-3.123-3.452-.278-.552-2.893-5.984-4.165-8.632-1.273-3.222-3.68-9.873-3.124-10.702.469-.698 1.464-2.594 2.111-3.86.21-.412.319-.869.319-1.33v-5.78c0-.92-.428-1.789-1.16-2.354l-1.34-1.038a2.985 2.985 0 0 1-.928-1.208l-1.431-3.418c-.81-1.496-2.5-4.625-2.777-5.178-.262-.521-2.813-.264-4.266-.04a3.17 3.17 0 0 1-.496.04H61.351a3.02 3.02 0 0 1-2.297-1.056l-4.747-5.555a2.973 2.973 0 0 1-.419-.642l-3.593-7.446a2.963 2.963 0 0 1-.258-1.753l.787-4.964c.072-.447.244-.873.506-1.244l4.461-6.341c1.736-2.185 5.345-6.628 5.9-6.904.694-.346 8.677-4.143 9.371-4.143.405 0 3.422.367 6.056.701a2.985 2.985 0 0 1 2.62 2.956zM10.168 171.759l-1.58-2.208a3.043 3.043 0 0 1-.563-1.595l-1.02-17.614a3.05 3.05 0 0 1 .308-1.524l6.975-14.169a3.11 3.11 0 0 1 .287-.47l10.784-14.484c.39-.525.94-.905 1.563-1.083l8.748-2.499a2.947 2.947 0 0 1 3.37 1.388l4.559 7.975a3.052 3.052 0 0 1-.202 3.334l-7.003 9.375-9.313 16.37a3 3 0 0 1-1.014 1.059l-6.467 4.041c-1.417.886-1.84 2.781-.938 4.2l2.857 4.498c1.274 2.004-.144 4.647-2.493 4.647h-6.458c-.95 0-1.841-.462-2.4-1.241zM65.715 114.656l22.425-7.611.004-.003c6.951-8.804 18.418-12.82 29.407-10.3l1.355.311a31.368 31.368 0 0 1 7.791 2.919l7.215 3.86a84.31 84.31 0 0 1 17.355 12.335l.922.851a73.563 73.563 0 0 1 11.668 13.76 73.072 73.072 0 0 1 10.012 23.269l.13.552c.001.006.001.011-.002.016-1.26 2.215-5.74 6.738-6.582 7.045-.473.173-1.309 1.89-2.11 3.818-.349.838-1.696.613-1.713-.292a.774.774 0 0 0-.076-.324c-2.119-4.513-6.435-13.668-7.309-15.381-1.103-2.165-5.666-.255-9.198.177-1.362.167-1.667 1.055-1.481 2.118.329 1.883-.096 4.058-1.871 4.805l-14.873 6.268c-1.47.62-3.171-.008-3.784-1.471-1.955-4.661-3.689-10.145-5.645-10.925-1.97-.785-3.522-4.898-4.617-7.255a2.78 2.78 0 0 0-.853-1.036l-10.142-7.642a3.015 3.015 0 0 0-1.259-.556l-17.229-3.253a3.025 3.025 0 0 0-1.386.062l-11.15 3.14a3.01 3.01 0 0 0-1.154.62l-5.325 4.593c-1.764 1.522-4.528.558-4.942-1.724l-1.25-6.889a2.967 2.967 0 0 1 .072-1.366l3.679-12.502a2.997 2.997 0 0 1 1.916-1.989z" fill="#02C69E"/><path d="m59.098 113.609 24.204-7.499.004-.003c7.643-9.063 19.73-13.02 31.229-10.223l1.82.442a34.208 34.208 0 0 1 8.304 3.213l7.772 4.241a88.641 88.641 0 0 1 18.016 13.006l1.19 1.11a75.652 75.652 0 0 1 11.967 14.318 75.906 75.906 0 0 1 10.319 24.727l.076.347a.02.02 0 0 1-.002.017c-1.392 2.278-6.27 6.893-7.176 7.196-.512.172-1.449 1.962-2.349 3.965-.397.883-1.808.607-1.808-.361a.862.862 0 0 0-.078-.361c-2.171-4.74-6.584-14.336-7.48-16.134-1.133-2.276-6.046-.38-9.826 0-1.616.162-1.863 1.27-1.553 2.536.443 1.801.058 3.902-1.596 4.731l-13.028 6.536a3.009 3.009 0 0 1-4.053-1.375c-2.681-5.49-6.467-13.176-6.979-13.945-.533-.803-2.477-4.615-3.707-7.064a3.028 3.028 0 0 0-1.346-1.349l-13.717-6.881a2.999 2.999 0 0 0-1.063-.306l-18.773-1.776a3 3 0 0 0-1.35.183l-9.178 3.492a3.018 3.018 0 0 0-1.647 1.521l-1.368 2.869c-1.004 2.107-3.908 2.321-5.21.386l-7.198-10.709a3.027 3.027 0 0 1-.367-2.621l3.977-12.277a3.015 3.015 0 0 1 1.974-1.952zM10.168 171.759l-1.58-2.208a3.043 3.043 0 0 1-.563-1.595l-1.02-17.614a3.05 3.05 0 0 1 .308-1.524l6.975-14.169c.082-.165.178-.322.287-.469l10.784-14.485c.39-.525.94-.906 1.563-1.083l8.748-2.499a2.947 2.947 0 0 1 3.37 1.388l4.559 7.975c.6 1.05.521 2.366-.202 3.334l-7.003 9.376-9.313 16.369a2.989 2.989 0 0 1-1.014 1.058l-6.467 4.042c-1.417.886-1.84 2.78-.938 4.201l2.857 4.497c1.274 2.005-.144 4.647-2.493 4.647h-6.458c-.95 0-1.841-.462-2.4-1.241zM127.232 210.611c1.299 6.999 3.392 17.023 3.514 18.389 5.865-.332 16.495-2.5 16.92-2.537.373-.032 4.767-1.647 7.655-3.281.75-.423 1.418-.966 2.05-1.544l2.695-2.463a8.982 8.982 0 0 0 2.928-6.306 8.99 8.99 0 0 0-3.761-7.619l-.363-.261a9.38 9.38 0 0 0-9.167-.988l-2.868 1.236-.389-4.347c-.255-2.841-2.112-5.3-4.801-6.355a7.77 7.77 0 0 0-6.575.425l-1.641.902a11.472 11.472 0 0 0-5.596 7.179l-.372 1.443a14.161 14.161 0 0 0-.229 6.127z" stroke="#282828" stroke-width="4"/><path d="M90 269c48.601 0 88-39.399 88-88s-39.399-88-88-88-88 39.399-88 88 39.399 88 88 88z" stroke="#282828" stroke-width="4"/><path d="M77.156 147.766v.645c0 .796.316 1.559.868 2.129 1.17 1.207 2.648 2.789 2.883 3.261.276.553 3.935-.119 6.18-.622.38-.085.736-.248 1.052-.476l.938-.673a2.979 2.979 0 0 1 2.628-.422l4.254 1.336c.22.069.43.163.628.281l7.252 4.305c.46.274.84.667 1.098 1.138l3.733 6.819c1.501 3.268 4.652 9.877 5.252 10.18.421.211 1.234 1.297 1.898 2.275a3.245 3.245 0 0 0 2.033 1.366c2.309.468 5.583 1.267 6.573 2.013 1.501 1.131-.374 3.393-.749 4.147-.376.754-5.253 5.278-6.379 6.032-1.125.754-4.877 5.278-6.002 7.162-1.125 1.885 1.876 5.278 1.876 6.409 0 .79-.383 3.173-.645 4.685a2.97 2.97 0 0 1-.433 1.099c-1.706 2.642-4.644 7.223-4.925 7.787-.285.573-2.393 4.584-3.57 6.818-.121.23-.211.474-.27.728l-.884 3.851a3 3 0 0 1-.578 1.201l-3.576 4.491a2.98 2.98 0 0 1-1.25.921c-2.4.926-6.215 2.348-6.754 2.348-.75 0-3.002-3.016-3.377-3.77-.3-.603-3.126-6.534-4.502-9.424-1.376-3.519-3.977-10.783-3.377-11.687.514-.773 1.611-2.886 2.31-4.269a2.97 2.97 0 0 0 .317-1.341v-6.494c0-.926-.426-1.8-1.154-2.369l-1.602-1.252a3 3 0 0 1-.923-1.215l-1.574-3.794c-.875-1.634-2.7-5.051-3-5.655-.286-.572-3.069-.285-4.635-.04-.162.026-.326.04-.49.04H57.153a2.984 2.984 0 0 1-2.276-1.057l-5.234-6.187a3.006 3.006 0 0 1-.417-.646l-3.932-8.231a3.015 3.015 0 0 1-.258-1.767l.873-5.554c.071-.451.243-.88.504-1.253l4.856-6.972c1.876-2.387 5.778-7.238 6.378-7.539.75-.377 9.38-4.524 10.13-4.524.45 0 3.877.423 6.777.793a2.99 2.99 0 0 1 2.602 2.973zM83.92 45.39l4.838 4.57c.05.049.129.053.185.011l6.3-4.713a14.359 14.359 0 0 0 4.238-5.064c.999-1.993 1.519-4.19 1.519-6.42v-1.842c0-2.059-.287-4.108-.855-6.087l-.807-2.82a43.035 43.035 0 0 0-3.817-9.166L88.912 2.05a.097.097 0 0 0-.157-.017 32.372 32.372 0 0 0-5.395 8.2l-1.695 3.698a35.104 35.104 0 0 0-2.957 10.563l-.581 4.982c-.44 3.775.27 7.594 2.038 10.96a18.922 18.922 0 0 0 3.756 4.955zM94 72.654l.023 6.701c0 .07.05.13.12.142l7.793 1.305A14.4 14.4 0 0 0 114.277 77l1.341-1.282a22.336 22.336 0 0 0 3.838-4.858l1.493-2.55a43.53 43.53 0 0 0 4.028-9.156l4.018-13.027a.097.097 0 0 0-.096-.127 32.495 32.495 0 0 0-9.702 1.78l-3.865 1.34a35.354 35.354 0 0 0-9.734 5.199l-4.028 3.044a19.066 19.066 0 0 0-6.565 9.11A19.111 19.111 0 0 0 94 72.655zM76.172 78.976l6.665-.334a.142.142 0 0 0 .135-.123l.928-7.678a13.861 13.861 0 0 0-.753-6.448 14.102 14.102 0 0 0-3.615-5.438l-1.34-1.251a22.243 22.243 0 0 0-5.015-3.526l-2.607-1.34a43.822 43.822 0 0 0-9.299-3.512l-13.15-3.323a.097.097 0 0 0-.12.1 31.337 31.337 0 0 0 2.23 9.4l1.517 3.716a34.484 34.484 0 0 0 5.634 9.273l3.22 3.795a19.027 19.027 0 0 0 9.374 5.994c2.012.564 4.106.8 6.196.695zM88.75 50v29.99m0 0 5.25-.758m-5.25.759L82 78.85m6.75 1.14V91" stroke="#282828" stroke-width="4"/><path d="m34.296 208.382-4.468-2.619c-4.277-2.507-10.885-2.189-15.33.002-3.462 1.707-3.73 4.321-3.385 8.179l.22 2.444a21.716 21.716 0 0 0 4.107 10.894l9.671 13.203c.919 1.253 2 2.378 3.217 3.343l16.614 13.178c1.772 1.406 5.933 1.446 6.675-.696.826-2.387-3.084-14.946-3.228-16.067-.144-1.121 6.177-1.943 10.026-4.343 3.85-2.399-.447-6.398-1.06-8.218-.433-1.287-2.391-5.056-3.637-7.381a13.575 13.575 0 0 1-.77-1.701l-.04-.11c-1.871-5.062-6.698-8.404-12.072-8.359a12.73 12.73 0 0 1-6.54-1.749z" fill="#02C69E" stroke="#282828" stroke-width="4"/></svg>