<svg width="433" height="142" viewBox="0 0 433 142" fill="none" xmlns="http://www.w3.org/2000/svg">
<path d="M426.569 50.8191C427.241 56.9148 422.871 63.3869 413.123 69.9973C403.473 76.541 389.029 82.881 370.739 88.7832C334.186 100.579 282.641 110.513 224.364 116.933C166.088 123.353 112.228 125.032 72.5922 121.627C52.7605 119.923 36.5823 116.954 25.2128 112.718C13.7016 108.429 7.74223 103.087 7.07481 97.0328C6.40121 90.9221 10.9201 84.0671 20.8888 76.8672C30.7466 69.7473 45.4638 62.6422 64.0132 55.9743C101.089 42.6467 153.152 31.1792 211.402 24.7621C269.653 18.3449 322.964 18.2037 362.054 23.1406C381.61 25.6105 397.522 29.3414 408.694 34.1445C419.992 39.0016 425.896 44.7084 426.569 50.8191Z" stroke="#B1E275" stroke-width="3"/>
<path d="M7.00049 96.3583C17.1611 67.1072 103.526 11.5039 367.702 23.0999C465.01 35.6361 489.63 96.3583 108.997 133.575" stroke="#B1E275" stroke-width="3" stroke-linecap="round"/>
</svg>
