<svg width="222" height="245" viewBox="0 0 222 245" fill="none" xmlns="http://www.w3.org/2000/svg">
<path d="M107.048 78.8037L107.141 78.8194C109.539 79.2262 112.008 78.9423 114.243 78.0024C117.259 76.7341 119.642 74.3605 120.877 71.3947L121.017 71.057C121.667 69.497 122 67.8295 122 66.1462V59.9889C122 57.0445 121.256 54.1454 119.834 51.5476L118.432 48.9881C117.449 47.1935 115.89 45.7616 113.994 44.9109L113.78 44.8151C110.98 43.5593 107.718 43.7648 105.108 45.3613C104.177 45.9305 103.36 46.6587 102.695 47.5108L101.267 49.3411C99.8781 51.1209 99.1257 53.2951 99.1257 55.5307V57.1183C99.1257 58.5965 98.5698 60.0234 97.5629 61.1293C96.3028 62.5135 95.7626 64.3835 96.097 66.2046L96.5769 68.8186C96.9155 70.6625 97.7104 72.3983 98.8928 73.8756L99.1348 74.178C101.092 76.6231 103.912 78.2718 107.048 78.8037Z" fill="#FAB361"/>
<path d="M138.417 39.1443L139.154 38.6502C139.587 38.3596 140.055 38.1206 140.562 38.0003C141.926 37.6766 144.085 37.4434 145.614 38.2125C147.937 39.3803 147.356 40.5481 147.937 44.6353C148.518 48.7226 149.098 47.5549 152.002 48.7227C154.905 49.8905 155.486 46.387 156.647 46.387C158.156 46.387 159.131 48.5565 160.628 48.3683L163.818 47.9673C165.829 47.7146 167.835 48.6106 168.84 50.3783C169.643 51.7911 170.272 53.123 170.003 53.394C169.563 53.8353 173.581 55.7009 175.985 56.7264C176.231 56.831 176.39 57.0717 176.39 57.3392C176.39 57.7291 176.723 58.0349 177.108 57.9968C179.421 57.7684 183.267 57.3172 184.52 56.8974C185.639 56.5223 186.833 54.8673 187.56 53.6251C187.871 53.0945 188.224 52.588 188.658 52.1524L189.347 51.4588C189.974 50.8285 190.327 49.9716 190.327 49.0806C190.327 47.5096 191.412 46.1444 192.94 45.8032C194.467 45.4619 195.553 44.1016 195.553 42.5304V41.6948C195.553 40.9538 195.811 40.2363 196.282 39.6667C197.456 38.2507 197.112 36.2055 195.814 34.904C195.362 34.4516 195.172 34.1251 195.553 34.1251C195.787 34.1251 196.051 33.9266 196.324 33.6046C197.79 31.8785 195.104 29.8543 194.391 27.702C193.811 25.9502 193.23 24.7826 192.069 23.0307C191.566 22.2728 190.412 22.28 189.122 22.3431C185.847 22.5029 182.191 22.4405 179.874 20.1113C179.294 19.5275 179.874 17.7755 179.874 16.0238V14.7576C179.874 14.1464 179.421 13.6313 178.817 13.5554L178.464 13.5108C177.426 13.3805 177.151 11.9996 178.059 11.4783C178.681 11.1208 178.794 10.2672 178.288 9.75772L177.292 8.7557C176.736 8.19622 175.913 7.98607 175.156 8.20355C173.746 8.60875 172.326 7.54984 172.326 6.07642V5.87692C172.326 5.2703 172.086 4.68848 171.659 4.25929L171.315 3.9138C170.384 2.97763 168.814 3.23355 168.225 4.41733C167.658 5.55856 166.166 5.847 165.217 4.99898L163.925 3.84414C162.74 2.78495 160.973 2.75404 159.614 3.57493C158.655 4.1535 157.583 4.69442 156.647 4.92956C154.196 5.54579 151.97 7.8491 149.444 7.8491H147.356C145.614 7.8491 144.453 6.68129 143.292 6.68129C143.032 6.68129 142.522 6.74232 141.882 6.83874C138.239 7.3871 134.971 12.4248 131.678 10.7687C130.941 10.3982 129.424 12.2077 128.346 13.7489C127.858 14.4464 127.716 15.3224 127.9 16.1547L128.388 18.3611C128.586 19.2593 127.906 20.1113 126.99 20.1113C126.332 20.1113 125.759 20.5607 125.6 21.2012L125.118 23.1377C124.857 24.1889 125.033 25.3016 125.604 26.2207L126.943 28.3756C127.366 29.0553 127.449 29.8938 127.169 30.6442L127.074 30.8995C126.492 32.4604 127.641 34.1251 129.3 34.1251C130.613 34.1251 131.678 35.1942 131.678 36.5131V36.6518C131.678 37.6083 132.216 38.4829 133.067 38.9111L134.071 39.4161C135.464 40.116 137.123 40.0123 138.417 39.1443Z" fill="#00CAA1"/>
<path d="M0.204395 230.969C-3.97271 215.705 56.9501 213.553 84.4394 215.705L107.413 222.163L123.906 223.925L142.167 226.273C148.646 230.97 145.701 234.257 142.167 237.427C136.276 242.711 113.303 242.711 100.344 242.711C84.4394 242.711 61.466 244.472 49.6851 244.472C16.1087 247.408 1.97156 237.427 0.204395 230.969Z" fill="#F9C8A8"/>
<path d="M38.2902 90.8948L36.9167 94.7735M38.2902 90.8948C45.1092 97.5397 52.9371 103.122 61.3243 107.634C65.1049 109.667 68.6149 111.5 70.5987 112.242C76.0931 114.295 115.392 126.71 116.537 126.71C117.681 126.71 162.412 134.246 164.472 134.246C165.902 134.246 181.397 134.793 191.657 134.939C194.167 134.974 196.347 133.259 196.941 130.823M38.2902 90.8948L40.1399 84.8014M36.9167 94.7735L37.0952 94.9108C42.141 98.7902 45.5832 104.388 46.7666 110.638L47.017 111.961C47.1511 112.67 47.2186 113.389 47.2186 114.11V121.044C47.2186 122.106 46.5143 123.038 45.4932 123.328C44.5928 123.585 43.6257 123.289 43.023 122.574L33.2537 110.973M36.9167 94.7735L29.3619 88.1569L26.0222 84.3943C24.9098 83.1411 24.8634 81.2692 25.9124 79.9624C26.9749 78.6387 28.8452 78.2877 30.3161 79.1359L40.1399 84.8014M196.941 130.823L197.275 128.943C198.141 124.09 202.365 120.555 207.298 120.555C211.304 120.555 214.939 122.903 216.582 126.554L218.053 129.822C220.254 134.711 218.507 140.472 213.961 143.317C212.701 144.105 211.29 144.624 209.819 144.839L207.367 145.199C205.31 145.5 203.307 146.088 201.403 146.922C196.549 149.049 189.979 151.814 188.928 151.814M196.941 130.823C198.018 126.659 201.779 123.75 206.083 123.75H206.605C207.028 123.75 207.451 123.799 207.863 123.897L209.405 124.263C210.956 124.632 212.05 126.015 212.05 127.607C212.05 129 211.208 130.256 209.917 130.785L205.212 132.717C204.583 132.974 203.931 133.174 203.265 133.313L198.772 134.246L195.109 135.184M196.941 130.823L195.109 135.184M40.1399 84.8014C41.7004 84.8014 42.5675 82.9974 41.592 81.7805L38.849 78.3585C38.4811 77.8995 38.0156 77.5281 37.4863 77.2711L33.3733 75.274C30.777 74.0135 27.8279 73.6758 25.0136 74.3169L23.5715 74.6454C22.1212 74.9758 20.7979 75.7195 19.7621 76.7863C16.8338 79.8019 16.1457 85.1601 18.1224 88.8687C20.879 94.0407 24.252 100.423 24.6609 100.934C25.7246 102.263 30.6591 107.627 33.2537 110.973M33.2537 110.973L22.1943 160.573C21.6326 163.092 21.3492 165.665 21.3492 168.245V168.89C21.3492 170.735 21.5277 172.575 21.8821 174.386L22.1839 175.927C22.8394 179.275 24.2663 182.424 26.3515 185.127C27.2875 186.339 28.3479 187.451 29.5153 188.443L32.3995 190.895C34.4926 192.674 36.7094 194.303 39.0331 195.768L42.625 198.034C49.9386 202.647 57.738 206.443 65.8826 209.352L81.1006 214.786L104.627 219.965C113.793 221.982 123.151 223 132.537 223H139.873C142.809 223 145.739 222.735 148.627 222.208L153.664 221.289C158.179 220.465 162.425 218.549 166.029 215.709L166.352 215.453C169.015 213.356 171.241 210.759 172.906 207.808C173.968 205.927 174.791 203.921 175.357 201.837L188.928 151.814M188.928 151.814L176.636 156.883C176.007 157.143 175.298 157.128 174.681 156.844C173.541 156.319 172.983 155.018 173.391 153.833L175.171 148.643C175.488 147.721 175.96 146.861 176.568 146.1L178.064 144.223C181.103 140.413 185.302 137.698 190.023 136.488L195.109 135.184" stroke="#282828" stroke-width="4"/>
<path d="M197.922 126.226C197.55 127.802 195.681 129.57 191.098 130.929C186.684 132.238 180.44 132.951 172.741 132.998C157.377 133.09 136.68 130.527 114.318 125.255C91.9567 119.983 72.2932 113.028 58.5869 106.081C51.7194 102.601 46.4499 99.1732 43.0851 96.0298C39.5915 92.7661 38.7072 90.3496 39.0784 88.7735C39.4497 87.1973 41.3194 85.4302 45.9018 84.0708C50.3154 82.7614 56.56 82.0486 64.2582 82.0024C79.6224 81.9101 100.321 84.4721 122.682 89.7446C145.043 95.017 164.707 101.971 178.413 108.918C185.281 112.399 190.55 115.826 193.915 118.97C197.408 122.234 198.292 124.65 197.922 126.226Z" fill="#ECE5E2" stroke="#282828" stroke-width="4"/>
<path d="M161.212 130.735C160.771 131.795 160.5 132.615 160.5 133L147.5 131.991L118 126.441V118.221C118.801 110.527 122.191 103.342 127.605 97.8642L129.033 96.4197C130.747 94.6853 132.618 93.1152 134.619 91.7294L135.029 91.446C140.516 87.6476 146.777 85.1367 153.351 84.0975L156.168 83.6522C160.81 82.9184 165.527 82.8033 170.199 83.3096L177.609 84.1128C179.507 84.3187 181.35 84.8886 183.036 85.792L184.182 86.4057C188.377 88.6526 191 93.0533 191 97.8458C191 101.275 189.652 104.565 187.252 106.992L185.456 108.81C184.209 110.071 182.794 111.151 181.251 112.018L177.335 114.219C170.454 118.087 164.261 123.406 161.212 130.735Z" stroke="#282828" stroke-width="4"/>
<path d="M159.509 129.526C159.249 130.204 159.098 130.724 159.098 131L147.138 130.072L120 124.966V117.404C120.737 110.324 123.858 103.712 128.846 98.6659L130.147 97.3497C131.726 95.7516 133.449 94.3046 135.294 93.0273L135.662 92.7722C140.712 89.2765 146.476 86.9651 152.53 86.008L155.11 85.6001C159.382 84.925 163.723 84.8189 168.021 85.2849L174.5 85.9872C176.469 86.2006 178.379 86.7915 180.127 87.7278L182.209 88.8433C185.314 90.5064 187.433 93.5734 187.902 97.0826C188.377 100.633 187.104 104.193 184.49 106.623L181.876 109.053C180.847 110.01 179.707 110.842 178.484 111.53L175.167 113.395C168.453 117.168 162.27 122.303 159.509 129.526Z" fill="#F15919"/>
<path d="M120 124.012L120.464 118.946C121.216 110.727 124.803 103.028 130.607 97.1774C132.15 95.6219 133.833 94.2134 135.636 92.9701L136.045 92.6875C141.058 89.2299 146.78 86.9437 152.79 85.997L155.351 85.5936C159.592 84.9258 163.901 84.8209 168.168 85.2818L174.599 85.9765C176.553 86.1875 178.45 86.772 180.185 87.6981L182.252 88.8014C185.334 90.4464 187.438 93.48 187.903 96.951C188.374 100.463 187.11 103.984 184.515 106.387L181.921 108.791C180.899 109.738 179.768 110.56 178.553 111.241L170.922 115.515C167.13 117.639 163.976 120.746 161.79 124.511L159.302 130" stroke="#F9E8E8" stroke-width="2"/>
<path d="M136.5 124C140.09 124 143 121.09 143 117.5C143 113.91 140.09 111 136.5 111C132.91 111 130 113.91 130 117.5C130 121.09 132.91 124 136.5 124Z" fill="#F5F8FA"/>
<path d="M136 122C138.209 122 140 120.209 140 118C140 115.791 138.209 114 136 114C133.791 114 132 115.791 132 118C132 120.209 133.791 122 136 122Z" fill="#ECE5E2"/>
<path d="M133.584 39.1567L134.347 38.6525C134.787 38.3608 135.263 38.1211 135.777 38.0007C137.16 37.6771 139.349 37.4443 140.899 38.213C143.254 39.3808 142.665 40.5485 143.254 44.6354C143.843 48.7224 144.431 47.5547 147.376 48.7225C150.32 49.8901 150.908 46.387 152.085 46.387C153.601 46.387 154.591 48.5579 156.094 48.3715L159.373 47.9652C161.405 47.7134 163.432 48.6123 164.457 50.3918C165.267 51.7993 165.9 53.1233 165.628 53.3933C165.182 53.8348 169.26 55.7017 171.698 56.7268C171.944 56.8305 172.104 57.0716 172.104 57.34C172.104 57.729 172.437 58.0344 172.822 57.9969C175.165 57.7688 179.076 57.3169 180.348 56.8965C181.482 56.5214 182.693 54.8664 183.431 53.6243C183.746 53.094 184.104 52.5883 184.541 52.1544L185.245 51.4559C185.879 50.8277 186.235 49.9708 186.235 49.0768C186.235 47.5061 187.341 46.1435 188.868 45.8067C190.416 45.4658 191.534 44.0863 191.534 42.496V41.6991C191.534 40.956 191.796 40.237 192.274 39.669C193.459 38.258 193.116 36.2034 191.804 34.9094C191.344 34.4546 191.147 34.1259 191.534 34.1259C191.766 34.1259 192.025 33.9388 192.293 33.6331C193.8 31.9175 191.086 29.871 190.357 27.7034C189.769 25.9517 189.179 24.7842 188.002 23.0325C187.492 22.2748 186.322 22.2818 185.015 22.3448C181.7 22.5044 177.999 22.4548 175.637 20.1132C175.049 19.5295 175.637 17.7777 175.637 16.0261V14.7653C175.637 14.1513 175.181 13.6342 174.574 13.559L174.196 13.5121C173.157 13.3832 172.884 11.9979 173.795 11.4812C174.424 11.1255 174.538 10.2654 174.025 9.75671L173.003 8.74323C172.447 8.19239 171.64 7.9836 170.889 8.1965L170.844 8.2092C169.409 8.61596 167.983 7.53301 167.983 6.0354V5.90287C167.983 5.28213 167.736 4.68724 167.296 4.25101L166.951 3.90915C166.006 2.97203 164.426 3.23048 163.825 4.42025C163.247 5.5671 161.747 5.85814 160.784 5.01004L159.464 3.84638C158.26 2.78454 156.477 2.75376 155.098 3.57515C154.125 4.15484 153.036 4.69722 152.085 4.93276C149.613 5.54573 147.358 7.85206 144.81 7.85206H142.665C140.899 7.85206 139.722 6.68435 138.544 6.68435C138.277 6.68435 137.752 6.74671 137.093 6.84496C133.413 7.39319 130.103 12.4254 126.768 10.7715C126.022 10.4013 124.486 12.207 123.392 13.7473C122.896 14.4463 122.752 15.329 122.94 16.1665L123.425 18.3364C123.63 19.2474 122.94 20.1132 122.01 20.1132C121.346 20.1132 120.766 20.5662 120.603 21.2128L120.121 23.1224C119.854 24.1833 120.033 25.308 120.616 26.2328L121.964 28.3724C122.393 29.054 122.478 29.8988 122.193 30.6528L122.116 30.8561C121.519 32.4353 122.682 34.1259 124.364 34.1259C125.692 34.1259 126.768 35.2064 126.768 36.5393V36.6466C126.768 37.6058 127.311 38.4819 128.167 38.9067L129.218 39.4278C130.618 40.1219 132.28 40.0188 133.584 39.1567Z" stroke="#282828" stroke-width="4"/>
<path d="M138.793 51.1086L136.947 42.0419C136.747 41.0566 137.15 40.0467 137.978 39.4666C139.391 38.4746 141.368 39.1357 141.89 40.7748L143.446 45.6631C143.711 46.5003 143.796 47.3824 143.737 48.2584C143.571 50.713 143.455 54.8329 143.849 55.2207L144.031 55.3992C144.966 56.318 146.437 56.4219 147.494 55.6433C147.87 55.3665 148.166 54.9963 148.352 54.57L150.689 49.2122C151.23 47.9725 152.706 47.4352 153.926 48.0343C155.265 48.6915 155.782 50.4771 155.254 51.8635C154.637 53.4837 154.088 55.2277 153.492 55.8127C152.974 56.3214 152.201 57.3079 151.472 58.2959C150.869 59.1139 151.596 60.2107 152.597 60.0139C152.788 59.9764 152.966 59.8919 153.115 59.766C154.587 58.5128 157.253 56.1199 157.711 55.2207C158.313 54.0368 162.532 51.0768 162.532 50.4848C162.532 50.2164 163.435 50.5692 164.474 51.0689C165.799 51.7065 166.337 53.2744 165.785 54.6299C165.627 55.0192 165.385 55.3699 165.078 55.6579L152.889 67.0605L147.417 71.0021C145.134 72.6468 142.283 73.316 139.499 72.8603L137.884 72.5957C137.055 72.46 136.279 72.1035 135.639 71.5643C133.805 70.0206 133.463 67.3419 134.852 65.3935L135.995 63.7894C136.408 63.2111 136.725 62.5721 136.937 61.8956L138.494 56.9248C138.848 55.7952 139.027 54.6191 139.027 53.4362C139.027 52.6545 138.95 51.8748 138.793 51.1086Z" fill="#00CAA1" stroke="#282828" stroke-width="3"/>
<path d="M105.894 78.7874L105.987 78.8034C108.577 79.2462 111.242 78.9373 113.655 77.9147C116.898 76.5398 119.457 73.9716 120.781 70.7651L120.944 70.3707C121.641 68.6808 122 66.8752 122 65.0526V58.3446C122 55.1567 121.2 52.0174 119.671 49.2022L118.15 46.4005C117.096 44.4609 115.423 42.9119 113.385 41.9904L113.153 41.8858C110.136 40.5212 106.618 40.7443 103.805 42.4786C102.805 43.095 101.928 43.883 101.214 44.8046L99.6753 46.7936C98.1775 48.729 97.3668 51.0901 97.3668 53.5178V55.2456C97.3668 56.8486 96.7681 58.3963 95.6834 59.5977C94.3261 61.1008 93.7447 63.1279 94.1042 65.1026L94.6218 67.9449C94.9866 69.9481 95.8438 71.8345 97.1195 73.4416L97.3868 73.7785C99.4875 76.4247 102.521 78.2105 105.894 78.7874Z" stroke="#282828" stroke-width="3"/>
<path d="M103.5 54C104.328 54 105 53.3284 105 52.5C105 51.6716 104.328 51 103.5 51C102.672 51 102 51.6716 102 52.5C102 53.3284 102.672 54 103.5 54Z" fill="#282828"/>
<path d="M111.5 55C112.328 55 113 54.3284 113 53.5C113 52.6716 112.328 52 111.5 52C110.672 52 110 52.6716 110 53.5C110 54.3284 110.672 55 111.5 55Z" fill="#282828"/>
<path d="M108.5 48C109.328 48 110 47.3284 110 46.5C110 45.6716 109.328 45 108.5 45C107.672 45 107 45.6716 107 46.5C107 47.3284 107.672 48 108.5 48Z" fill="#282828"/>
<path d="M65.2512 72C65.522 72 68.0175 72.2965 70.4857 72.599C72.832 72.8865 75.0726 73.7501 77.019 75.1059C79.4747 76.8165 82.3863 77.7324 85.3681 77.7324H85.9691H88.8242C91.3353 77.7324 93.7722 78.5934 95.7369 80.1748C97.1457 81.3088 98.2607 82.7724 98.9855 84.4394L99.5625 85.766C100.834 88.6897 101.257 91.9141 100.851 95.0814C100.639 96.7271 100.471 98.1667 100.471 98.5775C100.471 104.261 92.375 106.439 87.1805 108.607C86.5942 108.852 86.1603 109 85.9691 109C85.5638 109 83.3243 108.668 80.6571 108.246C75.3294 107.405 70.3764 104.971 66.3772 101.313C62.9184 98.1492 60.2235 94.1858 58.8684 89.673C58.3666 88.0016 58 86.5965 58 86.0704V83.7002C58 81.1687 58.744 78.6941 60.1374 76.5911C60.7812 75.6195 61.5498 74.7372 62.4476 73.9998C63.6318 73.0271 64.9604 72 65.2512 72Z" fill="#FAB361"/>
<path d="M63.4197 73C63.6965 73 66.2475 73.3042 68.7717 73.6147C71.175 73.9103 73.4692 74.7974 75.4604 76.1895C77.9731 77.9463 80.9559 78.8873 84.011 78.8873H84.619H87.5268C90.1046 78.8873 92.6056 79.7735 94.6193 81.4003C96.0573 82.562 97.1944 84.0596 97.9328 85.764L98.5307 87.1444C99.8299 90.1434 100.263 93.4484 99.8477 96.6954C99.631 98.3897 99.4585 99.8731 99.4585 100.296C99.4585 106.121 91.1723 108.374 85.8471 110.601C85.2531 110.85 84.8134 111 84.619 111C84.2058 111 81.9303 110.661 79.215 110.231C73.7435 109.365 68.6593 106.858 64.5596 103.094C61.0284 99.8519 58.2797 95.7949 56.8974 91.1799C56.3794 89.4505 56 87.9941 56 87.4507V85.0075C56 82.413 56.7604 79.8764 58.1851 77.7183C58.8451 76.7183 59.6338 75.8099 60.5554 75.0501C61.7659 74.0522 63.1225 73 63.4197 73Z" stroke="#282828" stroke-width="3"/>
<path d="M84.5 101C85.3284 101 86 100.328 86 99.5C86 98.6716 85.3284 98 84.5 98C83.6716 98 83 98.6716 83 99.5C83 100.328 83.6716 101 84.5 101Z" fill="#282828"/>
<path d="M92.5 102C93.3284 102 94 101.328 94 100.5C94 99.6716 93.3284 99 92.5 99C91.6716 99 91 99.6716 91 100.5C91 101.328 91.6716 102 92.5 102Z" fill="#282828"/>
<path d="M89.5 95C90.3284 95 91 94.3284 91 93.5C91 92.6716 90.3284 92 89.5 92C88.6716 92 88 92.6716 88 93.5C88 94.3284 88.6716 95 89.5 95Z" fill="#282828"/>
</svg>
