<svg width="238" height="255" viewBox="0 0 238 255" fill="none" xmlns="http://www.w3.org/2000/svg">
<path d="M157 3V80.7955H147.526L103 87V27.3409V15.8863L105.369 12.0682L157 3Z" fill="#F26225"/>
<path d="M158 82.2298V4L181.571 6.86207V13.5402L184.4 19.7414L198.543 21.6494L203.257 17.8333L204.671 11.6321L206.085 9.72414L221.643 11.6321L224 87L158 82.2298Z" fill="#ECB666"/>
<path d="M147 82V107L74 104.115V93.5383L75.8961 90.173L147 82Z" fill="#F26225"/>
<path d="M147 85.9956V102.549C147 105.307 149.245 107.544 152.014 107.544H158.561C159.1 107.544 159.635 107.63 160.147 107.8L164.629 109.288C166.619 109.949 167.987 111.776 168.054 113.866L168.79 136.594C168.853 138.541 170.046 140.274 171.847 141.033L180.299 144.596C180.938 144.864 181.513 145.263 181.99 145.766L197.45 162.075L209.532 178.281C209.726 178.54 209.944 178.78 210.185 178.998L224.81 192.244C225.285 192.675 225.673 193.192 225.953 193.769L231.188 204.573C231.757 205.748 233.131 206.297 234.357 205.839C235.345 205.47 236 204.528 236 203.476V192.897L234.178 93.0454C234.132 90.5009 232.173 88.398 229.629 88.1626L213.873 86.7043C210.934 86.4323 208.396 88.7368 208.396 91.6781V101.715C208.396 103.004 207.822 104.227 206.827 105.052C205.999 105.74 204.944 106.097 203.866 106.055L183.229 105.249C181.968 105.2 180.772 104.679 179.88 103.789L179.299 103.212C178.422 102.337 177.901 101.169 177.838 99.9342L177.206 87.6089C177.078 85.1297 175.143 83.1197 172.662 82.89L152.478 81.0218C149.538 80.7498 147 83.0544 147 85.9956Z" fill="#ECB666"/>
<path d="M157.306 80.7954C156.925 77.3591 157.148 27.5 157.306 3M157.306 3L107.067 12.7136C104.706 13.1701 103 15.2408 103 17.6502V86.0454M157.306 3L218.768 11.478C221.228 11.8172 223.071 13.9075 223.102 16.3947L224 87M183.031 7.77273V14.8525C183.031 17.3607 184.877 19.4853 187.356 19.8319L198.28 21.3591C201.127 21.757 203.724 19.6836 203.973 16.8152L204.468 11.1137" stroke="black" stroke-width="4"/>
<path d="M147.397 106.568V81M147.397 81L230.415 87.7305C233.005 87.9405 235 90.1036 235 92.702V203.159C235 204.728 233.728 206 232.159 206M147.397 81L78.3813 89.4592C75.8799 89.7658 74 91.8899 74 94.4099V103.727" stroke="black" stroke-width="4"/>
<path d="M178 85V99.5396C178 102.098 179.983 104.226 182.554 104.425L202.677 105.985C205.547 106.207 208 103.956 208 101.099V86.3956" stroke="black" stroke-width="4"/>
<path d="M168.19 226.64L166.059 219.136C165.725 217.961 166.874 216.917 167.97 217.399C168.246 217.52 168.551 217.549 168.844 217.481C170.925 216.993 174.52 216.189 175.194 216.189C177.604 216.189 179.641 214.19 182.037 213.931L184.701 213.643C186.215 213.479 187.742 213.479 189.255 213.643L192.355 213.978C194.506 214.211 196.626 214.682 198.677 215.384C202.911 216.834 207.408 217.282 211.84 216.743C214.349 216.439 216.519 216.189 216.894 216.189C217.801 216.189 226.412 212 227.319 212C229.616 212 231.521 213.825 231.678 216.177L231.979 220.648C232.183 223.686 230.923 226.634 228.606 228.538L227.924 229.098C226.344 230.396 224.438 231.208 222.428 231.442L197.403 234.343L180.679 234.991C176.154 235.166 171.873 232.882 169.414 228.979L168.792 227.992C168.528 227.573 168.325 227.118 168.19 226.64Z" fill="#02C69E"/>
<path d="M96.5 227C103.404 227 109 221.627 109 215C109 208.373 103.404 203 96.5 203C89.5964 203 84 208.373 84 215C84 221.627 89.5964 227 96.5 227Z" fill="#282828"/>
<path d="M96 198.015V112.989C96 110.174 93.6746 107.917 90.8637 108.002L12.8315 110.392C10.1396 110.475 8 112.674 8 115.37V192.281C8 194.311 59.9755 199.948 90.5437 202.975C93.4719 203.265 96 200.96 96 198.015Z" fill="#ECE5E2"/>
<path d="M110.478 152.015L112.78 145.49C113.332 143.927 114.631 142.737 116.245 142.317L120.661 141.164C121.982 140.819 123.387 141.023 124.553 141.727L132.686 146.636C133.354 147.039 133.918 147.591 134.333 148.247L157.69 185.222C158.225 186.069 159.005 186.737 159.928 187.139L186.996 198.935C188.822 199.731 190 201.521 190 203.498V206.542C190 208.71 188.59 210.631 186.502 211.272C182.433 212.522 177.508 213.966 176.641 213.966C175.868 213.966 173.745 214.973 171.86 215.967C170.363 216.757 168.57 216.824 167.053 216.072L163.223 214.172C162.945 214.035 162.655 213.923 162.356 213.839L151.326 210.713C150.117 210.37 148.822 210.49 147.698 211.047L144.026 212.869C142.631 213.56 141.638 214.856 141.34 216.375L139.259 226.99C138.803 229.318 136.745 231 134.354 231C133.921 231 133.49 230.944 133.072 230.835L113.727 225.744C111.684 225.206 110.198 223.462 110.011 221.373C109.174 212.025 107.937 198.072 107.937 197.405C107.937 196.664 107.328 182.259 107.005 174.699C106.991 174.377 107.009 174.06 107.057 173.742L110.253 152.913C110.3 152.608 110.375 152.308 110.478 152.015Z" fill="#ECE5E2"/>
<path d="M86 219L86.6018 220.428C87.738 223.122 89.9411 225.24 92.6984 226.288L92.8477 226.345C93.9871 226.778 95.1974 227 96.4183 227C99.9875 227 103.283 225.11 105.054 222.048L106 220.412" stroke="#282828" stroke-width="4"/>
<path d="M205.606 245C204.916 245 202.976 244.668 200.828 244.245C196.386 243.371 192.785 240.343 191 236.292L219.27 234C220.096 234.803 220.238 236.058 219.61 237.016L218.073 239.367C217.62 240.059 217.022 240.652 216.321 241.108L214.684 242.169C213.661 242.832 212.565 243.381 211.395 243.745C209.487 244.338 206.993 245 205.606 245Z" fill="#282828" stroke="#282828" stroke-width="4"/>
<path d="M185.416 206.816L185.272 207.087C184.408 208.714 182.763 209.772 180.929 209.88L179.15 209.985C177.063 210.108 175.006 209.452 173.374 208.141L171.22 206.412L168.303 203.809C167.474 203.07 167 202.01 167 200.898V200.787C167 198.695 168.689 197 170.773 197C171.07 197 171.366 197.035 171.654 197.104L182.204 199.645C182.694 199.763 183.163 199.956 183.596 200.216C185.857 201.579 186.658 204.481 185.416 206.816Z" fill="#ECB666"/>
<path d="M162 217.247C162.313 217.561 166.494 217.895 169.647 218.093C170.849 218.169 172.034 217.793 172.984 217.051L174.433 215.921C175.313 215.234 176.395 214.862 177.509 214.862H188.963C189.683 214.862 190.395 215.018 191.05 215.319L193.093 216.258C198.552 218.768 204.634 219.58 210.557 218.59L214.642 217.907C217.26 217.469 219.81 216.684 222.224 215.575L230 212" stroke="#282828" stroke-width="4" stroke-linecap="round"/>
<path d="M106.992 206.463L106.423 201.745C106.074 198.849 105.98 195.927 106.139 193.014L106.992 177.45L110.695 148.061C110.849 146.843 111.288 145.679 111.977 144.662C112.861 143.36 114.119 142.355 115.585 141.781L117.543 141.012C119.241 140.346 121.05 140.004 122.875 140.004H164.662C165.864 140.004 167.061 140.161 168.222 140.472M106.992 206.463L109.147 224.332C109.297 225.585 110.215 226.611 111.446 226.9L133.899 232.178C135.454 232.544 137.007 231.561 137.34 230L139.607 219.379C140.015 217.464 140.962 215.707 142.338 214.313C144.593 212.029 147.788 210.928 150.974 211.34L152.367 211.521C154.866 211.844 157.219 212.881 159.144 214.505L159.297 214.635C160.714 215.831 161.874 217.301 162.708 218.955L165.744 224.973C166.229 225.933 166.579 226.953 166.786 228.006L167.133 229.757C167.799 233.136 170.341 235.835 173.676 236.707C174.555 236.937 175.463 237.033 176.372 236.99L207.749 235.529C211.271 235.364 214.759 234.765 218.134 233.744L227.918 230.782C229.207 230.392 230.36 229.647 231.243 228.632C232.478 227.214 233.104 225.366 232.986 223.49L232.281 212.333C231.729 203.59 227.856 195.387 221.454 189.399L211.365 179.962C209.576 178.29 207.913 176.488 206.388 174.573L191.236 155.541C185.38 148.184 177.312 142.902 168.222 140.472M106.992 206.463H101.018C98.2464 206.463 96 204.219 96 201.451V106.227C96 104.939 97.0901 103.92 98.3763 104.005L163.535 108.297C166.172 108.47 168.222 110.657 168.222 113.297V140.472" stroke="#282828" stroke-width="4" stroke-linecap="round"/>
<path d="M123.854 154.691L119.856 154.063C116.783 153.581 114 155.909 114 158.962V174.118C114 176.447 115.651 178.462 117.969 178.963L141.006 183.943C141.827 184.121 142.684 183.875 143.278 183.291C144.117 182.469 144.239 181.178 143.57 180.217L127.229 156.788C126.445 155.664 125.226 154.906 123.854 154.691Z" stroke="#282828" stroke-width="4" stroke-linecap="round"/>
<path d="M156.077 179.477L143.672 157.76C141.826 154.528 143.986 150.465 147.678 150.225L181.725 148.01C183.026 147.926 184.307 148.358 185.296 149.212L186.677 150.406C186.939 150.632 187.178 150.886 187.388 151.162L201.96 170.291C204.351 173.43 202.381 177.992 198.473 178.368L160.878 181.977C158.93 182.164 157.053 181.187 156.077 179.477Z" stroke="#282828" stroke-width="4" stroke-linecap="round"/>
<path d="M165 234.5C165 244.593 158.578 252 151.5 252C144.423 252 138 244.593 138 234.5C138 224.407 144.423 217 151.5 217C158.578 217 165 224.407 165 234.5Z" fill="#282828" stroke="#282828" stroke-width="4"/>
<path d="M96 200.024V109.979C96 107.17 93.6552 104.917 90.8205 105.002L6.87345 107.534C4.15824 107.616 2 109.807 2 112.498V193.691C2 195.834 57.8986 201.798 90.5051 204.976C93.4575 205.263 96 202.962 96 200.024Z" stroke="#282828" stroke-width="4"/>
<path d="M102.03 221.755C94.0402 220.802 78.9182 218.535 67.5863 216.777L31.4124 221.949C30.2407 222.116 29.0467 221.869 28.0426 221.25L24.3511 218.978C22.8885 218.078 22 216.499 22 214.8V204.928C22 201.945 24.6705 199.646 27.672 200.045L39.5697 201.63H53.0788L63.3126 202.565L102.591 207.19C105.106 207.487 107 209.587 107 212.082V217.281C107 220.002 104.773 222.082 102.03 221.755Z" fill="#7B7B7B"/>
<path d="M53.0788 201.63L59.3041 213.458C60.0333 214.843 61.3804 215.806 62.9451 216.051C74.3998 217.853 92.8859 220.665 102.03 221.755C104.773 222.082 107 220.002 107 217.281V212.082C107 209.587 105.106 207.487 102.591 207.19L63.3126 202.565L53.0788 201.63ZM53.0788 201.63H39.5697L27.672 200.045C24.6705 199.646 22 201.945 22 204.928V214.8C22 216.499 22.8885 218.078 24.3511 218.978L28.0426 221.25C29.0467 221.869 30.2407 222.116 31.4124 221.949L67.5863 216.777" stroke="#282828" stroke-width="4"/>
<path d="M194.286 208.921L194.224 208.716C193.297 205.632 195.35 202.446 198.468 202.134L219.579 200.024C222.581 199.724 225.141 202.241 224.994 205.347L224.971 205.82C224.871 207.921 223.529 209.744 221.591 210.406L214.77 212.741C214.268 212.912 213.742 213 213.213 213H199.665C198.62 213 197.602 212.66 196.757 212.026L196.1 211.533C195.239 210.887 194.602 209.971 194.286 208.921Z" fill="#7B7B7B" stroke="#282828" stroke-width="4"/>
<path d="M42.5 235C49.4036 235 55 227.389 55 218C55 208.611 49.4036 201 42.5 201C35.5964 201 30 208.611 30 218C30 227.389 35.5964 235 42.5 235Z" fill="#282828"/>
<path d="M39 225C41.7614 225 44 221.642 44 217.5C44 213.358 41.7614 210 39 210C36.2386 210 34 213.358 34 217.5C34 221.642 36.2386 225 39 225Z" fill="#ECE5E2"/>
<path d="M148.5 243C151.538 243 154 239.418 154 235C154 230.582 151.538 227 148.5 227C145.462 227 143 230.582 143 235C143 239.418 145.462 243 148.5 243Z" fill="#ECE5E2"/>
</svg>
