<svg width="141" height="149" viewBox="0 0 141 149" fill="none" xmlns="http://www.w3.org/2000/svg">
<path d="M69.0985 1H8.90147C4.53761 1 1 4.54206 1 8.91141V139.089C1 143.458 4.53761 147 8.90147 147H69.0985C73.4624 147 77 143.458 77 139.089V8.91141C77 4.54206 73.4624 1 69.0985 1Z" stroke="#282828" stroke-width="2"/>
<path d="M73 12.8762V134.123C73 138.473 69.4426 142 65.0544 142H12.9456C8.55734 142 5 138.473 5 134.123V12.8762C5 8.52632 8.55734 5 12.9456 5H24.8027C24.8827 5 24.9475 5.0643 24.9475 5.14361V6.38083C24.9475 8.86386 26.9782 10.8768 29.4831 10.8768H48.3609C50.8658 10.8768 52.8964 8.86386 52.8964 6.38083V5.14361C52.8964 5.0643 52.9613 5 53.0413 5H65.0544C69.4426 5 73 8.52632 73 12.8762Z" stroke="#282828" stroke-width="2"/>
<path d="M68.1479 121H11.8521C11.3815 121 11 121.36 11 121.803V128.197C11 128.64 11.3815 129 11.8521 129H68.1479C68.6185 129 69 128.64 69 128.197V121.803C69 121.36 68.6185 121 68.1479 121Z" fill="#02C69E" stroke="#282828" stroke-width="2"/>
<path d="M39.5 82C52.4787 82 63 71.7025 63 59C63 46.2975 52.4787 36 39.5 36C26.5213 36 16 46.2975 16 59C16 71.7025 26.5213 82 39.5 82Z" stroke="#282828" stroke-width="4"/>
<path d="M22.4818 65.7198L30.0583 67.6952C38.4864 69.8927 44.5589 59.7022 38.6316 53.308L38.1047 52.7396C37.8225 52.4351 37.5905 52.0873 37.4177 51.7094C37.2458 51.3337 37.0155 50.9877 36.7354 50.6844L33.4119 47.0863C32.9878 46.6271 32.4452 46.2942 31.8442 46.1245C30.8877 45.8543 29.8673 46.0271 29.0628 46.6118C28.1431 47.28 27.1511 47.9673 26.3855 48.1488C25.8164 48.2838 25.5413 48.89 25.4289 49.5949C25.2695 50.5937 23.9614 50.7629 23.4313 51.6237C23.3633 51.734 22.8504 51.9903 22.2136 52.2751C20.9491 52.8406 20.1786 54.1633 20.3931 55.5342C20.4766 56.0674 20.4186 56.6158 20.1777 57.0985C19.8187 57.8179 19.2808 58.7366 18.7016 59.3026C16.5792 61.3767 19.689 64.7236 22.4818 65.7198Z" fill="#02C69E"/>
<path d="M33.1584 50.0512L35.4533 57.747C38.0062 66.3081 49.849 65.9852 52.1575 57.3506C52.3767 56.5305 52.7231 55.7458 53.1805 55.0379L55.6007 50.7925C56.2197 49.7068 56.1112 48.337 55.3297 47.3692C55.0511 47.0244 54.7009 46.7505 54.3082 46.5574C52.9222 45.8758 50.7879 44.7328 50.0736 43.9957C49.6614 43.5704 49.0043 43.6563 48.3489 43.938C47.4201 44.3369 46.592 43.2833 45.5859 43.2833C45.4569 43.2833 44.9716 42.9725 44.397 42.5686C43.2564 41.7668 41.7335 41.8054 40.6855 42.7323C40.278 43.0928 39.7834 43.3376 39.2488 43.387C38.452 43.4606 37.3927 43.4851 36.6105 43.2833C33.7439 42.5438 32.5393 47.0698 33.1584 50.0512Z" stroke="#282828" stroke-width="2"/>
<path d="M23.4975 66.6871L31.1005 68.6933C39.558 70.9246 45.5524 60.4675 39.6045 53.9739C39.0395 53.3571 38.5712 52.6482 38.2253 51.8829L35.9805 47.5735C35.4063 46.4714 34.2117 45.8537 32.9951 46.0297C32.5615 46.0925 32.1489 46.2544 31.7809 46.4953C30.4821 47.3452 28.4045 48.6054 27.4148 48.843C26.8437 48.98 26.5677 49.5957 26.4549 50.3115C26.2949 51.3259 24.9823 51.4977 24.4503 52.3719C24.382 52.4839 23.8674 52.7441 23.2283 53.0334C21.9594 53.6077 21.1862 54.9509 21.4015 56.3431C21.4853 56.8846 21.427 57.4416 21.1853 57.9318C20.825 58.6623 20.2852 59.5954 19.7041 60.1701C17.5743 62.2764 20.6949 65.6755 23.4975 66.6871Z" stroke="#282828" stroke-width="2"/>
<path d="M33.1601 51.0255L35.4786 58.6969C38.0579 67.2306 49.9841 67.0526 52.3164 58.4455L52.5238 57.6804C52.6348 57.2705 52.8095 56.8813 53.0412 56.5275C53.2716 56.1756 53.4456 55.7888 53.5568 55.3814L54.8755 50.5484C55.0438 49.9316 55.0414 49.2794 54.8687 48.6639C54.5937 47.6842 53.9061 46.8868 52.9806 46.499C51.9227 46.0558 50.8103 45.5597 50.25 44.9893C49.8336 44.5653 49.1697 44.6511 48.5075 44.9318C47.5691 45.3295 46.7324 44.2792 45.716 44.2792C45.5857 44.2792 45.0953 43.9694 44.5148 43.5668C43.3624 42.7676 41.8237 42.8061 40.765 43.7299C40.3532 44.0893 39.8535 44.3333 39.3134 44.3826C38.5083 44.456 37.4381 44.4803 36.6478 44.2792C33.7516 43.542 32.5346 48.0537 33.1601 51.0255Z" fill="#02C69E"/>
<path d="M57.5085 91H20.4915C19.1155 91 18 92.1193 18 93.5C18 94.8807 19.1155 96 20.4915 96H57.5085C58.8845 96 60 94.8807 60 93.5C60 92.1193 58.8845 91 57.5085 91Z" fill="#F9C8A8"/>
<path d="M47.5161 100H30.4839C29.1121 100 28 101.119 28 102.5C28 103.881 29.1121 105 30.4839 105H47.5161C48.8879 105 50 103.881 50 102.5C50 101.119 48.8879 100 47.5161 100Z" fill="#F9C8A8"/>
<path d="M54.117 67.3132L54.7842 67.8224C55.7846 68.5858 56.2238 69.9031 55.8893 71.1363C55.6991 71.8364 55.2749 72.4461 54.6909 72.8573L53.0723 73.9968C52.252 74.574 51.3384 74.9972 50.374 75.2473L48.0491 75.8485C46.8895 76.1487 45.6629 75.9997 44.6038 75.4288L44.2775 75.2536C42.8773 74.4991 42 73.0092 42 71.3857C42 70.5168 42.2522 69.6679 42.7244 68.9473L42.8363 68.7765C43.322 68.0351 43.9908 67.4397 44.7742 67.0511L45.3742 66.7535C46.7334 66.0792 48.2613 65.8498 49.7516 66.0963L52.2699 66.5126C52.9392 66.6234 53.5728 66.8979 54.117 67.3132Z" stroke="#282828" stroke-width="2"/>
<path d="M48 73C50.2091 73 52 71.8807 52 70.5C52 69.1193 50.2091 68 48 68C45.7909 68 44 69.1193 44 70.5C44 71.8807 45.7909 73 48 73Z" fill="#ECB666"/>
<path d="M97 77.5901L109.962 94.4504C110.524 95.1814 111.627 95.1835 112.192 94.4546L135 65" stroke="#02C69E" stroke-width="10" stroke-linecap="round"/>
<path d="M29.0164 64.8884L29.018 64.8658V64.843V61.9402C29.2977 59.3567 30.4565 56.9423 32.3061 55.091L32.7966 54.5999C33.3906 54.0054 34.0394 53.4665 34.7346 52.9904L34.8656 52.9006C36.7656 51.5993 38.939 50.7378 41.2237 50.3805L42.2186 50.2249C43.8366 49.9719 45.4815 49.9321 47.1102 50.1068L49.7695 50.392C50.3761 50.4571 50.9644 50.6369 51.502 50.9219L51.8781 51.1212C53.1849 51.8137 54 53.1583 54 54.6212C54 55.6647 53.5837 56.6663 52.8411 57.4097L52.2038 58.0476C51.795 58.4569 51.3301 58.8077 50.8227 59.0898L49.4146 59.8729C46.859 61.2941 44.4845 63.2901 43.301 66.0829C43.2137 66.289 43.138 66.4833 43.0831 66.652C43.0588 66.7266 43.0313 66.8167 43.0105 66.9123L41.1236 69.3574C37.072 74.6076 28.5768 71.4718 29.0164 64.8884Z" fill="#F15919" stroke="#F9E8E8" stroke-width="2"/>
<path d="M43.995 66.4714C43.8292 66.8654 43.727 67.1698 43.727 67.3125L41.6428 70.0175C37.0635 75.9602 27.5206 72.3829 28.0188 64.9103V61.8999C28.3148 59.0813 29.5699 56.448 31.5761 54.4368L32.0938 53.9178C32.7294 53.2807 33.423 52.7036 34.1657 52.1941L34.3105 52.0948C36.34 50.7028 38.6577 49.782 41.0926 49.4006L42.1248 49.239C43.8411 48.9701 45.5856 48.9279 47.3131 49.1135L50.0445 49.4068C50.7502 49.4826 51.4347 49.6924 52.061 50.0248L52.4697 50.2417C54.0271 51.0683 55 52.6819 55 54.4385C55 55.6939 54.5012 56.8984 53.6126 57.7894L52.9532 58.4504C52.4907 58.914 51.9656 59.311 51.3928 59.63L49.9482 60.4346C47.4057 61.8506 45.1211 63.7972 43.995 66.4714Z" stroke="#282828" stroke-width="2"/>
<path d="M36 65C37.6569 65 39 63.6569 39 62C39 60.3431 37.6569 59 36 59C34.3431 59 33 60.3431 33 62C33 63.6569 34.3431 65 36 65Z" fill="#F5F8FA"/>
<path d="M36.5 63C37.3284 63 38 62.3284 38 61.5C38 60.6716 37.3284 60 36.5 60C35.6716 60 35 60.6716 35 61.5C35 62.3284 35.6716 63 36.5 63Z" fill="#BEB8B6"/>
</svg>
