<svg width="76" height="289" viewBox="0 0 76 289" fill="none" xmlns="http://www.w3.org/2000/svg">
<path d="M75.1616 0.97313C75.4229 0.883824 75.5623 0.5996 75.473 0.338297C75.3837 0.0769947 75.0995 -0.0624362 74.8382 0.0268698L75.1616 0.97313ZM1.49991 130.5L1.9992 130.473L1.49991 130.5ZM36.5 179L36.0667 179.25L36.5 179ZM56.562 287.996C56.836 287.962 57.0304 287.712 56.9961 287.438L56.4379 282.973C56.4037 282.699 56.1538 282.504 55.8798 282.539C55.6058 282.573 55.4114 282.823 55.4457 283.097L55.9418 287.066L51.9727 287.562C51.6987 287.596 51.5043 287.846 51.5386 288.12C51.5728 288.394 51.8227 288.589 52.0967 288.554L56.562 287.996ZM56.0204 286.48C55.8062 286.305 55.4912 286.338 55.317 286.552C55.1427 286.766 55.1751 287.081 55.3893 287.255L56.0204 286.48ZM53.8689 285.961C54.0749 286.145 54.391 286.126 54.5748 285.92C54.7587 285.714 54.7407 285.398 54.5346 285.214L53.8689 285.961ZM53.105 283.875C52.9084 283.681 52.5918 283.683 52.3979 283.88C52.2041 284.076 52.2064 284.393 52.4031 284.587L53.105 283.875ZM51.0241 283.155C51.2103 283.359 51.5265 283.373 51.7305 283.187C51.9345 283.001 51.949 282.685 51.7629 282.481L51.0241 283.155ZM50.4804 280.992C50.3063 280.778 49.9915 280.745 49.7771 280.919C49.5627 281.093 49.53 281.408 49.7041 281.622L50.4804 280.992ZM48.4926 280.036C48.6535 280.26 48.9658 280.312 49.1903 280.151C49.4147 279.99 49.4663 279.678 49.3054 279.453L48.4926 280.036ZM48.2193 277.832C48.073 277.598 47.7645 277.527 47.5303 277.673C47.2961 277.82 47.2249 278.128 47.3713 278.362L48.2193 277.832ZM46.361 276.623C46.4918 276.866 46.7951 276.957 47.0382 276.826C47.2814 276.695 47.3724 276.392 47.2415 276.149L46.361 276.623ZM46.3787 274.413C46.2639 274.162 45.9672 274.051 45.7161 274.166C45.4649 274.281 45.3544 274.578 45.4692 274.829L46.3787 274.413ZM44.6915 272.971C44.7899 273.229 45.0788 273.358 45.3369 273.26C45.5949 273.161 45.7243 272.872 45.6259 272.615L44.6915 272.971ZM44.9901 270.775C44.9079 270.512 44.6276 270.365 44.364 270.447C44.1003 270.529 43.9532 270.809 44.0353 271.073L44.9901 270.775ZM43.4958 269.139C43.5622 269.408 43.8333 269.571 44.1014 269.505C44.3694 269.438 44.5329 269.167 44.4665 268.899L43.4958 269.139ZM44.0505 266.993C43.999 266.722 43.7373 266.544 43.466 266.595C43.1947 266.647 43.0165 266.908 43.0681 267.18L44.0505 266.993ZM42.745 265.204C42.7828 265.478 43.0352 265.669 43.3087 265.631C43.5823 265.593 43.7734 265.341 43.7356 265.067L42.745 265.204ZM43.5129 263.121C43.4877 262.846 43.2443 262.644 42.9693 262.669C42.6943 262.694 42.4919 262.937 42.5171 263.212L43.5129 263.121ZM42.3758 261.221C42.3899 261.496 42.6248 261.709 42.9006 261.695C43.1764 261.681 43.3886 261.446 43.3745 261.17L42.3758 261.221ZM43.3105 259.212C43.3063 258.936 43.0791 258.715 42.803 258.719C42.5269 258.724 42.3065 258.951 42.3107 259.227L43.3105 259.212ZM42.3121 257.226C42.3077 257.502 42.528 257.729 42.8041 257.734C43.0802 257.738 43.3076 257.518 43.312 257.242L42.3121 257.226ZM43.3699 255.283C43.3816 255.007 43.1675 254.774 42.8916 254.762C42.6157 254.75 42.3825 254.965 42.3708 255.24L43.3699 255.283ZM42.4783 253.253C42.4604 253.528 42.6692 253.766 42.9448 253.784C43.2203 253.802 43.4582 253.593 43.4762 253.318L42.4783 253.253ZM43.6232 251.349C43.6463 251.073 43.4419 250.832 43.1667 250.809C42.8916 250.786 42.6498 250.99 42.6267 251.265L43.6232 251.349ZM42.8075 249.293C42.7803 249.567 42.9811 249.812 43.2559 249.839C43.5307 249.867 43.7755 249.666 43.8027 249.391L42.8075 249.293ZM44.0096 247.423C44.0401 247.149 43.8423 246.902 43.5678 246.871C43.2934 246.841 43.0462 247.039 43.0157 247.313L44.0096 247.423ZM43.2431 245.346C43.2103 245.62 43.4059 245.869 43.6801 245.902C43.9543 245.935 44.2032 245.739 44.236 245.465L43.2431 245.346ZM44.4774 243.503C44.5119 243.229 44.3177 242.979 44.0437 242.945C43.7698 242.91 43.5197 243.105 43.4852 243.379L44.4774 243.503ZM43.7367 241.41C43.7013 241.684 43.8946 241.935 44.1684 241.97C44.4423 242.006 44.693 241.812 44.7284 241.539L43.7367 241.41ZM44.9827 239.58C45.0184 239.306 44.8253 239.056 44.5514 239.02C44.2776 238.984 44.0267 239.177 43.9911 239.451L44.9827 239.58ZM44.2463 237.482C44.211 237.756 44.4045 238.007 44.6784 238.042C44.9523 238.077 45.2029 237.884 45.2381 237.61L44.2463 237.482ZM45.4869 235.651C45.5212 235.377 45.3268 235.127 45.0528 235.093C44.7788 235.059 44.5289 235.253 44.4946 235.527L45.4869 235.651ZM44.735 233.561C44.7023 233.836 44.8981 234.084 45.1723 234.117C45.4465 234.15 45.6953 233.954 45.728 233.68L44.735 233.561ZM45.9553 231.713C45.9859 231.438 45.7883 231.191 45.5138 231.16C45.2394 231.13 44.9921 231.327 44.9615 231.602L45.9553 231.713ZM45.1715 229.637C45.1435 229.912 45.3435 230.157 45.6182 230.185C45.8929 230.213 46.1383 230.013 46.1663 229.739L45.1715 229.637ZM46.3567 227.763C46.3816 227.488 46.1789 227.245 45.9038 227.22C45.6288 227.195 45.3857 227.398 45.3608 227.673L46.3567 227.763ZM45.5261 225.708C45.5048 225.983 45.7107 226.224 45.986 226.245C46.2613 226.266 46.5018 226.06 46.5231 225.785L45.5261 225.708ZM46.6624 223.801C46.6797 223.526 46.4703 223.288 46.1947 223.271C45.919 223.254 45.6816 223.463 45.6643 223.739L46.6624 223.801ZM45.7719 221.773C45.759 222.049 45.9723 222.283 46.2481 222.296C46.524 222.309 46.758 222.096 46.7708 221.82L45.7719 221.773ZM46.8458 219.829C46.8538 219.553 46.6364 219.323 46.3604 219.315C46.0844 219.307 45.8542 219.524 45.8463 219.8L46.8458 219.829ZM45.8841 217.836C45.8815 218.112 46.1032 218.338 46.3793 218.34C46.6554 218.343 46.8814 218.121 46.8841 217.845L45.8841 217.836ZM46.883 215.85C46.88 215.574 46.6537 215.353 46.3776 215.356C46.1014 215.359 45.88 215.585 45.883 215.861L46.883 215.85ZM45.8406 213.899C45.8496 214.175 46.0806 214.392 46.3566 214.383C46.6326 214.374 46.8491 214.143 46.8401 213.867L45.8406 213.899ZM46.7523 211.871C46.737 211.595 46.501 211.384 46.2253 211.4C45.9496 211.415 45.7385 211.651 45.7538 211.926L46.7523 211.871ZM45.622 209.972C45.6439 210.247 45.8848 210.452 46.1601 210.43C46.4353 210.409 46.6407 210.168 46.6188 209.892L45.622 209.972ZM46.4355 207.901C46.4068 207.626 46.1608 207.427 45.8862 207.455C45.6115 207.484 45.4122 207.73 45.441 208.005L46.4355 207.901ZM45.2124 206.062C45.2482 206.335 45.4992 206.528 45.773 206.493C46.0468 206.457 46.2398 206.206 46.204 205.932L45.2124 206.062ZM45.9183 203.95C45.8753 203.678 45.6193 203.491 45.3465 203.534C45.0737 203.577 44.8875 203.833 44.9306 204.106L45.9183 203.95ZM44.6 202.18C44.6504 202.451 44.9113 202.63 45.1828 202.58C45.4544 202.53 45.6336 202.269 45.5833 201.997L44.6 202.18ZM45.1909 200.033C45.1331 199.763 44.8673 199.591 44.5973 199.649C44.3273 199.707 44.1553 199.973 44.2131 200.243L45.1909 200.033ZM43.7775 198.338C43.8427 198.606 44.1132 198.771 44.3815 198.706C44.6498 198.64 44.8144 198.37 44.7491 198.102L43.7775 198.338ZM44.2485 196.163C44.1757 195.897 43.9007 195.74 43.6343 195.813C43.368 195.886 43.2111 196.161 43.2839 196.427L44.2485 196.163ZM42.7418 194.548C42.822 194.812 43.1013 194.961 43.3655 194.881C43.6297 194.801 43.7789 194.522 43.6986 194.257L42.7418 194.548ZM43.0911 192.354C43.0035 192.092 42.7201 191.951 42.4583 192.038C42.1964 192.126 42.0552 192.409 42.1428 192.671L43.0911 192.354ZM41.4944 190.82C41.5893 191.08 41.8765 191.213 42.1358 191.118C42.3951 191.023 42.5284 190.736 42.4334 190.477L41.4944 190.82ZM41.7232 188.616C41.6212 188.36 41.3304 188.235 41.0738 188.337C40.8172 188.439 40.692 188.729 40.794 188.986L41.7232 188.616ZM40.0399 187.163C40.149 187.417 40.443 187.534 40.6967 187.425C40.9504 187.316 41.0677 187.022 40.9587 186.768L40.0399 187.163ZM40.1525 184.96C40.0367 184.709 39.7396 184.6 39.4889 184.716C39.2382 184.832 39.1289 185.129 39.2446 185.379L40.1525 184.96ZM38.387 183.586C38.5094 183.833 38.8093 183.935 39.0569 183.812C39.3044 183.69 39.4058 183.39 39.2834 183.143L38.387 183.586ZM38.3884 181.39C38.2597 181.146 37.9573 181.052 37.713 181.181C37.4687 181.309 37.375 181.612 37.5037 181.856L38.3884 181.39ZM36.5612 180.121C36.696 180.362 37.0007 180.448 37.2417 180.313C37.4827 180.178 37.5687 179.873 37.4339 179.632L36.5612 180.121ZM36.401 177.898C36.2469 177.669 35.9362 177.608 35.7071 177.762C35.478 177.916 35.4172 178.227 35.5713 178.456L36.401 177.898ZM34.4263 176.958C34.6057 177.167 34.9213 177.192 35.1312 177.013C35.3412 176.833 35.366 176.518 35.1866 176.308L34.4263 176.958ZM33.8303 174.857C33.6338 174.663 33.3173 174.665 33.1232 174.861C32.9292 175.058 32.9312 175.374 33.1278 175.568L33.8303 174.857ZM31.7188 174.264C31.9267 174.446 32.2426 174.425 32.4243 174.217C32.6061 174.009 32.5849 173.693 32.377 173.511L31.7188 174.264ZM30.8723 172.253C30.657 172.08 30.3423 172.115 30.1693 172.33C29.9964 172.545 30.0306 172.86 30.2459 173.033L30.8723 172.253ZM28.723 171.845C28.9428 172.012 29.2565 171.969 29.4236 171.75C29.5907 171.53 29.548 171.216 29.3281 171.049L28.723 171.845ZM27.7617 169.879C27.5393 169.716 27.2263 169.763 27.0626 169.986C26.899 170.208 26.9466 170.521 27.169 170.685L27.7617 169.879ZM25.5982 169.538C25.8217 169.701 26.1344 169.651 26.2966 169.428C26.4589 169.204 26.4093 168.891 26.1859 168.729L25.5982 169.538ZM24.6113 167.585C24.3881 167.423 24.0754 167.472 23.9128 167.695C23.7502 167.918 23.7993 168.231 24.0225 168.394L24.6113 167.585ZM22.452 167.241C22.6738 167.405 22.987 167.359 23.1514 167.137C23.3158 166.915 23.2692 166.602 23.0473 166.438L22.452 167.241ZM21.4979 165.274C21.2783 165.106 20.9646 165.148 20.7971 165.368C20.6296 165.588 20.6719 165.901 20.8914 166.069L21.4979 165.274ZM19.3481 164.869C19.5645 165.041 19.879 165.005 20.0506 164.788C20.2222 164.572 20.186 164.257 19.9697 164.086L19.3481 164.869ZM18.4693 162.867C18.2571 162.69 17.9418 162.719 17.7651 162.931C17.5883 163.143 17.617 163.458 17.8291 163.635L18.4693 162.867ZM16.3412 162.36C16.5482 162.542 16.8642 162.523 17.0469 162.316C17.2296 162.109 17.2099 161.793 17.0028 161.61L16.3412 162.36ZM15.5768 160.311C15.3758 160.121 15.0593 160.131 14.87 160.332C14.6807 160.533 14.6902 160.849 14.8912 161.039L15.5768 160.311ZM13.486 159.667C13.6801 159.864 13.9967 159.866 14.1931 159.672C14.3896 159.478 14.3916 159.161 14.1975 158.965L13.486 159.667ZM12.8713 157.568C12.6852 157.365 12.3689 157.35 12.1649 157.536C11.961 157.722 11.9465 158.039 12.1326 158.243L12.8713 157.568ZM10.8378 156.762C11.0151 156.974 11.3305 157.002 11.5421 156.825C11.7538 156.647 11.7817 156.332 11.6044 156.12L10.8378 156.762ZM10.4027 154.619C10.2351 154.399 9.92131 154.357 9.70186 154.525C9.48241 154.693 9.44039 155.006 9.60801 155.226L10.4027 154.619ZM8.44936 153.633C8.6065 153.86 8.91796 153.917 9.14504 153.76C9.37211 153.603 9.42881 153.291 9.27168 153.064L8.44936 153.633ZM8.21605 151.457C8.07009 151.223 7.76173 151.151 7.52732 151.297C7.29291 151.443 7.2212 151.751 7.36716 151.986L8.21605 151.457ZM6.36732 150.288C6.50157 150.53 6.80602 150.617 7.04733 150.482C7.28864 150.348 7.37543 150.044 7.24118 149.802L6.36732 150.288ZM6.35057 148.104C6.22839 147.856 5.9286 147.755 5.68095 147.877C5.43331 147.999 5.33159 148.299 5.45377 148.546L6.35057 148.104ZM4.62723 146.762C4.7371 147.015 5.03155 147.131 5.28489 147.022C5.53823 146.912 5.65454 146.617 5.54467 146.364L4.62723 146.762ZM4.82401 144.585C4.7265 144.327 4.43802 144.197 4.17967 144.294C3.92131 144.392 3.79092 144.68 3.88842 144.938L4.82401 144.585ZM3.23687 143.08C3.32208 143.343 3.6041 143.486 3.86676 143.401C4.12943 143.316 4.27327 143.034 4.18806 142.771L3.23687 143.08ZM3.63538 140.924C3.56225 140.658 3.2871 140.501 3.02082 140.574C2.75453 140.648 2.59796 140.923 2.67109 141.189L3.63538 140.924ZM2.19237 139.283C2.25381 139.552 2.52186 139.72 2.79108 139.659C3.0603 139.597 3.22875 139.329 3.16731 139.06L2.19237 139.283ZM2.78006 137.183C2.72986 136.911 2.46904 136.732 2.1975 136.782C1.92596 136.832 1.74653 137.093 1.79673 137.365L2.78006 137.183ZM1.47806 135.425C1.51747 135.698 1.77098 135.888 2.0443 135.848C2.31762 135.809 2.50724 135.555 2.46783 135.282L1.47806 135.425ZM2.22754 133.357C2.19846 133.082 1.95227 132.883 1.67766 132.912C1.40306 132.941 1.20402 133.187 1.2331 133.462L2.22754 133.357ZM1.0623 131.522C1.08175 131.798 1.32082 132.005 1.59628 131.986C1.87173 131.966 2.07927 131.727 2.05982 131.452L1.0623 131.522ZM1.94795 129.463C1.9347 129.187 1.70035 128.974 1.42453 128.988C1.14871 129.001 0.935849 129.235 0.949101 129.511L1.94795 129.463ZM0.862954 127.493C0.873247 127.769 1.10529 127.984 1.38124 127.974C1.65719 127.963 1.87255 127.731 1.86226 127.455L0.862954 127.493ZM1.79877 125.466C1.79145 125.19 1.56174 124.972 1.2857 124.979C1.00965 124.986 0.791802 125.216 0.799116 125.492L1.79877 125.466ZM0.757318 123.509C0.761635 123.785 0.988965 124.006 1.26507 124.001C1.54118 123.997 1.76151 123.77 1.7572 123.494L0.757318 123.509ZM1.73706 121.491C1.73583 121.215 1.51098 120.992 1.23484 120.994C0.958704 120.995 0.735844 121.22 0.737073 121.496L1.73706 121.491ZM0.739529 119.48C0.737619 119.756 0.959924 119.982 1.23606 119.984C1.5122 119.986 1.7376 119.763 1.7395 119.487L0.739529 119.48ZM1.76455 117.502C1.76961 117.226 1.5499 116.998 1.2738 116.993C0.997708 116.987 0.769782 117.207 0.764718 117.483L1.76455 117.502ZM0.812384 115.504C0.804147 115.78 1.02123 116.01 1.29725 116.018C1.57327 116.027 1.8037 115.809 1.81194 115.533L0.812384 115.504ZM1.88406 113.519C1.89559 113.243 1.68128 113.01 1.40537 112.999C1.12947 112.987 0.896463 113.201 0.884932 113.477L1.88406 113.519ZM0.980824 111.471C0.965984 111.747 1.17749 111.982 1.45323 111.997C1.72897 112.012 1.96454 111.8 1.97938 111.525L0.980824 111.471ZM2.09757 109.55C2.11573 109.274 1.90708 109.036 1.63153 109.018C1.35599 109 1.11789 109.208 1.09973 109.484L2.09757 109.55ZM1.24369 107.487C1.22214 107.762 1.42785 108.003 1.70315 108.024C1.97845 108.046 2.21909 107.84 2.24064 107.565L1.24369 107.487ZM2.40969 105.566C2.43469 105.291 2.23203 105.048 1.95702 105.023C1.68201 104.998 1.4388 105.2 1.4138 105.475L2.40969 105.566ZM1.6074 103.485C1.57893 103.76 1.77851 104.006 2.05318 104.034C2.32785 104.063 2.5736 103.863 2.60207 103.588L1.6074 103.485ZM2.8176 101.63C2.84955 101.355 2.65309 101.107 2.37881 101.075C2.10452 101.043 1.85627 101.24 1.82432 101.514L2.8176 101.63ZM2.07188 99.5031C2.03634 99.777 2.22952 100.028 2.50337 100.063C2.77721 100.099 3.02802 99.9057 3.06356 99.6318L2.07188 99.5031ZM3.33319 97.6561C3.37233 97.3827 3.18246 97.1294 2.90911 97.0903C2.63576 97.0511 2.38243 97.241 2.34329 97.5144L3.33319 97.6561ZM2.63813 95.5476C2.59539 95.8204 2.7819 96.0762 3.05471 96.119C3.32753 96.1617 3.58334 95.9752 3.62608 95.7024L2.63813 95.5476ZM3.94888 93.7293C3.99531 93.4571 3.81227 93.1988 3.54006 93.1524C3.26785 93.1059 3.00954 93.289 2.96311 93.5612L3.94888 93.7293ZM3.31506 91.5794C3.26491 91.851 3.44439 92.1118 3.71595 92.1619C3.9875 92.2121 4.24828 92.0326 4.29843 91.761L3.31506 91.5794ZM4.67141 89.8159C4.72528 89.5451 4.54939 89.2819 4.27855 89.228C4.00771 89.1742 3.74449 89.3501 3.69062 89.6209L4.67141 89.8159ZM4.09502 87.6589C4.03739 87.9289 4.2096 88.1946 4.47966 88.2522C4.74973 88.3099 5.01537 88.1376 5.073 87.8676L4.09502 87.6589ZM5.50471 85.9124C5.56616 85.6432 5.39774 85.3752 5.12852 85.3137C4.8593 85.2522 4.59124 85.4207 4.52979 85.6899L5.50471 85.9124ZM4.98818 83.7453C4.92292 84.0136 5.08753 84.284 5.35584 84.3493C5.62416 84.4145 5.89459 84.2499 5.95985 83.9816L4.98818 83.7453ZM6.4425 82.0574C6.51161 81.79 6.35089 81.5173 6.08353 81.4481C5.81618 81.379 5.54342 81.5398 5.47432 81.8071L6.4425 82.0574ZM5.99365 79.8567C5.92065 80.123 6.07736 80.3981 6.34368 80.4711C6.60999 80.5441 6.88507 80.3874 6.95807 80.1211L5.99365 79.8567ZM7.4969 78.2103C7.5738 77.9451 7.42113 77.6678 7.15591 77.5909C6.89069 77.514 6.61335 77.6666 6.53645 77.9319L7.4969 78.2103ZM7.10658 76.0181C7.02579 76.2822 7.17435 76.5617 7.43841 76.6425C7.70247 76.7233 7.98203 76.5748 8.06282 76.3107L7.10658 76.0181ZM8.66339 74.3992C8.74814 74.1364 8.60379 73.8546 8.34098 73.7699C8.07816 73.6851 7.7964 73.8295 7.71165 74.0923L8.66339 74.3992ZM8.33984 72.1932C8.25115 72.4547 8.39125 72.7386 8.65276 72.8273C8.91428 72.9159 9.19817 72.7758 9.28686 72.5143L8.33984 72.1932ZM9.93806 70.6408C10.0307 70.3807 9.8949 70.0947 9.63476 70.0021C9.37461 69.9094 9.08863 70.0452 8.996 70.3054L9.93806 70.6408ZM9.68735 68.4101C9.59072 68.6687 9.7221 68.9568 9.98078 69.0534C10.2395 69.15 10.5275 69.0187 10.6241 68.76L9.68735 68.4101ZM11.3325 66.9069C11.4331 66.6497 11.3062 66.3597 11.049 66.2591C10.7918 66.1585 10.5018 66.2854 10.4012 66.5426L11.3325 66.9069ZM11.1452 64.6831C11.0406 64.9387 11.163 65.2306 11.4186 65.3352C11.6742 65.4397 11.9662 65.3173 12.0707 65.0617L11.1452 64.6831ZM12.8421 63.2174C12.9507 62.9634 12.8329 62.6696 12.579 62.5611C12.325 62.4525 12.0312 62.5703 11.9227 62.8243L12.8421 63.2174ZM12.7219 60.9944C12.6094 61.2466 12.7226 61.5422 12.9748 61.6547C13.227 61.7673 13.5226 61.654 13.6351 61.4018L12.7219 60.9944ZM14.4616 59.588C14.5781 59.3376 14.4696 59.0402 14.2192 58.9238C13.9688 58.8073 13.6714 58.9158 13.5549 59.1662L14.4616 59.588ZM14.4177 57.3497C14.2973 57.5981 14.401 57.8972 14.6495 58.0177C14.898 58.1381 15.1971 58.0344 15.3176 57.7859L14.4177 57.3497ZM16.1941 56.0137C16.3184 55.7671 16.2194 55.4664 15.9729 55.3421C15.7263 55.2177 15.4256 55.3167 15.3012 55.5632L16.1941 56.0137ZM16.2242 53.7698C16.0959 54.0143 16.1901 54.3166 16.4346 54.4449C16.6791 54.5733 16.9813 54.4791 17.1097 54.2346L16.2242 53.7698ZM18.0486 52.4802C18.1809 52.2378 18.0916 51.9341 17.8492 51.8018C17.6068 51.6696 17.303 51.7589 17.1708 52.0013L18.0486 52.4802ZM18.141 50.2567C18.0048 50.4969 18.0892 50.802 18.3295 50.9382C18.5697 51.0743 18.8748 50.9899 19.011 50.7497L18.141 50.2567ZM20.012 49.0163C20.1521 48.7783 20.0727 48.4719 19.8347 48.3318C19.5967 48.1918 19.2902 48.2712 19.1502 48.5092L20.012 49.0163ZM20.1782 46.7942C20.0343 47.0299 20.1087 47.3376 20.3444 47.4815C20.5801 47.6254 20.8878 47.551 21.0317 47.3153L20.1782 46.7942ZM22.0834 45.6239C22.2311 45.3906 22.1618 45.0817 21.9285 44.934C21.6952 44.7863 21.3863 44.8557 21.2385 45.089L22.0834 45.6239ZM22.328 43.3993C22.1764 43.6302 22.2407 43.9401 22.4716 44.0917C22.7024 44.2432 23.0124 44.1789 23.1639 43.9481L22.328 43.3993ZM24.2615 42.3054C24.4168 42.0771 24.3576 41.7661 24.1293 41.6108C23.9009 41.4555 23.5899 41.5147 23.4346 41.7431L24.2615 42.3054ZM24.5848 40.0816C24.4257 40.3074 24.4798 40.6193 24.7055 40.7783C24.9313 40.9374 25.2432 40.8833 25.4023 40.6576L24.5848 40.0816ZM26.5588 39.0445C26.7216 38.8214 26.6727 38.5086 26.4496 38.3459C26.2265 38.1831 25.9137 38.232 25.751 38.4551L26.5588 39.0445ZM26.9471 36.8437C26.7807 37.064 26.8244 37.3776 27.0448 37.544C27.2652 37.7104 27.5787 37.6667 27.7451 37.4463L26.9471 36.8437ZM28.9599 35.8652C29.13 35.6476 29.0914 35.3334 28.8739 35.1634C28.6563 34.9933 28.3421 35.0318 28.172 35.2494L28.9599 35.8652ZM29.4132 33.6882C29.2395 33.9029 29.2729 34.2178 29.4876 34.3914C29.7023 34.565 30.0172 34.5317 30.1908 34.317L29.4132 33.6882ZM31.4628 32.7704C31.64 32.5586 31.612 32.2433 31.4002 32.0661C31.1884 31.8889 30.8731 31.9169 30.6959 32.1287L31.4628 32.7704ZM31.9908 30.6069C31.8101 30.8157 31.8329 31.1315 32.0417 31.3122C32.2505 31.4929 32.5663 31.4701 32.747 31.2613L31.9908 30.6069ZM34.0656 29.7629C34.2498 29.5572 34.2323 29.2411 34.0265 29.0569C33.8208 28.8727 33.5047 28.8902 33.3205 29.096L34.0656 29.7629ZM34.6705 27.613C34.4829 27.8156 34.4951 28.132 34.6977 28.3196C34.9003 28.5072 35.2167 28.495 35.4043 28.2923L34.6705 27.613ZM36.7662 26.8456C36.9572 26.6462 36.9503 26.3297 36.7509 26.1387C36.5514 25.9477 36.2349 25.9546 36.0439 26.1541L36.7662 26.8456ZM37.4477 24.7125C37.2533 24.9087 37.2549 25.2253 37.4511 25.4196C37.6473 25.6139 37.9639 25.6124 38.1582 25.4161L37.4477 24.7125ZM39.5626 24.0217C39.7602 23.8288 39.764 23.5122 39.5711 23.3146C39.3782 23.117 39.0616 23.1132 38.864 23.3061L39.5626 24.0217ZM40.3202 21.9085C40.1194 22.098 40.1101 22.4145 40.2997 22.6153C40.4892 22.8162 40.8056 22.8254 41.0065 22.6359L40.3202 21.9085ZM42.455 21.2922C42.6591 21.1061 42.6736 20.7899 42.4875 20.5859C42.3015 20.3818 41.9852 20.3673 41.7812 20.5533L42.455 21.2922ZM43.2861 19.2046C43.0788 19.3871 43.0588 19.703 43.2413 19.9103C43.4238 20.1175 43.7398 20.1375 43.947 19.955L43.2861 19.2046ZM45.4433 18.6598C45.6536 18.4808 45.6791 18.1653 45.5001 17.9549C45.3212 17.7446 45.0056 17.7192 44.7953 17.8981L45.4433 18.6598ZM46.3432 16.6044C46.1298 16.7796 46.0988 17.0947 46.2741 17.3081C46.4493 17.5215 46.7643 17.5525 46.9778 17.3773L46.3432 16.6044ZM48.5197 16.1337C48.7361 15.9622 48.7726 15.6478 48.6011 15.4313C48.4296 15.2149 48.1152 15.1784 47.8987 15.3499L48.5197 16.1337ZM49.4898 14.1123C49.2704 14.2799 49.2283 14.5936 49.3959 14.8131C49.5635 15.0326 49.8773 15.0746 50.0967 14.907L49.4898 14.1123ZM51.6818 13.7189C51.9042 13.5553 51.9519 13.2423 51.7882 13.0199C51.6246 12.7974 51.3116 12.7498 51.0892 12.9134L51.6818 13.7189ZM52.7242 11.7334C52.4988 11.8929 52.4454 12.205 52.605 12.4303C52.7645 12.6557 53.0766 12.7091 53.302 12.5495L52.7242 11.7334ZM54.9271 11.4213C55.1553 11.2659 55.2144 10.9549 55.059 10.7266C54.9037 10.4983 54.5926 10.4392 54.3644 10.5946L54.9271 11.4213ZM56.0444 9.474C55.8133 9.62505 55.7483 9.93489 55.8993 10.1661C56.0504 10.3972 56.3602 10.4622 56.5914 10.3112L56.0444 9.474ZM58.2526 9.24809C58.4867 9.10148 58.5575 8.79293 58.4109 8.55892C58.2643 8.32491 57.9557 8.25406 57.7217 8.40067L58.2526 9.24809ZM59.4486 7.34237C59.2117 7.4843 59.1348 7.79139 59.2767 8.02826C59.4186 8.26514 59.7257 8.3421 59.9626 8.20017L59.4486 7.34237ZM61.6678 7.20152C61.9075 7.06438 61.9906 6.75891 61.8535 6.51923C61.7164 6.27954 61.4109 6.1964 61.1712 6.33353L61.6678 7.20152ZM62.9339 5.34942C62.6914 5.48147 62.6018 5.78512 62.7339 6.02764C62.8659 6.27017 63.1696 6.35972 63.4121 6.22767L62.9339 5.34942ZM65.1673 5.29647C65.4127 5.16975 65.5088 4.86812 65.3821 4.62278C65.2554 4.37743 64.9538 4.28127 64.7084 4.408L65.1673 5.29647ZM66.4955 3.5103C66.2473 3.63142 66.1443 3.93078 66.2654 4.17894C66.3866 4.42711 66.6859 4.5301 66.9341 4.40899L66.4955 3.5103ZM68.7421 3.55338C68.9931 3.43833 69.1034 3.14156 68.9883 2.89053C68.8733 2.63949 68.5765 2.52925 68.3255 2.6443L68.7421 3.55338ZM70.158 1.83248C69.9041 1.94104 69.7862 2.23488 69.8948 2.48879C70.0034 2.74269 70.2972 2.86052 70.5511 2.75195L70.158 1.83248ZM72.3798 1.99945C72.6367 1.89797 72.7626 1.60751 72.6611 1.35069C72.5596 1.09387 72.2692 0.967943 72.0123 1.06942L72.3798 1.99945ZM73.909 0.352945C73.6492 0.446473 73.5144 0.732919 73.6079 0.992741C73.7015 1.25256 73.9879 1.38737 74.2477 1.29384L73.909 0.352945ZM56.8069 287.105C56.5398 286.898 56.2776 286.689 56.0204 286.48L55.3893 287.255C55.6523 287.469 55.9202 287.682 56.193 287.895L56.8069 287.105ZM54.5346 285.214C54.0378 284.771 53.5615 284.325 53.105 283.875L52.4031 284.587C52.8716 285.049 53.36 285.507 53.8689 285.961L54.5346 285.214ZM51.7629 282.481C51.3136 281.988 50.8865 281.492 50.4804 280.992L49.7041 281.622C50.1224 282.137 50.5621 282.648 51.0241 283.155L51.7629 282.481ZM49.3054 279.453C48.9214 278.917 48.5597 278.377 48.2193 277.832L47.3713 278.362C47.7229 278.925 48.0963 279.483 48.4926 280.036L49.3054 279.453ZM47.2415 276.149C46.9326 275.575 46.6454 274.996 46.3787 274.413L45.4692 274.829C45.7449 275.432 46.0417 276.03 46.361 276.623L47.2415 276.149ZM45.6259 272.615C45.3942 272.007 45.1826 271.394 44.9901 270.775L44.0353 271.073C44.2339 271.71 44.4522 272.343 44.6915 272.971L45.6259 272.615ZM44.4665 268.899C44.3104 268.269 44.1722 267.634 44.0505 266.993L43.0681 267.18C43.193 267.838 43.3352 268.491 43.4958 269.139L44.4665 268.899ZM43.7356 265.067C43.6468 264.424 43.5729 263.775 43.5129 263.121L42.5171 263.212C42.5784 263.881 42.654 264.545 42.745 265.204L43.7356 265.067ZM43.3745 261.17C43.3415 260.522 43.3206 259.869 43.3105 259.212L42.3107 259.227C42.3208 259.896 42.3422 260.56 42.3758 261.221L43.3745 261.17ZM43.312 257.242C43.3223 256.593 43.342 255.94 43.3699 255.283L42.3708 255.24C42.3425 255.906 42.3226 256.568 42.3121 257.226L43.312 257.242ZM43.4762 253.318C43.5185 252.666 43.5679 252.009 43.6232 251.349L42.6267 251.265C42.5709 251.931 42.5211 252.594 42.4783 253.253L43.4762 253.318ZM43.8027 249.391C43.8672 248.739 43.9365 248.083 44.0096 247.423L43.0157 247.313C42.9422 247.976 42.8725 248.636 42.8075 249.293L43.8027 249.391ZM44.236 245.465C44.3139 244.815 44.3946 244.161 44.4774 243.503L43.4852 243.379C43.4023 244.038 43.3213 244.694 43.2431 245.346L44.236 245.465ZM44.7284 241.539C44.8123 240.889 44.8973 240.237 44.9827 239.58L43.9911 239.451C43.9057 240.107 43.8206 240.761 43.7367 241.41L44.7284 241.539ZM45.2381 237.61C45.3217 236.96 45.4049 236.307 45.4869 235.651L44.4946 235.527C44.4128 236.182 44.3297 236.833 44.2463 237.482L45.2381 237.61ZM45.728 233.68C45.8058 233.027 45.8818 232.372 45.9553 231.713L44.9615 231.602C44.8883 232.258 44.8126 232.911 44.735 233.561L45.728 233.68ZM46.1663 229.739C46.2331 229.083 46.2968 228.425 46.3567 227.763L45.3608 227.673C45.3013 228.33 45.2379 228.985 45.1715 229.637L46.1663 229.739ZM46.5231 225.785C46.5741 225.127 46.6207 224.465 46.6624 223.801L45.6643 223.739C45.623 224.398 45.5767 225.054 45.5261 225.708L46.5231 225.785ZM46.7708 221.82C46.8015 221.159 46.8267 220.495 46.8458 219.829L45.8463 219.8C45.8273 220.461 45.8023 221.118 45.7719 221.773L46.7708 221.82ZM46.8841 217.845C46.8904 217.183 46.8903 216.518 46.883 215.85L45.883 215.861C45.8903 216.522 45.8904 217.18 45.8841 217.836L46.8841 217.845ZM46.8401 213.867C46.8185 213.204 46.7894 212.539 46.7523 211.871L45.7538 211.926C45.7905 212.586 45.8193 213.244 45.8406 213.899L46.8401 213.867ZM46.6188 209.892C46.5662 209.231 46.5053 208.567 46.4355 207.901L45.441 208.005C45.5099 208.663 45.57 209.318 45.622 209.972L46.6188 209.892ZM46.204 205.932C46.118 205.274 46.0229 204.613 45.9183 203.95L44.9306 204.106C45.0337 204.76 45.1275 205.412 45.2124 206.062L46.204 205.932ZM45.5833 201.997C45.4623 201.345 45.3316 200.69 45.1909 200.033L44.2131 200.243C44.3519 200.891 44.4807 201.536 44.6 202.18L45.5833 201.997ZM44.7491 198.102C44.5924 197.457 44.4257 196.811 44.2485 196.163L43.2839 196.427C43.4586 197.066 43.6229 197.703 43.7775 198.338L44.7491 198.102ZM43.6986 194.257C43.5065 193.625 43.3041 192.99 43.0911 192.354L42.1428 192.671C42.3528 193.299 42.5524 193.924 42.7418 194.548L43.6986 194.257ZM42.4334 190.477C42.2071 189.858 41.9705 189.238 41.7232 188.616L40.794 188.986C41.0379 189.599 41.2712 190.211 41.4944 190.82L42.4334 190.477ZM40.9587 186.768C40.7002 186.167 40.4316 185.564 40.1525 184.96L39.2446 185.379C39.52 185.976 39.785 186.57 40.0399 187.163L40.9587 186.768ZM39.2834 183.143C38.9951 182.56 38.6969 181.975 38.3884 181.39L37.5037 181.856C37.8082 182.434 38.1025 183.011 38.387 183.586L39.2834 183.143ZM37.4339 179.632C37.2696 179.339 37.1028 179.045 36.9332 178.75L36.0667 179.25C36.2342 179.54 36.399 179.831 36.5612 180.121L37.4339 179.632ZM36.9332 178.75C36.767 178.462 36.5893 178.178 36.401 177.898L35.5713 178.456C35.7473 178.718 35.9126 178.982 36.0667 179.25L36.9332 178.75ZM35.1866 176.308C34.7652 175.815 34.3116 175.332 33.8303 174.857L33.1278 175.568C33.5918 176.027 34.0257 176.489 34.4263 176.958L35.1866 176.308ZM32.377 173.511C31.8945 173.089 31.3918 172.671 30.8723 172.253L30.2459 173.033C30.7566 173.443 31.2484 173.853 31.7188 174.264L32.377 173.511ZM29.3281 171.049C28.8176 170.661 28.2946 170.272 27.7617 169.879L27.169 170.685C27.6991 171.075 28.2178 171.461 28.723 171.845L29.3281 171.049ZM26.1859 168.729C25.6671 168.352 25.1421 167.972 24.6113 167.585L24.0225 168.394C24.5541 168.781 25.0806 169.162 25.5982 169.538L26.1859 168.729ZM23.0473 166.438C22.5332 166.057 22.0162 165.669 21.4979 165.274L20.8914 166.069C21.4141 166.468 21.9349 166.858 22.452 167.241L23.0473 166.438ZM19.9697 164.086C19.4687 163.688 18.9681 163.282 18.4693 162.867L17.8291 163.635C18.3346 164.056 18.8415 164.467 19.3481 164.869L19.9697 164.086ZM17.0028 161.61C16.5239 161.187 16.0481 160.755 15.5768 160.311L14.8912 161.039C15.3709 161.49 15.8547 161.93 16.3412 162.36L17.0028 161.61ZM14.1975 158.965C13.7495 158.511 13.307 158.046 12.8713 157.568L12.1326 158.243C12.5777 158.73 13.0292 159.205 13.486 159.667L14.1975 158.965ZM11.6044 156.12C11.196 155.633 10.7951 155.132 10.4027 154.619L9.60801 155.226C10.0098 155.752 10.4201 156.264 10.8378 156.762L11.6044 156.12ZM9.27168 153.064C8.91046 152.542 8.55825 152.007 8.21605 151.457L7.36716 151.986C7.71807 152.549 8.07916 153.098 8.44936 153.633L9.27168 153.064ZM7.24118 149.802C6.93399 149.25 6.63682 148.684 6.35057 148.104L5.45377 148.546C5.74739 149.142 6.05222 149.722 6.36732 150.288L7.24118 149.802ZM5.54467 146.364C5.29356 145.785 5.05308 145.192 4.82401 144.585L3.88842 144.938C4.1232 145.56 4.36973 146.168 4.62723 146.762L5.54467 146.364ZM4.18806 142.771C3.9927 142.169 3.80825 141.554 3.63538 140.924L2.67109 141.189C2.84798 141.833 3.03679 142.463 3.23687 143.08L4.18806 142.771ZM3.16731 139.06C3.02741 138.447 2.89814 137.821 2.78006 137.183L1.79673 137.365C1.9173 138.017 2.04936 138.656 2.19237 139.283L3.16731 139.06ZM2.46783 135.282C2.37705 134.652 2.2968 134.011 2.22754 133.357L1.2331 133.462C1.30366 134.128 1.38547 134.783 1.47806 135.425L2.46783 135.282ZM2.05982 131.452C2.037 131.129 2.01678 130.802 1.9992 130.473L1.00062 130.527C1.0185 130.861 1.03908 131.193 1.0623 131.522L2.05982 131.452ZM1.9992 130.473C1.98118 130.136 1.9641 129.799 1.94795 129.463L0.949101 129.511C0.965333 129.849 0.982506 130.187 1.00062 130.527L1.9992 130.473ZM1.86226 127.455C1.83741 126.789 1.81626 126.126 1.79877 125.466L0.799116 125.492C0.816707 126.156 0.837971 126.823 0.862954 127.493L1.86226 127.455ZM1.7572 123.494C1.74671 122.823 1.74002 122.156 1.73706 121.491L0.737073 121.496C0.740046 122.164 0.746778 122.835 0.757318 123.509L1.7572 123.494ZM1.7395 119.487C1.7441 118.822 1.75247 118.16 1.76455 117.502L0.764718 117.483C0.752566 118.146 0.744153 118.811 0.739529 119.48L1.7395 119.487ZM1.81194 115.533C1.83208 114.859 1.85613 114.187 1.88406 113.519L0.884932 113.477C0.85684 114.149 0.832639 114.825 0.812384 115.504L1.81194 115.533ZM1.97938 111.525C2.01498 110.863 2.0544 110.205 2.09757 109.55L1.09973 109.484C1.0563 110.143 1.01664 110.805 0.980824 111.471L1.97938 111.525ZM2.24064 107.565C2.29306 106.895 2.34943 106.229 2.40969 105.566L1.4138 105.475C1.35316 106.142 1.29643 106.813 1.24369 107.487L2.24064 107.565ZM2.60207 103.588C2.6701 102.932 2.74196 102.279 2.8176 101.63L1.82432 101.514C1.74819 102.168 1.67586 102.825 1.6074 103.485L2.60207 103.588ZM3.06356 99.6318C3.14952 98.9696 3.23941 98.311 3.33319 97.6561L2.34329 97.5144C2.24889 98.1736 2.1584 98.8365 2.07188 99.5031L3.06356 99.6318ZM3.62608 95.7024C3.72973 95.0409 3.83735 94.3832 3.94888 93.7293L2.96311 93.5612C2.85083 94.2195 2.74248 94.8816 2.63813 95.5476L3.62608 95.7024ZM4.29843 91.761C4.41888 91.1088 4.54323 90.4605 4.67141 89.8159L3.69062 89.6209C3.56155 90.2699 3.43634 90.9227 3.31506 91.5794L4.29843 91.761ZM5.073 87.8676C5.21295 87.2118 5.35688 86.5601 5.50471 85.9124L4.52979 85.6899C4.3809 86.3422 4.23595 86.9985 4.09502 87.6589L5.073 87.8676ZM5.95985 83.9816C6.11687 83.3361 6.27778 82.6947 6.4425 82.0574L5.47432 81.8071C5.3084 82.4491 5.14633 83.0951 4.98818 83.7453L5.95985 83.9816ZM6.95807 80.1211C7.13384 79.4799 7.31348 78.843 7.4969 78.2103L6.53645 77.9319C6.35167 78.5692 6.17071 79.2109 5.99365 79.8567L6.95807 80.1211ZM8.06282 76.3107C8.25913 75.6691 8.45935 75.0319 8.66339 74.3992L7.71165 74.0923C7.50608 74.7298 7.30435 75.3717 7.10658 76.0181L8.06282 76.3107ZM9.28686 72.5143C9.50017 71.8853 9.71727 71.2608 9.93806 70.6408L8.996 70.3054C8.77353 70.9301 8.55477 71.5594 8.33984 72.1932L9.28686 72.5143ZM10.6241 68.76C10.8566 68.1376 11.0927 67.52 11.3325 66.9069L10.4012 66.5426C10.1596 67.1605 9.92159 67.7829 9.68735 68.4101L10.6241 68.76ZM12.0707 65.0617C12.3242 64.4421 12.5814 63.8273 12.8421 63.2174L11.9227 62.8243C11.6598 63.439 11.4006 64.0586 11.1452 64.6831L12.0707 65.0617ZM13.6351 61.4018C13.9071 60.7923 14.1826 60.1877 14.4616 59.588L13.5549 59.1662C13.2737 59.7706 12.996 60.3801 12.7219 60.9944L13.6351 61.4018ZM15.3176 57.7859C15.6063 57.1902 15.8985 56.5994 16.1941 56.0137L15.3012 55.5632C15.0034 56.1537 14.7088 56.7492 14.4177 57.3497L15.3176 57.7859ZM17.1097 54.2346C17.4193 53.6446 17.7324 53.0598 18.0486 52.4802L17.1708 52.0013C16.852 52.5856 16.5364 53.1751 16.2242 53.7698L17.1097 54.2346ZM19.011 50.7497C19.3415 50.1665 19.6752 49.5887 20.012 49.0163L19.1502 48.5092C18.8106 49.0862 18.4741 49.6687 18.141 50.2567L19.011 50.7497ZM21.0317 47.3153C21.3793 46.746 21.7299 46.1822 22.0834 45.6239L21.2385 45.089C20.8821 45.6518 20.5286 46.2202 20.1782 46.7942L21.0317 47.3153ZM23.1639 43.9481C23.527 43.395 23.893 42.8474 24.2615 42.3054L23.4346 41.7431C23.063 42.2896 22.6941 42.8416 22.328 43.3993L23.1639 43.9481ZM25.4023 40.6576C25.7852 40.1141 26.1708 39.5764 26.5588 39.0445L25.751 38.4551C25.3597 38.9915 24.9709 39.5336 24.5848 40.0816L25.4023 40.6576ZM27.7451 37.4463C28.1477 36.9133 28.5527 36.3862 28.9599 35.8652L28.172 35.2494C27.7614 35.7748 27.353 36.3062 26.9471 36.8437L27.7451 37.4463ZM30.1908 34.317C30.6127 33.7952 31.0367 33.2797 31.4628 32.7704L30.6959 32.1287C30.2662 32.6423 29.8386 33.1621 29.4132 33.6882L30.1908 34.317ZM32.747 31.2613C33.1847 30.7554 33.6243 30.256 34.0656 29.7629L33.3205 29.096C32.8755 29.5932 32.4322 30.0968 31.9908 30.6069L32.747 31.2613ZM35.4043 28.2923C35.8568 27.8035 36.3108 27.3213 36.7662 26.8456L36.0439 26.1541C35.5847 26.6338 35.1268 27.1201 34.6705 27.613L35.4043 28.2923ZM38.1582 25.4161C38.6252 24.9446 39.0934 24.4798 39.5626 24.0217L38.864 23.3061C38.3908 23.7681 37.9186 24.2369 37.4477 24.7125L38.1582 25.4161ZM41.0065 22.6359C41.4886 22.181 41.9715 21.7331 42.455 21.2922L41.7812 20.5533C41.2936 20.998 40.8065 21.4498 40.3202 21.9085L41.0065 22.6359ZM43.947 19.955C44.4455 19.5159 44.9444 19.0842 45.4433 18.6598L44.7953 17.8981C44.292 18.3262 43.7889 18.7617 43.2861 19.2046L43.947 19.955ZM46.9778 17.3773C47.492 16.9551 48.0061 16.5406 48.5197 16.1337L47.8987 15.3499C47.3806 15.7603 46.862 16.1785 46.3432 16.6044L46.9778 17.3773ZM50.0967 14.907C50.626 14.5029 51.1545 14.1069 51.6818 13.7189L51.0892 12.9134C50.5571 13.3049 50.0239 13.7045 49.4898 14.1123L50.0967 14.907ZM53.302 12.5495C53.8453 12.1649 54.3872 11.7888 54.9271 11.4213L54.3644 10.5946C53.8194 10.9656 53.2725 11.3451 52.7242 11.7334L53.302 12.5495ZM56.5914 10.3112C57.1477 9.94767 57.7016 9.59334 58.2526 9.24809L57.7217 8.40067C57.1653 8.74929 56.6061 9.10705 56.0444 9.474L56.5914 10.3112ZM59.9626 8.20017C60.5347 7.85736 61.1033 7.5245 61.6678 7.20152L61.1712 6.33353C60.6008 6.65987 60.0265 6.99612 59.4486 7.34237L59.9626 8.20017ZM63.4121 6.22767C64.0024 5.90625 64.5877 5.59589 65.1673 5.29647L64.7084 4.408C64.1222 4.71077 63.5306 5.02455 62.9339 5.34942L63.4121 6.22767ZM66.9341 4.40899C67.5441 4.11127 68.147 3.82611 68.7421 3.55338L68.3255 2.6443C67.7229 2.92045 67.1127 3.20908 66.4955 3.5103L66.9341 4.40899ZM70.5511 2.75195C71.1707 2.48703 71.7805 2.23625 72.3798 1.99945L72.0123 1.06942C71.4043 1.30969 70.7859 1.56399 70.158 1.83248L70.5511 2.75195ZM74.2477 1.29384C74.5557 1.18299 74.8603 1.07609 75.1616 0.97313L74.8382 0.0268698C74.5317 0.131606 74.222 0.240291 73.909 0.352945L74.2477 1.29384Z" fill="#EE693F"/>
</svg>
