<svg width="49" height="309" viewBox="0 0 49 309" fill="none" xmlns="http://www.w3.org/2000/svg">
<path d="M13.7544 0.0695367C13.5166 -0.070945 13.21 0.00789705 13.0695 0.245635C12.9291 0.483374 13.0079 0.789982 13.2456 0.930463L13.7544 0.0695367ZM40.5 77.5L40.0792 77.23L40.5 77.5ZM23.5 164.5L23.9544 164.291L23.9509 164.284L23.9472 164.276L23.5 164.5ZM0.503381 306.942C0.471323 307.216 0.667678 307.465 0.941954 307.497L5.41153 308.019C5.6858 308.051 5.93413 307.855 5.96619 307.58C5.99825 307.306 5.80189 307.058 5.52762 307.026L1.55467 306.561L2.01904 302.588C2.05109 302.314 1.85474 302.066 1.58046 302.034C1.30619 302.002 1.05786 302.198 1.0258 302.472L0.503381 306.942ZM2.10195 306.76C2.31681 306.586 2.35036 306.271 2.17689 306.056C2.00343 305.842 1.68863 305.808 1.47377 305.981L2.10195 306.76ZM3.01031 304.715C2.79904 304.893 2.77193 305.208 2.94975 305.419C3.12756 305.631 3.44298 305.658 3.65425 305.48L3.01031 304.715ZM5.16509 304.182C5.37267 304 5.39331 303.684 5.2112 303.476C5.02909 303.268 4.71318 303.248 4.5056 303.43L5.16509 304.182ZM5.97883 302.11C5.77509 302.297 5.76104 302.613 5.94744 302.816C6.13384 303.02 6.45011 303.034 6.65385 302.848L5.97883 302.11ZM8.12341 301.474C8.32315 301.284 8.33048 300.967 8.13979 300.768C7.9491 300.568 7.63261 300.56 7.43287 300.751L8.12341 301.474ZM8.84467 299.374C8.64904 299.569 8.64845 299.886 8.84334 300.081C9.03823 300.277 9.35482 300.278 9.55045 300.083L8.84467 299.374ZM10.9525 298.656C11.1439 298.457 11.1376 298.14 10.9386 297.949C10.7395 297.757 10.423 297.763 10.2316 297.963L10.9525 298.656ZM11.5935 296.515C11.4065 296.718 11.4197 297.034 11.6229 297.221C11.8261 297.408 12.1424 297.395 12.3294 297.192L11.5935 296.515ZM13.663 295.71C13.8455 295.503 13.8254 295.187 13.6182 295.005C13.4109 294.822 13.095 294.842 12.9125 295.05L13.663 295.71ZM14.2059 293.548C14.0281 293.759 14.0551 294.074 14.2663 294.252C14.4775 294.43 14.7929 294.403 14.9708 294.192L14.2059 293.548ZM16.2464 292.643C16.4195 292.427 16.3855 292.113 16.1704 291.94C15.9553 291.766 15.6405 291.8 15.4674 292.016L16.2464 292.643ZM16.6856 290.467C16.5173 290.686 16.5583 291 16.7772 291.168C16.9961 291.337 17.31 291.296 17.4784 291.077L16.6856 290.467ZM18.6846 289.471C18.848 289.248 18.8 288.936 18.5774 288.772C18.3547 288.609 18.0418 288.657 17.8784 288.879L18.6846 289.471ZM19.0328 287.269C18.8744 287.495 18.9294 287.807 19.1557 287.965C19.3819 288.124 19.6937 288.069 19.852 287.843L19.0328 287.269ZM20.9758 286.199C21.1291 285.969 21.0672 285.658 20.8375 285.505C20.6078 285.352 20.2974 285.414 20.1441 285.643L20.9758 286.199ZM21.2299 283.976C21.0818 284.21 21.1506 284.518 21.3837 284.667C21.6168 284.815 21.9258 284.746 22.0739 284.513L21.2299 283.976ZM23.1281 282.812C23.271 282.576 23.1953 282.269 22.959 282.126C22.7227 281.983 22.4153 282.059 22.2724 282.295L23.1281 282.812ZM23.2758 280.593C23.1382 280.832 23.2207 281.138 23.4601 281.276C23.6995 281.413 24.0052 281.331 24.1428 281.091L23.2758 280.593ZM25.124 279.34C25.2563 279.098 25.167 278.794 24.9246 278.662C24.6822 278.529 24.3785 278.619 24.2462 278.861L25.124 279.34ZM25.1739 277.116C25.047 277.361 25.1429 277.663 25.3881 277.79C25.6333 277.917 25.935 277.821 26.062 277.576L25.1739 277.116ZM26.9632 275.787C27.0848 275.539 26.9824 275.24 26.7345 275.118C26.4865 274.997 26.187 275.099 26.0654 275.347L26.9632 275.787ZM26.9189 273.558C26.8027 273.808 26.9116 274.106 27.1621 274.222C27.4126 274.338 27.7098 274.229 27.826 273.979L26.9189 273.558ZM28.6467 272.159C28.7575 271.906 28.6423 271.611 28.3894 271.5C28.1365 271.389 27.8416 271.505 27.7308 271.758L28.6467 272.159ZM28.5081 269.931C28.4027 270.186 28.5241 270.479 28.7793 270.584C29.0345 270.69 29.3269 270.568 29.4323 270.313L28.5081 269.931ZM30.177 268.456C30.2771 268.198 30.1496 267.909 29.8923 267.809C29.6349 267.708 29.3451 267.836 29.245 268.093L30.177 268.456ZM29.943 266.242C29.8483 266.501 29.9817 266.789 30.2411 266.883C30.5005 266.978 30.7876 266.845 30.8823 266.585L29.943 266.242ZM31.5508 264.696C31.6402 264.434 31.501 264.15 31.2397 264.061C30.9785 263.971 30.6942 264.111 30.6047 264.372L31.5508 264.696ZM31.2268 262.494C31.1426 262.757 31.2875 263.038 31.5505 263.122C31.8135 263.206 32.095 263.061 32.1792 262.798L31.2268 262.494ZM32.7706 260.886C32.8495 260.621 32.699 260.342 32.4344 260.263C32.1698 260.185 31.8913 260.335 31.8123 260.6L32.7706 260.886ZM32.3604 258.695C32.2866 258.961 32.4426 259.237 32.7087 259.31C32.9748 259.384 33.2503 259.228 33.3241 258.962L32.3604 258.695ZM33.8393 257.032C33.9079 256.765 33.7468 256.492 33.4793 256.423C33.2118 256.355 32.9393 256.516 32.8707 256.783L33.8393 257.032ZM33.346 254.856C33.2824 255.125 33.4487 255.394 33.7174 255.458C33.9861 255.522 34.2555 255.355 34.3191 255.087L33.346 254.856ZM34.7614 253.137C34.82 252.867 34.6487 252.601 34.3789 252.542C34.109 252.484 33.8428 252.655 33.7842 252.925L34.7614 253.137ZM34.187 250.984C34.1333 251.255 34.3094 251.518 34.5803 251.572C34.8512 251.625 35.1143 251.449 35.1679 251.178L34.187 250.984ZM35.5392 249.212C35.588 248.94 35.4073 248.68 35.1355 248.631C34.8637 248.582 34.6038 248.763 34.555 249.035L35.5392 249.212ZM34.8876 247.084C34.8436 247.356 35.0289 247.613 35.3015 247.657C35.5741 247.701 35.8308 247.516 35.8748 247.243L34.8876 247.084ZM36.1768 245.263C36.2161 244.99 36.0264 244.737 35.753 244.697C35.4797 244.658 35.2263 244.848 35.187 245.121L36.1768 245.263ZM35.4523 243.157C35.4176 243.431 35.6116 243.681 35.8856 243.716C36.1596 243.75 36.4097 243.556 36.4444 243.282L35.4523 243.157ZM36.6785 241.297C36.7086 241.023 36.5105 240.776 36.236 240.746C35.9615 240.716 35.7146 240.914 35.6845 241.188L36.6785 241.297ZM35.8845 239.214C35.8589 239.489 36.061 239.732 36.336 239.758C36.611 239.783 36.8546 239.581 36.8802 239.306L35.8845 239.214ZM37.0491 237.317C37.0702 237.042 36.8642 236.801 36.5889 236.78C36.3135 236.759 36.0732 236.965 36.052 237.24L37.0491 237.317ZM36.1885 235.259C36.1717 235.535 36.3815 235.772 36.6572 235.789C36.9328 235.805 37.1699 235.596 37.1867 235.32L36.1885 235.259ZM37.2929 233.324C37.3054 233.048 37.092 232.814 36.8161 232.802C36.5402 232.789 36.3064 233.003 36.2939 233.279L37.2929 233.324ZM36.3689 231.298C36.3605 231.574 36.5775 231.805 36.8535 231.813C37.1295 231.821 37.3601 231.604 37.3684 231.328L36.3689 231.298ZM37.4139 229.327C37.4182 229.051 37.1978 228.824 36.9217 228.82C36.6455 228.815 36.4183 229.036 36.4141 229.312L37.4139 229.327ZM36.4298 227.331C36.4296 227.608 36.6534 227.832 36.9295 227.832C37.2056 227.832 37.4296 227.608 37.4298 227.332L36.4298 227.331ZM37.4166 225.33C37.4128 225.054 37.1859 224.834 36.9098 224.837C36.6337 224.841 36.4129 225.068 36.4167 225.344L37.4166 225.33ZM36.3753 223.361C36.383 223.637 36.613 223.854 36.8891 223.847C37.1651 223.839 37.3826 223.609 37.3749 223.333L36.3753 223.361ZM37.3051 221.338C37.2936 221.062 37.0605 220.848 36.7846 220.859C36.5087 220.871 36.2944 221.104 36.306 221.38L37.3051 221.338ZM36.209 219.394C36.2244 219.67 36.4604 219.881 36.7361 219.865C37.0118 219.85 37.2228 219.614 37.2075 219.338L36.209 219.394ZM37.0832 217.349C37.0641 217.074 36.8253 216.866 36.5499 216.885C36.2744 216.904 36.0665 217.143 36.0856 217.418L37.0832 217.349ZM35.9349 215.434C35.9576 215.71 36.1992 215.914 36.4744 215.892C36.7496 215.869 36.9542 215.627 36.9315 215.352L35.9349 215.434ZM36.7539 213.363C36.7276 213.089 36.4834 212.887 36.2085 212.913C35.9336 212.94 35.7321 213.184 35.7585 213.459L36.7539 213.363ZM35.5563 211.485C35.5862 211.76 35.833 211.958 36.1076 211.928C36.3821 211.898 36.5804 211.652 36.5504 211.377L35.5563 211.485ZM36.3209 209.389C36.2874 209.115 36.0381 208.92 35.764 208.953C35.4899 208.987 35.2948 209.236 35.3282 209.51L36.3209 209.389ZM35.0767 207.55C35.1135 207.824 35.3653 208.016 35.6389 207.979C35.9126 207.942 36.1046 207.69 36.0677 207.416L35.0767 207.55ZM35.7871 205.429C35.7468 205.156 35.4927 204.967 35.2195 205.007C34.9463 205.048 34.7575 205.302 34.7978 205.575L35.7871 205.429ZM34.4967 203.618C34.5403 203.89 34.7968 204.076 35.0695 204.032C35.3421 203.989 35.5278 203.732 35.4841 203.459L34.4967 203.618ZM35.1553 201.485C35.1083 201.213 34.8496 201.031 34.5775 201.078C34.3054 201.125 34.1229 201.384 34.17 201.656L35.1553 201.485ZM33.8199 199.701C33.8702 199.973 34.1312 200.152 34.4027 200.102C34.6742 200.052 34.8535 199.791 34.8031 199.519L33.8199 199.701ZM34.4278 197.561C34.3741 197.29 34.1111 197.114 33.8402 197.167C33.5693 197.221 33.3932 197.484 33.4468 197.755L34.4278 197.561ZM33.0483 195.804C33.1052 196.074 33.3704 196.247 33.6406 196.19C33.9108 196.133 34.0837 195.868 34.0268 195.598L33.0483 195.804ZM33.6061 193.657C33.5459 193.388 33.2787 193.218 33.0092 193.278C32.7397 193.338 32.5699 193.605 32.6301 193.875L33.6061 193.657ZM32.1833 191.927C32.2467 192.196 32.5159 192.363 32.7847 192.299C33.0535 192.236 33.22 191.967 33.1566 191.698L32.1833 191.927ZM32.6893 189.768C32.6227 189.5 32.3515 189.336 32.0835 189.403C31.8155 189.469 31.6522 189.741 31.7188 190.009L32.6893 189.768ZM31.2256 188.074C31.2954 188.341 31.5686 188.501 31.8358 188.431C32.1029 188.361 32.2629 188.088 32.1931 187.821L31.2256 188.074ZM31.6785 185.899C31.6055 185.633 31.3304 185.476 31.0641 185.549C30.7978 185.622 30.6411 185.897 30.7141 186.164L31.6785 185.899ZM30.1751 184.245C30.2514 184.51 30.5284 184.663 30.7938 184.587C31.0592 184.511 31.2125 184.234 31.1362 183.968L30.1751 184.245ZM30.5741 182.057C30.4945 181.793 30.2156 181.643 29.9512 181.723C29.6868 181.802 29.5369 182.081 29.6165 182.346L30.5741 182.057ZM29.0308 180.443C29.1137 180.706 29.3945 180.852 29.6579 180.77C29.9213 180.687 30.0676 180.406 29.9847 180.143L29.0308 180.443ZM29.3745 178.246C29.2883 177.983 29.0057 177.841 28.7434 177.927C28.4811 178.013 28.3383 178.296 28.4246 178.558L29.3745 178.246ZM27.7904 176.67C27.8801 176.932 28.1645 177.071 28.4257 176.981C28.6868 176.891 28.8259 176.607 28.7362 176.346L27.7904 176.67ZM28.0773 174.468C27.9842 174.208 27.6979 174.072 27.438 174.166C27.178 174.259 27.0428 174.545 27.136 174.805L28.0773 174.468ZM26.45 172.932C26.5468 173.191 26.8349 173.322 27.0936 173.225C27.3522 173.128 27.4834 172.84 27.3866 172.581L26.45 172.932ZM26.6784 170.73C26.5779 170.472 26.288 170.345 26.0308 170.446C25.7735 170.546 25.6465 170.836 25.747 171.094L26.6784 170.73ZM25.0042 169.234C25.1086 169.49 25.4005 169.613 25.6562 169.508C25.9118 169.404 26.0344 169.112 25.9299 168.856L25.0042 169.234ZM25.1657 167.027C25.0572 166.773 24.7634 166.655 24.5095 166.764C24.2555 166.872 24.1377 167.166 24.2462 167.42L25.1657 167.027ZM23.4456 165.591C23.5585 165.843 23.8543 165.955 24.1063 165.842C24.3583 165.729 24.4711 165.434 24.3581 165.182L23.4456 165.591ZM23.517 163.387C23.3999 163.137 23.1023 163.029 22.8522 163.146C22.6021 163.264 22.4942 163.561 22.6113 163.811L23.517 163.387ZM21.7995 161.956C21.9038 162.212 22.1956 162.334 22.4513 162.23C22.707 162.126 22.8297 161.834 22.7254 161.578L21.7995 161.956ZM22.0241 159.731C21.9324 159.471 21.6468 159.334 21.3864 159.426C21.1259 159.518 20.9892 159.803 21.081 160.064L22.0241 159.731ZM20.4538 158.141C20.5334 158.405 20.8122 158.555 21.0766 158.476C21.3411 158.396 21.491 158.117 21.4115 157.853L20.4538 158.141ZM20.8843 155.945C20.8166 155.678 20.5447 155.516 20.277 155.583C20.0092 155.651 19.8471 155.923 19.9147 156.191L20.8843 155.945ZM19.4613 154.221C19.5176 154.491 19.7823 154.664 20.0527 154.608C20.323 154.552 20.4966 154.287 20.4403 154.017L19.4613 154.221ZM20.0763 152.072C20.0309 151.8 19.7732 151.616 19.5009 151.661C19.2285 151.706 19.0445 151.964 19.0899 152.236L20.0763 152.072ZM18.796 150.238C18.831 150.512 19.0814 150.705 19.3553 150.67C19.6293 150.635 19.8229 150.385 19.7879 150.111L18.796 150.238ZM19.572 148.139C19.5469 147.864 19.3035 147.661 19.0285 147.687C18.7535 147.712 18.551 147.955 18.5762 148.23L19.572 148.139ZM18.4269 146.221C18.4427 146.496 18.6791 146.707 18.9547 146.691C19.2304 146.675 19.4411 146.439 19.4252 146.163L18.4269 146.221ZM19.3433 144.18C19.3363 143.904 19.1068 143.686 18.8308 143.693C18.5547 143.7 18.3366 143.929 18.3437 144.205L19.3433 144.18ZM18.3231 142.188C18.3218 142.464 18.5446 142.689 18.8207 142.691C19.0969 142.692 19.3218 142.469 19.3231 142.193L18.3231 142.188ZM19.3611 140.21C19.3703 139.934 19.154 139.702 18.878 139.693C18.602 139.684 18.3708 139.9 18.3617 140.176L19.3611 140.21ZM18.456 138.163C18.4394 138.439 18.6494 138.676 18.925 138.693C19.2007 138.709 19.4376 138.499 19.4542 138.224L18.456 138.163ZM19.5993 136.24C19.6229 135.965 19.4191 135.723 19.1439 135.699C18.8688 135.676 18.6266 135.88 18.603 136.155L19.5993 136.24ZM18.7993 134.154C18.7691 134.428 18.9671 134.675 19.2416 134.705C19.5161 134.736 19.7631 134.538 19.7933 134.263L18.7993 134.154ZM20.0341 132.287C20.0706 132.014 19.8783 131.762 19.6046 131.726C19.3309 131.689 19.0794 131.881 19.0429 132.155L20.0341 132.287ZM19.3306 130.165C19.2882 130.437 19.475 130.693 19.7478 130.735C20.0207 130.778 20.2763 130.591 20.3187 130.318L19.3306 130.165ZM20.6449 128.355C20.693 128.084 20.5115 127.824 20.2396 127.776C19.9676 127.728 19.7082 127.91 19.6602 128.181L20.6449 128.355ZM20.0299 126.204C19.9765 126.475 20.1528 126.738 20.4237 126.791C20.6947 126.845 20.9576 126.668 21.011 126.398L20.0299 126.204ZM21.4143 124.448C21.4727 124.178 21.3013 123.912 21.0314 123.854C20.7616 123.795 20.4954 123.967 20.4369 124.237L21.4143 124.448ZM20.8801 122.276C20.8168 122.545 20.9834 122.814 21.2522 122.878C21.521 122.941 21.7902 122.774 21.8535 122.505L20.8801 122.276ZM22.3267 120.57C22.3946 120.303 22.2326 120.031 21.965 119.963C21.6973 119.895 21.4253 120.057 21.3574 120.325L22.3267 120.57ZM21.8673 118.381C21.7951 118.648 21.9525 118.923 22.219 118.995C22.4856 119.067 22.7602 118.91 22.8325 118.643L21.8673 118.381ZM23.3694 116.724C23.4458 116.458 23.2927 116.181 23.0274 116.105C22.7621 116.028 22.485 116.182 22.4085 116.447L23.3694 116.724ZM22.9792 114.522C22.8986 114.786 23.0475 115.066 23.3117 115.146C23.5758 115.227 23.8552 115.078 23.9357 114.814L22.9792 114.522ZM24.5313 112.91C24.6157 112.647 24.471 112.366 24.208 112.281C23.9451 112.197 23.6636 112.342 23.5792 112.605L24.5313 112.91ZM24.2061 110.698C24.118 110.96 24.2588 111.243 24.5205 111.331C24.7822 111.419 25.0658 111.279 25.1539 111.017L24.2061 110.698ZM25.8029 109.132C25.8946 108.872 25.7578 108.586 25.4973 108.495C25.2368 108.403 24.9514 108.54 24.8596 108.8L25.8029 109.132ZM25.5397 106.909C25.4445 107.169 25.5775 107.456 25.8367 107.551C26.0959 107.646 26.3832 107.513 26.4784 107.254L25.5397 106.909ZM27.1773 105.389C27.2759 105.131 27.1467 104.842 26.8887 104.743C26.6308 104.645 26.3418 104.774 26.2432 105.032L27.1773 105.389ZM26.9717 103.161C26.8699 103.418 26.9954 103.708 27.2521 103.81C27.5088 103.912 27.7994 103.787 27.9012 103.53L26.9717 103.161ZM28.6493 101.678C28.7544 101.423 28.6325 101.131 28.3771 101.026C28.1218 100.921 27.8296 101.043 27.7245 101.298L28.6493 101.678ZM28.4981 99.4497C28.39 99.7038 28.5082 99.9974 28.7623 100.106C29.0164 100.214 29.31 100.096 29.4182 99.8414L28.4981 99.4497ZM30.2109 98.0106C30.3222 97.7578 30.2075 97.4628 29.9548 97.3515C29.702 97.2403 29.4069 97.3549 29.2957 97.6077L30.2109 98.0106ZM30.1167 95.7726C30.0024 96.024 30.1136 96.3204 30.365 96.4347C30.6163 96.549 30.9128 96.4379 31.0271 96.1865L30.1167 95.7726ZM31.8625 94.3778C31.9798 94.1278 31.8722 93.8301 31.6222 93.7128C31.3722 93.5955 31.0744 93.7031 30.9572 93.9531L31.8625 94.3778ZM31.8184 92.1455C31.6982 92.394 31.8022 92.6931 32.0508 92.8133C32.2993 92.9336 32.5983 92.8296 32.7186 92.581L31.8184 92.1455ZM33.6011 90.7848C33.7244 90.5377 33.624 90.2374 33.3769 90.1142C33.1298 89.9909 32.8296 90.0913 32.7063 90.3384L33.6011 90.7848ZM33.6138 88.5468C33.4875 88.7924 33.5842 89.0938 33.8298 89.2201C34.0753 89.3464 34.3768 89.2497 34.5031 89.0041L33.6138 88.5468ZM35.4243 87.2399C35.5536 86.9959 35.4607 86.6932 35.2167 86.5639C34.9727 86.4346 34.6701 86.5275 34.5407 86.7715L35.4243 87.2399ZM35.489 85.0102C35.3565 85.2525 35.4455 85.5563 35.6878 85.6887C35.9301 85.8212 36.2339 85.7322 36.3664 85.4899L35.489 85.0102ZM37.3382 83.7404C37.474 83.4999 37.3891 83.1949 37.1486 83.0592C36.9081 82.9234 36.6031 83.0083 36.4674 83.2488L37.3382 83.7404ZM37.4689 81.5036C37.3297 81.7421 37.4102 82.0483 37.6487 82.1875C37.8872 82.3266 38.1934 82.2461 38.3326 82.0076L37.4689 81.5036ZM39.3512 80.2923C39.4941 80.056 39.4184 79.7486 39.182 79.6058C38.9457 79.4629 38.6383 79.5386 38.4955 79.7749L39.3512 80.2923ZM39.55 78.0635C39.4031 78.2973 39.4735 78.6059 39.7074 78.7529C39.9412 78.8998 40.2498 78.8294 40.3967 78.5955L39.55 78.0635ZM41.4675 76.902C41.6126 76.6671 41.5399 76.359 41.305 76.2138C41.0701 76.0686 40.762 76.1414 40.6168 76.3763L41.4675 76.902ZM41.6283 74.6756C41.4913 74.9153 41.5746 75.2208 41.8143 75.3578C42.054 75.4949 42.3595 75.4116 42.4965 75.1719L41.6283 74.6756ZM43.4637 73.4075C43.592 73.163 43.4978 72.8607 43.2533 72.7324C43.0088 72.6041 42.7065 72.6983 42.5782 72.9428L43.4637 73.4075ZM43.4632 71.1769C43.3442 71.4261 43.4497 71.7246 43.6989 71.8436C43.9481 71.9626 44.2466 71.8571 44.3656 71.6079L43.4632 71.1769ZM45.1991 69.7708C45.3081 69.5171 45.1909 69.223 44.9372 69.114C44.6835 69.0049 44.3894 69.1221 44.2804 69.3758L45.1991 69.7708ZM45.0205 67.5526C44.9219 67.8105 45.0512 68.0996 45.3091 68.1981C45.5671 68.2967 45.8561 68.1675 45.9546 67.9095L45.0205 67.5526ZM46.6367 66.0033C46.7241 65.7413 46.5826 65.4581 46.3206 65.3707C46.0586 65.2833 45.7755 65.4249 45.6881 65.6868L46.6367 66.0033ZM46.2669 63.8162C46.1912 64.0818 46.345 64.3585 46.6105 64.4343C46.8761 64.51 47.1528 64.3562 47.2285 64.0907L46.2669 63.8162ZM47.7414 62.1244C47.8049 61.8557 47.6386 61.5863 47.3698 61.5228C47.1011 61.4593 46.8317 61.6257 46.7682 61.8944L47.7414 62.1244ZM47.1758 59.9713C47.1249 60.2427 47.3036 60.504 47.575 60.5549C47.8464 60.6058 48.1077 60.4271 48.1587 60.1557L47.1758 59.9713ZM48.484 58.1614C48.5219 57.8879 48.3309 57.6354 48.0574 57.5975C47.7838 57.5595 47.5314 57.7505 47.4934 58.024L48.484 58.1614ZM47.7173 56.0637C47.6926 56.3387 47.8955 56.5817 48.1706 56.6063C48.4456 56.631 48.6886 56.4281 48.7133 56.153L47.7173 56.0637ZM48.8446 54.1454C48.8559 53.8695 48.6415 53.6366 48.3656 53.6252C48.0896 53.6139 47.8568 53.8283 47.8454 54.1043L48.8446 54.1454ZM47.8785 52.1274C47.8806 52.4035 48.1062 52.6257 48.3823 52.6236C48.6585 52.6215 48.8806 52.3959 48.8785 52.1198L47.8785 52.1274ZM48.8144 50.1024C48.799 49.8266 48.563 49.6156 48.2873 49.631C48.0116 49.6465 47.8006 49.8825 47.816 50.1582L48.8144 50.1024ZM47.6592 48.1961C47.6878 48.4708 47.9335 48.6703 48.2082 48.6418C48.4829 48.6133 48.6824 48.3675 48.6539 48.0929L47.6592 48.1961ZM48.3978 46.0869C48.3564 45.8139 48.1015 45.6261 47.8285 45.6674C47.5555 45.7088 47.3677 45.9637 47.409 46.2367L48.3978 46.0869ZM47.069 44.2947C47.1228 44.5655 47.386 44.7415 47.6568 44.6877C47.9277 44.6339 48.1036 44.3707 48.0498 44.0998L47.069 44.2947ZM47.6127 42.1313C47.5469 41.8631 47.2762 41.699 47.008 41.7648C46.7398 41.8306 46.5757 42.1014 46.6415 42.3696L47.6127 42.1313ZM46.1293 40.4616C46.2066 40.7267 46.4841 40.8789 46.7492 40.8016C47.0143 40.7243 47.1666 40.4467 47.0893 40.1816L46.1293 40.4616ZM46.4846 38.2586C46.3963 37.9969 46.1126 37.8563 45.851 37.9446C45.5893 38.0329 45.4488 38.3165 45.537 38.5782L46.4846 38.2586ZM44.8682 36.7199C44.9669 36.9778 45.256 37.107 45.5139 37.0083C45.7718 36.9097 45.9009 36.6206 45.8023 36.3627L44.8682 36.7199ZM45.0458 34.494C44.9373 34.2401 44.6435 34.1222 44.3895 34.2307C44.1356 34.3392 44.0177 34.633 44.1262 34.8869L45.0458 34.494ZM43.3158 33.0834C43.4336 33.3332 43.7315 33.4402 43.9813 33.3224C44.2311 33.2047 44.3381 32.9067 44.2203 32.657L43.3158 33.0834ZM43.33 30.8521C43.2035 30.6066 42.902 30.5102 42.6565 30.6366C42.4111 30.7631 42.3146 31.0646 42.4411 31.3101L43.33 30.8521ZM41.5044 29.5654C41.639 29.8065 41.9436 29.8928 42.1847 29.7581C42.4258 29.6234 42.5121 29.3188 42.3774 29.0777L41.5044 29.5654ZM41.3677 27.3373C41.2254 27.1007 40.9181 27.0243 40.6815 27.1667C40.4449 27.3091 40.3685 27.6163 40.5109 27.8529L41.3677 27.3373ZM39.4646 26.1735C39.6142 26.4056 39.9236 26.4725 40.1557 26.3229C40.3879 26.1734 40.4548 25.8639 40.3052 25.6318L39.4646 26.1735ZM39.1898 23.9562C39.0335 23.7286 38.7222 23.6709 38.4946 23.8272C38.267 23.9836 38.2092 24.2949 38.3656 24.5225L39.1898 23.9562ZM37.2199 22.9047C37.3826 23.1278 37.6954 23.1767 37.9185 23.014C38.1416 22.8512 38.1905 22.5385 38.0278 22.3154L37.2199 22.9047ZM36.823 20.7103C36.6543 20.4917 36.3403 20.4512 36.1217 20.6199C35.9031 20.7887 35.8627 21.1027 36.0314 21.3213L36.823 20.7103ZM34.798 19.7659C34.9724 19.98 35.2873 20.0122 35.5014 19.8379C35.7155 19.6635 35.7478 19.3485 35.5734 19.1344L34.798 19.7659ZM34.2843 17.5917C34.1046 17.3821 33.7889 17.3578 33.5792 17.5375C33.3696 17.7172 33.3453 18.0329 33.525 18.2425L34.2843 17.5917ZM32.217 16.7536C32.4017 16.9588 32.7179 16.9755 32.9231 16.7907C33.1283 16.606 33.145 16.2898 32.9602 16.0846L32.217 16.7536ZM31.6005 14.6094C31.411 14.4086 31.0945 14.3994 30.8937 14.5889C30.6928 14.7785 30.6837 15.0949 30.8732 15.2958L31.6005 14.6094ZM29.4914 13.865C29.6855 14.0614 30.0021 14.0633 30.1985 13.8692C30.395 13.6751 30.3969 13.3586 30.2028 13.1621L29.4914 13.865ZM28.7754 11.7497C28.5769 11.5577 28.2604 11.5629 28.0683 11.7614C27.8763 11.9598 27.8815 12.2763 28.08 12.4684L28.7754 11.7497ZM26.6412 11.1066C26.8438 11.2942 27.1601 11.282 27.3478 11.0794C27.5354 10.8767 27.5232 10.5604 27.3206 10.3728L26.6412 11.1066ZM25.8346 9.02684C25.628 8.84369 25.3119 8.86277 25.1288 9.06944C24.9457 9.27611 24.9647 9.59212 25.1714 9.77526L25.8346 9.02684ZM23.6668 8.47102C23.8775 8.64961 24.193 8.62364 24.3716 8.41302C24.5501 8.20239 24.5242 7.88688 24.3136 7.70829L23.6668 8.47102ZM22.7661 6.42511C22.5516 6.2512 22.2367 6.2841 22.0628 6.4986C21.8889 6.71309 21.9218 7.02796 22.1363 7.20187L22.7661 6.42511ZM20.5801 5.96864C20.7985 6.1377 21.1125 6.09775 21.2816 5.87941C21.4506 5.66107 21.4107 5.34702 21.1923 5.17796L20.5801 5.96864ZM19.5913 3.96763C19.3691 3.8037 19.0561 3.85095 18.8922 4.07317C18.7282 4.29538 18.7755 4.60842 18.9977 4.77235L19.5913 3.96763ZM17.3875 3.61461C17.6137 3.77299 17.9255 3.718 18.0838 3.4918C18.2422 3.26559 18.1872 2.95382 17.961 2.79544L17.3875 3.61461ZM16.2982 1.664C16.0677 1.51185 15.7576 1.57532 15.6054 1.80576C15.4532 2.03621 15.5167 2.34636 15.7472 2.49851L16.2982 1.664ZM14.0748 1.43082C14.3099 1.57559 14.6179 1.50233 14.7627 1.26718C14.9074 1.03203 14.8342 0.724041 14.599 0.579268L14.0748 1.43082ZM1.31012 307.392C1.57581 307.182 1.83976 306.971 2.10195 306.76L1.47377 305.981C1.21421 306.191 0.952922 306.4 0.689882 306.608L1.31012 307.392ZM3.65425 305.48C4.16475 305.05 4.66834 304.617 5.16509 304.182L4.5056 303.43C4.014 303.861 3.51559 304.29 3.01031 304.715L3.65425 305.48ZM6.65385 302.848C7.15084 302.393 7.64067 301.935 8.12341 301.474L7.43287 300.751C6.95526 301.207 6.4706 301.66 5.97883 302.11L6.65385 302.848ZM9.55045 300.083C10.025 299.61 10.4923 299.134 10.9525 298.656L10.2316 297.963C9.77637 298.436 9.31409 298.907 8.84467 299.374L9.55045 300.083ZM12.3294 297.192C12.7811 296.701 13.2256 296.207 13.663 295.71L12.9125 295.05C12.4799 295.541 12.0403 296.029 11.5935 296.515L12.3294 297.192ZM14.9708 294.192C15.4033 293.678 15.8285 293.162 16.2464 292.643L15.4674 292.016C15.0541 292.529 14.6337 293.04 14.2059 293.548L14.9708 294.192ZM17.4784 291.077C17.8878 290.544 18.2899 290.009 18.6846 289.471L17.8784 288.879C17.4881 289.411 17.0905 289.941 16.6856 290.467L17.4784 291.077ZM19.852 287.843C20.2339 287.297 20.6084 286.749 20.9758 286.199L20.1441 285.643C19.7808 286.188 19.4104 286.73 19.0328 287.269L19.852 287.843ZM22.0739 284.513C22.4326 283.948 22.7839 283.381 23.1281 282.812L22.2724 282.295C21.932 282.858 21.5846 283.418 21.2299 283.976L22.0739 284.513ZM24.1428 281.091C24.4771 280.51 24.8041 279.926 25.124 279.34L24.2462 278.861C23.9299 279.441 23.6065 280.018 23.2758 280.593L24.1428 281.091ZM26.062 277.576C26.3696 276.982 26.6699 276.385 26.9632 275.787L26.0654 275.347C25.7753 275.939 25.4781 276.528 25.1739 277.116L26.062 277.576ZM27.826 273.979C28.1066 273.374 28.3801 272.767 28.6467 272.159L27.7308 271.758C27.467 272.359 27.1964 272.96 26.9189 273.558L27.826 273.979ZM29.4323 270.313C29.6875 269.696 29.9357 269.076 30.177 268.456L29.245 268.093C29.0062 268.707 28.7606 269.32 28.5081 269.931L29.4323 270.313ZM30.8823 266.585C31.1119 265.957 31.3347 265.327 31.5508 264.696L30.6047 264.372C30.3908 264.997 30.1703 265.62 29.943 266.242L30.8823 266.585ZM32.1792 262.798C32.3829 262.162 32.58 261.524 32.7706 260.886L31.8123 260.6C31.6236 261.232 31.4284 261.863 31.2268 262.494L32.1792 262.798ZM33.3241 258.962C33.5022 258.32 33.6739 257.676 33.8393 257.032L32.8707 256.783C32.7069 257.421 32.5368 258.059 32.3604 258.695L33.3241 258.962ZM34.3191 255.087C34.4727 254.437 34.6201 253.787 34.7614 253.137L33.7842 252.925C33.6442 253.569 33.4982 254.213 33.346 254.856L34.3191 255.087ZM35.1679 251.178C35.2977 250.523 35.4215 249.868 35.5392 249.212L34.555 249.035C34.4382 249.685 34.3156 250.335 34.187 250.984L35.1679 251.178ZM35.8748 247.243C35.9813 246.583 36.082 245.923 36.1768 245.263L35.187 245.121C35.0929 245.775 34.9932 246.43 34.8876 247.084L35.8748 247.243ZM36.4444 243.282C36.5281 242.621 36.6061 241.959 36.6785 241.297L35.6845 241.188C35.6126 241.844 35.5353 242.501 35.4523 243.157L36.4444 243.282ZM36.8802 239.306C36.9419 238.643 36.9981 237.98 37.0491 237.317L36.052 237.24C36.0015 237.898 35.9457 238.555 35.8845 239.214L36.8802 239.306ZM37.1867 235.32C37.2273 234.654 37.2626 233.989 37.2929 233.324L36.2939 233.279C36.2639 233.938 36.2288 234.598 36.1885 235.259L37.1867 235.32ZM37.3684 231.328C37.3886 230.66 37.4038 229.993 37.4139 229.327L36.4141 229.312C36.4039 229.973 36.3889 230.635 36.3689 231.298L37.3684 231.328ZM37.4298 227.332C37.4303 226.664 37.4258 225.996 37.4166 225.33L36.4167 225.344C36.4258 226.005 36.4303 226.668 36.4298 227.331L37.4298 227.332ZM37.3749 223.333C37.3562 222.666 37.3329 222.001 37.3051 221.338L36.306 221.38C36.3336 222.039 36.3568 222.699 36.3753 223.361L37.3749 223.333ZM37.2075 219.338C37.1705 218.674 37.129 218.011 37.0832 217.349L36.0856 217.418C36.1311 218.075 36.1723 218.734 36.209 219.394L37.2075 219.338ZM36.9315 215.352C36.8765 214.687 36.8173 214.024 36.7539 213.363L35.7585 213.459C35.8214 214.115 35.8803 214.774 35.9349 215.434L36.9315 215.352ZM36.5504 211.377C36.478 210.712 36.4014 210.049 36.3209 209.389L35.3282 209.51C35.4082 210.166 35.4843 210.825 35.5563 211.485L36.5504 211.377ZM36.0677 207.416C35.978 206.751 35.8845 206.088 35.7871 205.429L34.7978 205.575C34.8946 206.23 34.9875 206.889 35.0767 207.55L36.0677 207.416ZM35.4841 203.459C35.3781 202.798 35.2685 202.14 35.1553 201.485L34.17 201.656C34.2824 202.306 34.3914 202.96 34.4967 203.618L35.4841 203.459ZM34.8031 199.519C34.6814 198.863 34.5562 198.21 34.4278 197.561L33.4468 197.755C33.5745 198.4 33.6989 199.049 33.8199 199.701L34.8031 199.519ZM34.0268 195.598C33.8897 194.947 33.7494 194.3 33.6061 193.657L32.6301 193.875C32.7725 194.514 32.912 195.157 33.0483 195.804L34.0268 195.598ZM33.1566 191.698C33.0037 191.05 32.8479 190.406 32.6893 189.768L31.7188 190.009C31.8765 190.643 32.0313 191.283 32.1833 191.927L33.1566 191.698ZM32.1931 187.821C32.0242 187.175 31.8526 186.534 31.6785 185.899L30.7141 186.164C30.8872 186.795 31.0578 187.431 31.2256 188.074L32.1931 187.821ZM31.1362 183.968C30.9512 183.325 30.7638 182.688 30.5741 182.057L29.6165 182.346C29.805 182.972 29.9913 183.605 30.1751 184.245L31.1362 183.968ZM29.9847 180.143C29.7834 179.503 29.5799 178.87 29.3745 178.246L28.4246 178.558C28.6286 179.179 28.8308 179.807 29.0308 180.443L29.9847 180.143ZM28.7362 176.346C28.5183 175.711 28.2986 175.085 28.0773 174.468L27.136 174.805C27.3557 175.418 27.5739 176.04 27.7904 176.67L28.7362 176.346ZM27.3866 172.581C27.1517 171.954 26.9156 171.337 26.6784 170.73L25.747 171.094C25.9824 171.696 26.2168 172.309 26.45 172.932L27.3866 172.581ZM25.9299 168.856C25.6758 168.234 25.4209 167.624 25.1657 167.027L24.2462 167.42C24.4992 168.012 24.752 168.617 25.0042 169.234L25.9299 168.856ZM24.3581 165.182C24.2235 164.881 24.0889 164.584 23.9544 164.291L23.0456 164.709C23.1788 164.999 23.3122 165.293 23.4456 165.591L24.3581 165.182ZM23.9472 164.276C23.7999 163.982 23.6565 163.685 23.517 163.387L22.6113 163.811C22.7545 164.117 22.9016 164.421 23.0528 164.724L23.9472 164.276ZM22.7254 161.578C22.4769 160.969 22.2433 160.353 22.0241 159.731L21.081 160.064C21.3054 160.701 21.5447 161.331 21.7995 161.956L22.7254 161.578ZM21.4115 157.853C21.222 157.223 21.0464 156.587 20.8843 155.945L19.9147 156.191C20.0804 156.846 20.26 157.496 20.4538 158.141L21.4115 157.853ZM20.4403 154.017C20.3063 153.373 20.1851 152.725 20.0763 152.072L19.0899 152.236C19.2008 152.902 19.3245 153.564 19.4613 154.221L20.4403 154.017ZM19.7879 150.111C19.7043 149.457 19.6325 148.8 19.572 148.139L18.5762 148.23C18.6377 148.903 18.7109 149.572 18.796 150.238L19.7879 150.111ZM19.4252 146.163C19.3874 145.505 19.3602 144.844 19.3433 144.18L18.3437 144.205C18.3608 144.88 18.3884 145.552 18.4269 146.221L19.4252 146.163ZM19.3231 142.193C19.3263 141.534 19.3391 140.873 19.3611 140.21L18.3617 140.176C18.3393 140.849 18.3263 141.52 18.3231 142.188L19.3231 142.193ZM19.4542 138.224C19.494 137.564 19.5424 136.903 19.5993 136.24L18.603 136.155C18.5454 136.825 18.4963 137.495 18.456 138.163L19.4542 138.224ZM19.7933 134.263C19.8658 133.605 19.9462 132.947 20.0341 132.287L19.0429 132.155C18.954 132.822 18.8727 133.488 18.7993 134.154L19.7933 134.263ZM20.3187 130.318C20.4205 129.664 20.5293 129.01 20.6449 128.355L19.6602 128.181C19.5434 128.842 19.4334 129.503 19.3306 130.165L20.3187 130.318ZM21.011 126.398C21.1391 125.747 21.2737 125.097 21.4143 124.448L20.4369 124.237C20.295 124.892 20.1592 125.548 20.0299 126.204L21.011 126.398ZM21.8535 122.505C22.0056 121.859 22.1634 121.214 22.3267 120.57L21.3574 120.325C21.1927 120.974 21.0335 121.624 20.8801 122.276L21.8535 122.505ZM22.8325 118.643C23.0064 118.002 23.1855 117.362 23.3694 116.724L22.4085 116.447C22.2232 117.09 22.0427 117.735 21.8673 118.381L22.8325 118.643ZM23.9357 114.814C24.1299 114.177 24.3285 113.542 24.5313 112.91L23.5792 112.605C23.3749 113.241 23.1747 113.881 22.9792 114.522L23.9357 114.814ZM25.1539 111.017C25.3664 110.386 25.5829 109.757 25.8029 109.132L24.8596 108.8C24.6381 109.43 24.4202 110.062 24.2061 110.698L25.1539 111.017ZM26.4784 107.254C26.7082 106.628 26.9413 106.007 27.1773 105.389L26.2432 105.032C26.0056 105.654 25.771 106.28 25.5397 106.909L26.4784 107.254ZM27.9012 103.53C28.148 102.908 28.3975 102.291 28.6493 101.678L27.7245 101.298C27.4711 101.914 27.22 102.535 26.9717 103.161L27.9012 103.53ZM29.4182 99.8414C29.6805 99.2255 29.9449 98.615 30.2109 98.0106L29.2957 97.6077C29.028 98.2158 28.762 98.8299 28.4981 99.4497L29.4182 99.8414ZM31.0271 96.1865C31.3043 95.5767 31.5829 94.9737 31.8625 94.3778L30.9572 93.9531C30.6759 94.5525 30.3956 95.1592 30.1167 95.7726L31.0271 96.1865ZM32.7186 92.581C33.0124 91.9738 33.3067 91.3749 33.6011 90.7848L32.7063 90.3384C32.4101 90.9321 32.114 91.5346 31.8184 92.1455L32.7186 92.581ZM34.5031 89.0041C34.8108 88.4057 35.1181 87.8175 35.4243 87.2399L34.5407 86.7715C34.2326 87.3527 33.9234 87.9447 33.6138 88.5468L34.5031 89.0041ZM36.3664 85.4899C36.6924 84.8935 37.0166 84.3101 37.3382 83.7404L36.4674 83.2488C36.1436 83.8225 35.8172 84.4099 35.489 85.0102L36.3664 85.4899ZM38.3326 82.0076C38.6764 81.4185 39.0162 80.8464 39.3512 80.2923L38.4955 79.7749C38.1578 80.3336 37.8153 80.9101 37.4689 81.5036L38.3326 82.0076ZM40.3967 78.5955C40.5732 78.3147 40.748 78.0394 40.9208 77.77L40.0792 77.23C39.9046 77.5022 39.7281 77.78 39.55 78.0635L40.3967 78.5955ZM40.9208 77.77C41.1067 77.4803 41.2888 77.191 41.4675 76.902L40.6168 76.3763C40.4412 76.6605 40.262 76.9451 40.0792 77.23L40.9208 77.77ZM42.4965 75.1719C42.8335 74.5823 43.1558 73.9942 43.4637 73.4075L42.5782 72.9428C42.276 73.5187 41.9595 74.0963 41.6283 74.6756L42.4965 75.1719ZM44.3656 71.6079C44.6589 70.9937 44.9366 70.3814 45.1991 69.7708L44.2804 69.3758C44.0231 69.9742 43.7509 70.5746 43.4632 71.1769L44.3656 71.6079ZM45.9546 67.9095C46.1982 67.2719 46.4254 66.6365 46.6367 66.0033L45.6881 65.6868C45.4814 66.3064 45.259 66.9283 45.0205 67.5526L45.9546 67.9095ZM47.2285 64.0907C47.4164 63.4327 47.5871 62.7772 47.7414 62.1244L46.7682 61.8944C46.6175 62.5322 46.4506 63.1729 46.2669 63.8162L47.2285 64.0907ZM48.1587 60.1557C48.284 59.4879 48.3922 58.8231 48.484 58.1614L47.4934 58.024C47.4039 58.67 47.2982 59.3191 47.1758 59.9713L48.1587 60.1557ZM48.7133 56.153C48.7736 55.4803 48.8172 54.811 48.8446 54.1454L47.8454 54.1043C47.8187 54.7539 47.7762 55.4071 47.7173 56.0637L48.7133 56.153ZM48.8785 52.1198C48.8734 51.4433 48.8518 50.7707 48.8144 50.1024L47.816 50.1582C47.8524 50.8106 47.8735 51.4671 47.8785 52.1274L48.8785 52.1198ZM48.6539 48.0929C48.584 47.4197 48.4984 46.7509 48.3978 46.0869L47.409 46.2367C47.5074 46.8855 47.591 47.5387 47.6592 48.1961L48.6539 48.0929ZM48.0498 44.0998C47.9184 43.4387 47.7725 42.7824 47.6127 42.1313L46.6415 42.3696C46.7978 43.0066 46.9405 43.6483 47.069 44.2947L48.0498 44.0998ZM47.0893 40.1816C46.9008 39.5352 46.6989 38.8941 46.4846 38.2586L45.537 38.5782C45.7471 39.2009 45.9447 39.8287 46.1293 40.4616L47.0893 40.1816ZM45.8023 36.3627C45.5618 35.734 45.3094 35.1111 45.0458 34.494L44.1262 34.8869C44.3849 35.4925 44.6325 36.1035 44.8682 36.7199L45.8023 36.3627ZM44.2203 32.657C43.9338 32.0492 43.6368 31.4476 43.33 30.8521L42.4411 31.3101C42.7426 31.8954 43.0344 32.4865 43.3158 33.0834L44.2203 32.657ZM42.3774 29.0777C42.0497 28.4911 41.7129 27.9109 41.3677 27.3373L40.5109 27.8529C40.8506 28.4175 41.182 28.9884 41.5044 29.5654L42.3774 29.0777ZM40.3052 25.6318C39.9408 25.0663 39.5687 24.5078 39.1898 23.9562L38.3656 24.5225C38.7391 25.0661 39.1057 25.6165 39.4646 26.1735L40.3052 25.6318ZM38.0278 22.3154C37.6321 21.7729 37.2302 21.2378 36.823 20.7103L36.0314 21.3213C36.4332 21.8419 36.8297 22.3697 37.2199 22.9047L38.0278 22.3154ZM35.5734 19.1344C35.1481 18.6122 34.7181 18.0979 34.2843 17.5917L33.525 18.2425C33.9535 18.7424 34.3781 19.2503 34.798 19.7659L35.5734 19.1344ZM32.9602 16.0846C32.5097 15.5841 32.0562 15.0923 31.6005 14.6094L30.8732 15.2958C31.3236 15.7731 31.7718 16.2591 32.217 16.7536L32.9602 16.0846ZM30.2028 13.1621C29.7279 12.6815 29.2517 12.2107 28.7754 11.7497L28.08 12.4684C28.5511 12.9242 29.0219 13.3898 29.4914 13.865L30.2028 13.1621ZM27.3206 10.3728C26.824 9.91303 26.3283 9.46429 25.8346 9.02684L25.1714 9.77526C25.6597 10.208 26.15 10.6518 26.6412 11.1066L27.3206 10.3728ZM24.3136 7.70829C23.7936 7.26741 23.2773 6.83958 22.7661 6.42511L22.1363 7.20187C22.6419 7.61178 23.1525 8.03493 23.6668 8.47102L24.3136 7.70829ZM21.1923 5.17796C20.6503 4.7583 20.1161 4.35473 19.5913 3.96763L18.9977 4.77235C19.5162 5.15485 20.0443 5.55374 20.5801 5.96864L21.1923 5.17796ZM17.961 2.79544C17.3912 2.39647 16.836 2.01914 16.2982 1.664L15.7472 2.49851C16.2773 2.84854 16.825 3.22076 17.3875 3.61461L17.961 2.79544ZM14.599 0.579268C14.3106 0.401674 14.0288 0.231725 13.7544 0.0695367L13.2456 0.930463C13.5147 1.08948 13.7913 1.2563 14.0748 1.43082L14.599 0.579268Z" fill="#EE693F"/>
</svg>
